<?xml version="1.0" encoding="UTF-8" standalone="no"?>
<svg
   xmlns:dc="http://purl.org/dc/elements/1.1/"
   xmlns:cc="http://creativecommons.org/ns#"
   xmlns:rdf="http://www.w3.org/1999/02/22-rdf-syntax-ns#"
   xmlns:svg="http://www.w3.org/2000/svg"
   xmlns="http://www.w3.org/2000/svg"
   xmlns:sodipodi="http://sodipodi.sourceforge.net/DTD/sodipodi-0.dtd"
   xmlns:inkscape="http://www.inkscape.org/namespaces/inkscape"
   width="159"
   height="253"
   viewBox="0 0 42.068748 66.939585"
   version="1.1"
   id="svg8"
   inkscape:version="1.0.1 (3bc2e813f5, 2020-09-07)"
   sodipodi:docname="GA_portrait_h_s_02032022.svg">
  <defs
     id="defs2">
    <clipPath
       clipPathUnits="userSpaceOnUse"
       id="clipPath1064">
      <rect
         style="fill:#a3b8b9;fill-opacity:1;stroke:none;stroke-width:0.264999;stroke-linecap:round;stroke-linejoin:round;stroke-miterlimit:4;stroke-dasharray:none;stroke-opacity:1"
         id="rect1066"
         width="28.811653"
         height="44.515961"
         x="117.0108"
         y="180.28654"
         ry="1.1709625" />
    </clipPath>
  </defs>
  <sodipodi:namedview
     id="base"
     pagecolor="#ffffff"
     bordercolor="#666666"
     borderopacity="1.0"
     inkscape:pageopacity="0.0"
     inkscape:pageshadow="2"
     inkscape:zoom="2.6539109"
     inkscape:cx="125.76962"
     inkscape:cy="133.42174"
     inkscape:document-units="mm"
     inkscape:current-layer="layer1"
     inkscape:document-rotation="0"
     showgrid="false"
     units="px"
     inkscape:window-width="1920"
     inkscape:window-height="1017"
     inkscape:window-x="-8"
     inkscape:window-y="-8"
     inkscape:window-maximized="1"
     showguides="false" />
  <metadata
     id="metadata5">
    <rdf:RDF>
      <cc:Work
         rdf:about="">
        <dc:format>image/svg+xml</dc:format>
        <dc:type
           rdf:resource="http://purl.org/dc/dcmitype/StillImage" />
        <dc:title></dc:title>
      </cc:Work>
    </rdf:RDF>
  </metadata>
  <g
     inkscape:label="Calque 1"
     inkscape:groupmode="layer"
     id="layer1">
    <g
       id="g1069"
       transform="matrix(1.4601297,0,0,1.503721,-170.85096,-271.10065)"
       inkscape:export-filename="C:\Users\tangh\OneDrive\Bureau\Activdesign\datacity\assets\formulaire\GA_portrait_m_22022022.png"
       inkscape:export-xdpi="300"
       inkscape:export-ydpi="300"
       style="fill:#a3b8b9;fill-opacity:1;stroke-width:0.674871">
      <rect
         style="fill:#a3b8b9;fill-opacity:1;stroke:none;stroke-width:0.17884;stroke-linecap:round;stroke-linejoin:round;stroke-miterlimit:4;stroke-dasharray:none;stroke-opacity:1"
         id="rect1250-9"
         width="28.811653"
         height="44.515961"
         x="117.0108"
         y="180.28654"
         ry="1.1709625" />
    </g>
    <path
       style="fill:#282828;fill-opacity:1;stroke-width:0.665099"
       d="m 121.93754,225.58562 c -0.10708,-0.23055 -0.19468,-0.64106 -0.19468,-0.91224 0,-0.27118 -0.14017,-0.67125 -0.31149,-0.88905 -0.47444,-0.60315 -0.40093,-1.93929 0.32034,-5.82256 0.60549,-3.25997 0.63764,-3.59317 0.77155,-7.99617 0.16871,-5.54753 0.28842,-7.49591 0.4743,-7.71988 0.0771,-0.0929 0.66766,-0.44026 1.31237,-0.77192 0.64471,-0.33166 1.43593,-0.85643 1.75827,-1.16616 0.50486,-0.48512 1.74311,-1.04969 3.26719,-1.48965 0.12708,-0.0367 0.19408,-0.36884 0.19297,-0.95662 -0.003,-1.6431 -0.13574,-2.03098 -1.02139,-2.98759 -0.60061,-0.64873 -0.83517,-1.03172 -0.87257,-1.42471 -0.0451,-0.47442 -0.10802,-0.543 -0.5361,-0.58469 -0.29168,-0.0284 -0.66298,-0.23302 -0.93159,-0.51339 -0.39773,-0.41514 -0.44693,-0.57764 -0.44949,-1.48472 -0.003,-0.89074 0.0443,-1.0568 0.37321,-1.32341 0.20685,-0.16768 0.46467,-0.27088 0.57293,-0.22934 0.21025,0.0807 0.0479,-0.58942 -0.5972,-2.46517 l -0.31768,-0.9237 0.41122,-0.35372 c 0.24676,-0.21226 0.41123,-0.51439 0.41123,-0.75544 0,-0.22095 0.10513,-0.44206 0.23362,-0.49137 0.13787,-0.0529 0.23361,-0.28676 0.23361,-0.57063 0,-0.30977 0.14897,-0.63647 0.4185,-0.9178 0.39133,-0.40846 0.79574,-0.60776 0.60413,-0.29772 -0.19669,0.31825 1.04534,-0.14033 1.3914,-0.51373 0.33711,-0.36375 1.14895,-0.59537 0.94818,-0.27052 -0.0454,0.0735 0.17823,0.10703 0.49697,0.0746 1.06324,-0.1082 1.58952,-0.24171 1.50322,-0.38136 -0.047,-0.0761 -0.0113,-0.1383 0.0795,-0.1383 0.18748,0 0.78736,0.56248 0.78897,0.73979 0.002,0.24953 1.05005,0.81264 1.81876,0.97746 0.44412,0.0952 0.88612,0.26788 0.98223,0.38367 0.0961,0.1158 0.17743,0.55832 0.18072,0.98337 0.005,0.66341 0.0593,0.79712 0.38283,0.94451 0.69976,0.31883 0.74167,0.73086 0.23973,2.35671 l -0.45678,1.47957 0.37055,0.19862 c 0.45956,0.24633 0.58859,0.73108 0.495,1.85964 -0.0588,0.70846 -0.15325,0.94514 -0.49461,1.23876 -0.23208,0.19964 -0.58578,0.36297 -0.78599,0.36297 -0.37656,0 -0.55308,0.25951 -0.55308,0.81313 0,0.17622 -0.39068,0.76539 -0.86817,1.30926 -0.77868,0.88693 -0.88268,1.08937 -1.00902,1.96408 -0.0775,0.53637 -0.0999,1.20072 -0.0499,1.47633 0.0939,0.51737 0.33577,0.65425 2.24431,1.27017 0.30296,0.0978 0.77408,0.41445 1.04695,0.70374 0.27287,0.28929 1.12143,0.84895 1.8857,1.24367 l 1.38957,0.71769 0.0963,2.37626 c 0.053,1.30695 0.16294,4.16343 0.24439,6.34775 0.1319,3.53765 0.20856,4.28621 0.70177,6.85274 0.30454,1.5847 0.5974,3.45326 0.65082,4.15236 0.0876,1.14684 0.0645,1.31255 -0.23654,1.69525 -0.21032,0.26739 -0.33365,0.64667 -0.33365,1.02614 0,0.39431 -0.10745,0.70943 -0.31148,0.91346 -0.30451,0.30451 -0.51831,0.31146 -9.53934,0.31028 l -9.22784,-0.001 -0.19468,-0.4192 z"
       id="path1240"
       clip-path="url(#clipPath1064)"
       transform="matrix(1.5033447,0,0,1.503721,-176.43675,-271.11735)" />
  </g>
</svg>
