<?xml version="1.0" encoding="UTF-8" standalone="no"?>
<svg
   xmlns:dc="http://purl.org/dc/elements/1.1/"
   xmlns:cc="http://creativecommons.org/ns#"
   xmlns:rdf="http://www.w3.org/1999/02/22-rdf-syntax-ns#"
   xmlns:svg="http://www.w3.org/2000/svg"
   xmlns="http://www.w3.org/2000/svg"
   xmlns:sodipodi="http://sodipodi.sourceforge.net/DTD/sodipodi-0.dtd"
   xmlns:inkscape="http://www.inkscape.org/namespaces/inkscape"
   width="110"
   height="170"
   viewBox="0 0 29.104165 44.979168"
   version="1.1"
   id="svg8"
   inkscape:version="1.0.1 (3bc2e813f5, 2020-09-07)"
   sodipodi:docname="GA_portrait_f_s_25022022.svg">
  <defs
     id="defs2">
    <clipPath
       clipPathUnits="userSpaceOnUse"
       id="clipPath1064">
      <rect
         style="fill:#a3b8b9;fill-opacity:1;stroke:none;stroke-width:0.264999;stroke-linecap:round;stroke-linejoin:round;stroke-miterlimit:4;stroke-dasharray:none;stroke-opacity:1"
         id="rect1066"
         width="28.811653"
         height="44.515961"
         x="117.0108"
         y="180.28654"
         ry="1.1709625" />
    </clipPath>
    <clipPath
       clipPathUnits="userSpaceOnUse"
       id="clipPath1053">
      <g
         id="g1059"
         transform="translate(-1.6034075,-15.875367)"
         style="stroke-width:0.999999">
        <rect
           style="fill:#cbf4f5;fill-opacity:1;stroke:none;stroke-width:0.264999;stroke-linecap:round;stroke-linejoin:round;stroke-miterlimit:4;stroke-dasharray:none;stroke-opacity:1"
           id="rect1055"
           width="28.811653"
           height="44.515961"
           x="107.76307"
           y="201.40039"
           ry="1.1709625"
           transform="translate(10.851143,-5.2384828)" />
        <rect
           style="fill:#cbf4f5;fill-opacity:1;stroke:none;stroke-width:0.264999;stroke-linecap:round;stroke-linejoin:round;stroke-miterlimit:4;stroke-dasharray:none;stroke-opacity:1"
           id="rect1057"
           width="28.811653"
           height="44.515961"
           x="138.91335"
           y="201.40039"
           ry="1.1709625"
           transform="translate(10.851143,-5.2384828)" />
      </g>
    </clipPath>
    <clipPath
       clipPathUnits="userSpaceOnUse"
       id="clipPath1088">
      <rect
         style="fill:#ffffff;fill-opacity:1;stroke:none;stroke-width:0.264999;stroke-linecap:round;stroke-linejoin:round;stroke-miterlimit:4;stroke-dasharray:none;stroke-opacity:1"
         id="rect1091"
         width="28.811653"
         height="44.515961"
         x="148.16109"
         y="180.28654"
         ry="1.1709625" />
    </clipPath>
    <clipPath
       clipPathUnits="userSpaceOnUse"
       id="clipPath1072">
      <rect
         style="fill:#a3b8b9;fill-opacity:1;stroke:none;stroke-width:0.264999;stroke-linecap:round;stroke-linejoin:round;stroke-miterlimit:4;stroke-dasharray:none;stroke-opacity:1"
         id="rect1074"
         width="28.811653"
         height="44.515961"
         x="148.16109"
         y="180.28654"
         ry="1.1709625" />
    </clipPath>
  </defs>
  <sodipodi:namedview
     id="base"
     pagecolor="#ffffff"
     bordercolor="#666666"
     borderopacity="1.0"
     inkscape:pageopacity="0.0"
     inkscape:pageshadow="2"
     inkscape:zoom="2.725977"
     inkscape:cx="125.76962"
     inkscape:cy="65.031941"
     inkscape:document-units="mm"
     inkscape:current-layer="layer1"
     inkscape:document-rotation="0"
     showgrid="false"
     units="px"
     inkscape:window-width="1920"
     inkscape:window-height="1017"
     inkscape:window-x="-8"
     inkscape:window-y="-8"
     inkscape:window-maximized="1"
     showguides="false" />
  <metadata
     id="metadata5">
    <rdf:RDF>
      <cc:Work
         rdf:about="">
        <dc:format>image/svg+xml</dc:format>
        <dc:type
           rdf:resource="http://purl.org/dc/dcmitype/StillImage" />
        <dc:title></dc:title>
      </cc:Work>
    </rdf:RDF>
  </metadata>
  <g
     inkscape:label="Calque 1"
     inkscape:groupmode="layer"
     id="layer1">
    <g
       id="g1065"
       transform="matrix(1.0101526,0,0,1.0104054,-149.66531,-182.16249)"
       inkscape:export-filename="C:\Users\tangh\OneDrive\Bureau\Activdesign\datacity\assets\formulaire\GA_portrait_f_22022022.png"
       inkscape:export-xdpi="300"
       inkscape:export-ydpi="300"
       style="fill:#a3b8b9;fill-opacity:1;stroke-width:0.989826">
      <rect
         style="fill:#a3b8b9;fill-opacity:1;stroke:none;stroke-width:0.262303;stroke-linecap:round;stroke-linejoin:round;stroke-miterlimit:4;stroke-dasharray:none;stroke-opacity:1"
         id="rect1252-0"
         width="28.811653"
         height="44.515961"
         x="148.16109"
         y="180.28654"
         ry="1.1709625" />
    </g>
    <path
       style="fill:#282828;fill-opacity:1;stroke-width:0.989826"
       d="m 150.25927,225.15509 c -0.0426,-0.0426 0.0772,-0.61174 0.26635,-1.2647 0.53402,-1.84372 1.14248,-5.65521 1.20909,-7.57399 0.0332,-0.95584 0.12476,-2.21393 0.20349,-2.79575 0.0787,-0.58182 0.21783,-2.04915 0.30912,-3.26072 0.18269,-2.42466 0.68527,-5.12342 1.23485,-6.63089 0.33548,-0.92023 0.42051,-1.01952 1.50309,-1.75529 0.82274,-0.55917 1.63536,-0.94127 2.87132,-1.35013 1.93518,-0.64015 2.78605,-1.02724 2.89137,-1.31535 0.0393,-0.10743 0.0399,-0.45292 0.001,-0.76775 -0.0586,-0.47949 -0.16221,-0.61947 -0.63824,-0.86232 -1.1995,-0.61194 -1.81527,-1.90474 -1.81527,-3.81115 0,-0.79181 -0.0546,-1.05612 -0.23227,-1.1243 -0.6498,-0.24935 -0.94726,-2.1627 -0.38316,-2.4646 0.2139,-0.11447 0.31741,-0.38693 0.38956,-1.02539 0.18133,-1.6047 0.49225,-2.30852 1.42615,-3.22841 1.07147,-1.0554 1.97942,-1.39819 3.73594,-1.41049 1.07799,-0.008 1.27954,0.0343 1.59652,0.33138 0.19954,0.18702 0.50647,0.34003 0.68207,0.34003 0.42231,0 1.18119,0.93537 1.53258,1.88902 0.15313,0.41559 0.32348,1.23165 0.37854,1.81347 0.0766,0.80929 0.17025,1.10657 0.39856,1.26519 0.41732,0.28993 0.41507,1.49266 -0.004,2.02517 -0.16623,0.21133 -0.30224,0.48688 -0.30224,0.61233 0,0.12545 0.24387,0.9569 0.54194,1.84767 0.65105,1.94563 0.61889,2.33863 -0.266,3.25045 -0.52738,0.54343 -0.59588,0.68352 -0.44912,0.91853 0.0953,0.15251 0.17318,0.57896 0.17318,0.94767 0,0.64127 0.0246,0.67835 0.56671,0.85399 0.93219,0.30202 2.1966,0.98489 3.00102,1.62074 0.7039,0.55641 0.78407,0.69076 1.15746,1.93975 0.51159,1.71128 0.83253,3.56693 1.02928,5.95115 0.0857,1.03896 0.22161,2.43307 0.30195,3.098 0.0803,0.66494 0.17045,1.95703 0.20024,2.87132 0.0655,2.01 0.54641,5.16097 1.12448,7.36776 0.23414,0.89382 0.39195,1.65888 0.35071,1.70012 -0.0412,0.0412 -0.66734,0.075 -1.39131,0.075 h -1.31631 l -0.23074,-0.86895 c -0.12691,-0.47792 -0.55152,-1.75301 -0.94358,-2.83354 -0.71764,-1.97777 -0.78635,-2.34415 -1.2613,-6.72493 -0.0676,-0.62338 -0.27955,-1.64345 -0.47103,-2.26683 l -0.34816,-1.13341 -0.23984,0.52892 c -0.18451,0.40692 -0.22975,0.92983 -0.19611,2.26684 0.0374,1.48673 0.0993,1.85802 0.42826,2.56907 0.79356,1.7153 0.97096,2.46 1.18797,4.98703 0.11777,1.37143 0.2587,2.71391 0.31318,2.98328 l 0.099,0.48977 h -8.12226 -8.12226 l 0.10034,-0.48977 c 0.0552,-0.26937 0.19449,-1.61185 0.30957,-2.98328 0.2116,-2.5215 0.37229,-3.19927 1.18237,-4.98703 0.5193,-1.14605 0.68234,-3.48482 0.31916,-4.57827 -0.16969,-0.51088 -0.2879,-0.68682 -0.36557,-0.54411 -0.29326,0.53883 -0.75303,2.64697 -0.75303,3.4528 0,0.49287 -0.068,0.93816 -0.15112,0.98953 -0.0834,0.0515 -0.15112,0.72962 -0.15112,1.51303 0,0.7808 -0.066,1.57584 -0.14658,1.76676 -0.30925,0.73242 -1.65689,4.60911 -1.81489,5.22082 l -0.16589,0.64227 h -1.32909 c -0.731,0 -1.36396,-0.0349 -1.40659,-0.0775 z"
       id="path1242"
       clip-path="url(#clipPath1072)"
       transform="matrix(1.0101526,0,0,1.0104054,-149.66531,-182.17371)" />
  </g>
</svg>
