<?xml version="1.0" encoding="UTF-8" standalone="no"?>
<svg
   xmlns:dc="http://purl.org/dc/elements/1.1/"
   xmlns:cc="http://creativecommons.org/ns#"
   xmlns:rdf="http://www.w3.org/1999/02/22-rdf-syntax-ns#"
   xmlns:svg="http://www.w3.org/2000/svg"
   xmlns="http://www.w3.org/2000/svg"
   xmlns:sodipodi="http://sodipodi.sourceforge.net/DTD/sodipodi-0.dtd"
   xmlns:inkscape="http://www.inkscape.org/namespaces/inkscape"
   version="1.1"
   id="svg1402"
   width="414"
   height="600"
   viewBox="0 0 414 600"
   sodipodi:docname="Adjointe_15032022.svg"
   inkscape:version="1.0.1 (3bc2e813f5, 2020-09-07)"
   inkscape:export-filename="C:\Users\Tomsa\Desktop\Activ design\Data city\Rendus finaux\Travail des gens\PERSONNAGES\Adjointe_15032022.png"
   inkscape:export-xdpi="300"
   inkscape:export-ydpi="300">
  <metadata
     id="metadata1408">
    <rdf:RDF>
      <cc:Work
         rdf:about="">
        <dc:format>image/svg+xml</dc:format>
        <dc:type
           rdf:resource="http://purl.org/dc/dcmitype/StillImage" />
        <dc:title></dc:title>
      </cc:Work>
    </rdf:RDF>
  </metadata>
  <defs
     id="defs1406" />
  <sodipodi:namedview
     pagecolor="#ffffff"
     bordercolor="#666666"
     borderopacity="1"
     objecttolerance="10"
     gridtolerance="10"
     guidetolerance="10"
     inkscape:pageopacity="0"
     inkscape:pageshadow="2"
     inkscape:window-width="1920"
     inkscape:window-height="1017"
     id="namedview1404"
     showgrid="false"
     showguides="false"
     inkscape:zoom="1.1877471"
     inkscape:cx="183.08576"
     inkscape:cy="272.29028"
     inkscape:window-x="-8"
     inkscape:window-y="-8"
     inkscape:window-maximized="1"
     inkscape:current-layer="layer1"
     inkscape:document-rotation="0"
     inkscape:pagecheckerboard="0" />
  <g
     inkscape:groupmode="layer"
     id="layer2"
     inkscape:label="couleur"
     style="display:inline" />
  <g
     inkscape:groupmode="layer"
     id="layer1"
     inkscape:label="line"
     style="display:inline;opacity:1">
    <g
       id="g11614"
       transform="matrix(1.110037,0,0,1.1094514,-19.33823,-91.980224)"
       style="stroke-width:0.910528">
      <path
         style="display:inline;fill:#434e7c;fill-opacity:1;stroke:none;stroke-width:0.190216px;stroke-linecap:butt;stroke-linejoin:miter;stroke-opacity:1"
         d="m 200.26921,264.90612 c -0.0778,-0.27219 -1.1942,-6.30539 -13.00418,16.33857 -1.88384,4.57663 -29.9878,15.46428 -34.34435,14.17121 -4.17799,-2.60956 -2.5008,28.67586 -2.83423,31.67683 -0.33344,3.00096 -5.16834,75.69095 -4.66817,78.19176 2.33409,7.66913 12.67075,20.0064 15.50496,22.00705 0.50018,4.16801 -12.17056,36.67846 -10.83679,38.84581 3.00097,3.66782 29.84291,14.00447 44.18084,8.16927 5.33503,-11.33697 15.17154,-44.51429 17.83904,-47.18181 3.33442,6.33536 14.50468,44.18084 19.33955,47.84867 6.39442,3.20942 33.16667,-1.7949 33.0106,-3.66783 0,0 10.18145,-0.79636 9.97334,-4.85166 -0.47949,-9.34315 -7.59548,-26.85926 -10.76706,-39.32404 2.16736,-2.83425 15.63181,-18.51107 15.63181,-21.34531 0,-2.83424 -5.50176,-76.02438 -4.50145,-80.52585 1.00032,-4.50144 -0.16673,-29.34272 -3.33441,-30.00961 -38.51236,-4.16799 -36.01153,-26.17504 -46.68162,-30.84322 -6.25202,0.0835 -24.50788,0.50016 -24.50788,0.50016"
         id="path2360"
         sodipodi:nodetypes="cccscccccccscssccc" />
      <path
         style="display:inline;fill:#d1cddc;fill-opacity:1;stroke:none;stroke-width:0.190216px;stroke-linecap:butt;stroke-linejoin:miter;stroke-opacity:1"
         d="m 226.9021,272.64282 -28.48168,-0.26437 c -2.84163,10.87535 -6.6402,19.9735 -6.97817,35.49852 0.11973,-0.0355 18.85074,55.24627 21.11548,59.87282 2.89453,-10.13517 21.36504,-59.07893 21.05551,-60.9969 -0.30954,-1.91801 -1.55964,-26.80933 -6.71114,-34.11007 z"
         id="path2364"
         sodipodi:nodetypes="ccccsc" />
      <path
         style="display:inline;fill:#e5b293;fill-opacity:1;stroke:none;stroke-width:0.190216px;stroke-linecap:butt;stroke-linejoin:miter;stroke-opacity:1"
         d="m 227.05559,180.34413 c 0,0 -28.42442,26.43967 -44.44413,29.82591 0.009,2.69424 -0.44047,6.1292 -0.35366,9.19535 -6.09956,-28.82077 -13.53337,9.49875 1.49491,15.68266 4.54323,13.0678 14.76348,17.54099 16.626,18.59015 -0.51894,6.81386 -0.10224,16.01892 -0.79124,20.07399 1.6844,3.40061 8.35086,7.69921 11.852,8.3661 3.50113,0.66687 11.58573,-5.36661 13.96214,-8.60188 0.62587,-3.23525 -2.95863,-16.90631 -0.79126,-20.07397 11.00905,-2.46038 12.73257,-11.04328 15.6488,-17.17894 17.88814,-12.14798 6.48825,-41.36691 2.59356,-17.32966 -0.57493,-3.77841 -0.11788,-9.43113 -0.11788,-9.43113 0,0 -13.8774,-16.72693 -15.67924,-29.11858 z"
         id="path2316"
         sodipodi:nodetypes="ccccccscccccc" />
      <path
         style="display:inline;fill:#bf8070;fill-opacity:1;stroke:none;stroke-width:0.190216px;stroke-linecap:butt;stroke-linejoin:miter;stroke-opacity:1"
         d="m 199.94112,235.63406 c 0,0 21.4558,1.061 23.93148,0.11789 7.07895,-2.69674 -2.59356,3.77245 -12.14258,3.65455 -6.95591,-0.0858 -11.7889,-3.77244 -11.7889,-3.77244 z"
         id="path2318"
         sodipodi:nodetypes="cssc" />
      <path
         style="display:inline;fill:#e2d9d4;fill-opacity:1;stroke:none;stroke-width:0.190216px;stroke-linecap:butt;stroke-linejoin:miter;stroke-opacity:1"
         d="m 221.69163,214.35511 c 0,0 6.30707,-11.43523 13.6162,-0.23578 -3.4188,7.78066 -10.55107,6.366 -13.6162,0.23578 z"
         id="path2320"
         sodipodi:nodetypes="ccc" />
      <path
         style="display:inline;fill:#e2d9d4;fill-opacity:1;stroke:none;stroke-width:0.190216px;stroke-linecap:butt;stroke-linejoin:miter;stroke-opacity:1"
         d="m 202.95097,214.37067 c 0,0 -6.30704,-11.43523 -13.61618,-0.23577 3.41877,7.78067 10.55108,6.366 13.61618,0.23577 z"
         id="path2320-6"
         sodipodi:nodetypes="ccc" />
      <path
         style="display:inline;fill:#7a6e6e;fill-opacity:1;stroke:none;stroke-width:0.190216px;stroke-linecap:butt;stroke-linejoin:miter;stroke-opacity:1"
         d="m 242.85271,218.89384 -0.11788,-9.43113 c 0,0 -11.90681,-13.55724 -15.67924,-29.11858 -23.10623,22.39891 -44.44413,29.82591 -44.44413,29.82591 l -0.35366,9.19535 -1.99501,-8.97677 c 0,0 -1.65957,-0.69012 -3.07422,-1.16169 -0.94312,-44.56201 36.42767,-43.26524 39.13913,-43.26524 2.71143,0 10.13844,4.12611 12.26043,5.65867 10.02058,-2.71146 24.63881,26.28924 24.7567,30.53324 0.11789,4.24401 -5.18713,5.65866 -6.13023,7.42699 -3.34394,0.77841 -4.36189,9.31325 -4.36189,9.31325 z"
         id="path2341"
         sodipodi:nodetypes="cccccccscscc" />
      <path
         style="display:inline;fill:#7a6e6e;fill-opacity:1;stroke:none;stroke-width:0.190216px;stroke-linecap:butt;stroke-linejoin:miter;stroke-opacity:1"
         d="m 183.75271,235.04805 c 0,0 -6.68203,-8.01988 -8.09671,-11.085 -1.41467,-3.06511 -16.26867,39.4928 6.95546,44.9157 -0.35366,-1.29679 -0.70734,-2.94723 -0.70734,-4.71556 3.06511,2.47566 9.19534,5.54078 12.37834,4.71556 2.34982,-1.99169 3.81188,-5.97937 5.98675,-3.97263 1.5267,1.40868 -0.51389,-6.34947 0.1095,-11.26792 0.22853,-1.80294 -14.54164,-5.85471 -16.626,-18.59015"
         id="path2343"
         sodipodi:nodetypes="cscccssc" />
      <path
         style="display:inline;fill:#7a6e6e;fill-opacity:1;stroke:none;stroke-width:0.190216px;stroke-linecap:butt;stroke-linejoin:miter;stroke-opacity:1"
         d="m 240.7537,235.11902 c 0,0 6.68204,-8.01988 8.09671,-11.08499 1.41467,-3.06512 16.26867,39.49279 -6.95545,44.91568 0.35365,-1.29676 0.70732,-2.94722 0.70732,-4.71557 -3.06511,2.47567 -7.89856,5.18712 -11.08155,4.3619 -3.18301,-0.82521 -4.31072,-6.05905 -6.45831,-4.09052 -1.53132,1.40365 -0.31133,-5.87789 -0.93473,-10.79636 3.22718,-1.64586 14.54162,-5.85471 16.62601,-18.59014"
         id="path2343-9"
         sodipodi:nodetypes="cscccscc" />
      <path
         style="display:inline;fill:#41465d;fill-opacity:1;stroke:none;stroke-width:0.190216px;stroke-linecap:butt;stroke-linejoin:miter;stroke-opacity:1"
         d="m 158.09056,471.05828 c 0,0 8.25222,87.23784 8.25222,90.30295 0,3.06513 6.366,83.2296 8.25222,85.11583 1.88622,1.88621 33.00892,2.35778 34.42357,-0.23578 1.41466,-2.59355 -0.9431,-84.40849 -1.41466,-87.23782 -0.47156,-2.82934 3.77245,-73.32693 3.77245,-73.32693 0,0 6.13022,69.79027 5.89446,73.32693 -0.23579,3.53667 -3.06512,84.1727 -1.65045,87.23782 1.41466,3.06513 32.53734,3.06511 34.42357,0.23578 1.88622,-2.82933 9.90266,-99.49826 10.13845,-103.50651 0.23576,-4.00821 4.47978,-38.43184 4.59767,-41.96846 0.11789,-3.53665 1.76832,-29.94381 1.76832,-29.94381 0,0 -31.53744,7.12308 -35.1025,3.9152 -3.56507,-3.20784 -16.60544,-42.50458 -19.33955,-47.84867 -9.94802,25.32701 -15.49645,42.64947 -17.83904,47.18181 -3.63938,1.46724 -34.05473,0.52411 -36.17673,-3.24834 z"
         id="path2366"
         sodipodi:nodetypes="csssscssssscsccc" />
      <path
         style="display:inline;fill:#002654;fill-opacity:1;stroke:none;stroke-width:0.190216px;stroke-linecap:butt;stroke-linejoin:miter;stroke-opacity:1"
         d="m 258.62127,414.78753 -1.66719,-7.0856 8.66943,10.42001 z"
         id="path2400" />
      <path
         style="fill:none;stroke:#000000;stroke-width:1.52174;stroke-linecap:butt;stroke-linejoin:miter;stroke-miterlimit:4;stroke-dasharray:none;stroke-opacity:1"
         d="m 240.25915,236.2235 c 14.38246,-12.37833 11.19945,-31.59424 4.27908,-25.43254 0,0 -4.58962,28.10681 -6.09011,29.94072 -4.21193,10.32193 -8.65411,10.65825 -13.83777,12.67076 -8.36663,4.95969 -17.12477,3.88685 -24.23164,0.23576 -5.33851,-3.76898 -13.34597,-6.18685 -15.9479,-17.40796 -0.83361,-4.50143 -4.16802,-25.84162 -4.16802,-25.84162 -6.92513,-6.28705 -10.02482,13.28983 4.35762,25.66817"
         id="path2003"
         sodipodi:nodetypes="cccccccc" />
      <path
         style="fill:none;stroke:#000000;stroke-width:1.52174;stroke-linecap:butt;stroke-linejoin:miter;stroke-miterlimit:4;stroke-dasharray:none;stroke-opacity:1"
         d="m 247.92194,214.53194 c 0,0 -1.88623,-0.35366 -1.76834,0.82523 0.11789,1.17887 -1.061,13.20357 -2.23989,14.02878"
         id="path2005" />
      <path
         style="display:inline;opacity:1;fill:none;stroke:#000000;stroke-width:1.52174;stroke-linecap:butt;stroke-linejoin:miter;stroke-miterlimit:4;stroke-dasharray:none;stroke-opacity:1"
         d="m 176.95764,214.36522 c 0,0 1.88621,-0.35367 1.76834,0.82522 -0.11789,1.17888 1.06099,13.20357 2.23987,14.02879"
         id="path2005-1" />
      <path
         style="fill:none;stroke:#000000;stroke-width:1.52174;stroke-linecap:butt;stroke-linejoin:miter;stroke-miterlimit:4;stroke-dasharray:none;stroke-opacity:1"
         d="m 210.43323,210.7595 c 0,0 -2.12199,17.91911 -1.17887,18.39068 0.94312,0.47155 6.83756,-0.1179 6.83756,-0.1179"
         id="path2026" />
      <path
         style="fill:none;stroke:#000000;stroke-width:1.52174;stroke-linecap:butt;stroke-linejoin:miter;stroke-miterlimit:4;stroke-dasharray:none;stroke-opacity:1"
         d="m 196.99391,234.33728 c 0,0 6.82369,2.71145 14.854,2.71145 8.95955,0 15.44346,-2.35779 15.44346,-2.35779"
         id="path2028"
         sodipodi:nodetypes="csc" />
      <path
         style="fill:none;stroke:#000000;stroke-width:1.52174;stroke-linecap:butt;stroke-linejoin:miter;stroke-miterlimit:4;stroke-dasharray:none;stroke-opacity:1"
         d="m 221.04326,214.06039 c 0,0 2.95241,-5.07189 6.60178,-5.30502 5.89302,-0.37642 8.37012,5.06924 8.37012,5.06924"
         id="path2030"
         sodipodi:nodetypes="csc" />
      <ellipse
         style="fill:#000000;fill-opacity:1;stroke:none;stroke-width:1.68693;stroke-linecap:round;stroke-linejoin:round;stroke-miterlimit:4;stroke-dasharray:none;stroke-opacity:1"
         id="path2032"
         cx="228.41135"
         cy="213.9425"
         rx="4.0671687"
         ry="5.1871142" />
      <ellipse
         style="fill:#e2d9d4;fill-opacity:1;stroke:none;stroke-width:1.86372;stroke-linecap:round;stroke-linejoin:round;stroke-miterlimit:4;stroke-dasharray:none;stroke-opacity:1"
         id="path2038"
         cx="228.47025"
         cy="214.00146"
         rx="0.82522267"
         ry="1.5915008" />
      <path
         style="display:inline;opacity:1;fill:none;stroke:#000000;stroke-width:1.52174;stroke-linecap:butt;stroke-linejoin:miter;stroke-miterlimit:4;stroke-dasharray:none;stroke-opacity:1"
         d="m 203.55597,214.13378 c 0,0 -2.95242,-5.07187 -6.60177,-5.305 -5.89305,-0.37641 -8.37012,5.06924 -8.37012,5.06924"
         id="path2030-3"
         sodipodi:nodetypes="csc" />
      <ellipse
         style="display:inline;opacity:1;fill:#000000;fill-opacity:1;stroke:none;stroke-width:1.68693;stroke-linecap:round;stroke-linejoin:round;stroke-miterlimit:4;stroke-dasharray:none;stroke-opacity:1"
         id="path2032-1"
         cx="-196.18791"
         cy="214.01587"
         rx="4.0671687"
         ry="5.1871142"
         transform="scale(-1,1)" />
      <ellipse
         style="display:inline;opacity:1;fill:#e2d9d4;fill-opacity:1;stroke:none;stroke-width:1.86372;stroke-linecap:round;stroke-linejoin:round;stroke-miterlimit:4;stroke-dasharray:none;stroke-opacity:1"
         id="path2038-6"
         cx="-196.12898"
         cy="214.07483"
         rx="0.82522267"
         ry="1.5915008"
         transform="scale(-1,1)" />
      <path
         style="fill:none;stroke:#000000;stroke-width:1.48366;stroke-linecap:butt;stroke-linejoin:miter;stroke-miterlimit:4;stroke-dasharray:none;stroke-opacity:1"
         d="m 219.86438,205.80644 c 0,0 8.3701,-5.4229 10.3742,-5.18711 2.00412,0.23578 7.78069,3.41878 7.78069,3.41878"
         id="path2062" />
      <path
         style="fill:none;stroke:#000000;stroke-width:1.52174;stroke-linecap:butt;stroke-linejoin:miter;stroke-miterlimit:4;stroke-dasharray:none;stroke-opacity:1"
         d="m 243.16688,219.16873 -0.43205,-9.70602 c 0,0 -9.19534,-6.01232 -15.67924,-29.11858 -25.58191,25.34615 -44.44413,29.82591 -44.44413,29.82591 l -0.85349,9.58409"
         id="path2064"
         sodipodi:nodetypes="ccccc" />
      <path
         style="fill:none;stroke:#000000;stroke-width:1.52174;stroke-linecap:butt;stroke-linejoin:miter;stroke-miterlimit:4;stroke-dasharray:none;stroke-opacity:1"
         d="m 247.2146,209.58059 c 0,0 4.95133,-4.71554 6.13023,-7.42699 -0.70734,-3.77245 -14.9719,-35.36669 -24.7567,-30.53324 -5.42285,-2.82934 -7.19121,-4.1261 -12.26043,-5.65867 -27.23234,1.76833 -39.13913,17.0939 -39.13913,43.26524"
         id="path2068"
         sodipodi:nodetypes="ccccc" />
      <path
         style="fill:none;stroke:#000000;stroke-width:1.52174;stroke-linecap:butt;stroke-linejoin:miter;stroke-miterlimit:4;stroke-dasharray:none;stroke-opacity:1"
         d="m 200.37871,253.6382 c 0,0 -0.0839,19.24877 -0.79124,20.07399"
         id="path2070" />
      <path
         style="display:inline;opacity:1;fill:none;stroke:#000000;stroke-width:1.52174;stroke-linecap:butt;stroke-linejoin:miter;stroke-miterlimit:4;stroke-dasharray:none;stroke-opacity:1"
         d="m 224.61035,253.40244 c 0,0 0.084,19.24876 0.79126,20.07397"
         id="path2070-1" />
      <path
         style="fill:none;stroke:#000000;stroke-width:1.52174;stroke-linecap:butt;stroke-linejoin:miter;stroke-miterlimit:4;stroke-dasharray:none;stroke-opacity:1"
         d="m 226.9021,272.64282 c 0,0 -11.13087,9.07104 -14.79577,9.43547 -3.55421,0.35341 -13.68591,-9.69984 -13.68591,-9.69984"
         id="path2094"
         sodipodi:nodetypes="csc" />
      <path
         style="fill:none;stroke:#000000;stroke-width:1.52159;stroke-linecap:butt;stroke-linejoin:miter;stroke-miterlimit:4;stroke-dasharray:none;stroke-opacity:1"
         d="m 155.92165,295.58263 c 0,0 0.8336,23.67425 5.66848,34.0109 4.50144,19.33954 11.33783,56.15409 10.00321,63.85381 -2.16735,12.50402 -22.67395,69.02213 -21.50689,72.69001 1.00033,6.50209 38.84581,11.83712 44.18084,8.16927 3.66784,-9.66975 17.83904,-47.18181 17.83904,-47.18181"
         id="path2118"
         sodipodi:nodetypes="ccsccc" />
      <path
         style="fill:none;stroke:#000000;stroke-width:1.52174;stroke-linecap:round;stroke-linejoin:miter;stroke-miterlimit:4;stroke-dasharray:none;stroke-opacity:1"
         d="m 167.09191,356.43549 c 0,0 -9.50305,-22.17382 -12.50402,-27.00869"
         id="path2120"
         sodipodi:nodetypes="cc" />
      <path
         style="fill:none;stroke:#000000;stroke-width:1.52174;stroke-linecap:round;stroke-linejoin:miter;stroke-miterlimit:4;stroke-dasharray:none;stroke-opacity:1"
         d="m 171.42662,386.77853 c 0,0 -1.16704,8.1693 -12.83744,18.33922"
         id="path2122" />
      <path
         style="fill:none;stroke:#000000;stroke-width:1.52174;stroke-linecap:butt;stroke-linejoin:miter;stroke-miterlimit:4;stroke-dasharray:none;stroke-opacity:1"
         d="m 224.77709,264.40596 c 11.83713,1.33374 1.66719,25.50819 46.68162,30.84322 5.00161,6.66881 3.00098,24.0077 3.16768,27.67555 -1.0003,17.00544 5.00162,80.02567 4.50146,82.85991 -0.50016,2.83424 -13.9196,20.53421 -15.75353,21.20109"
         id="path2124"
         sodipodi:nodetypes="cccsc" />
      <path
         style="fill:none;stroke:#000000;stroke-width:1.52174;stroke-linecap:butt;stroke-linejoin:miter;stroke-miterlimit:4;stroke-dasharray:none;stroke-opacity:1"
         d="m 268.29104,294.5823 c 0,0 0.16673,21.17345 -5.16834,35.6781 -3.3344,5.16833 -10.83679,53.51719 -10.16992,60.85288 0.66688,7.33567 5.66849,23.67425 5.66849,23.67425"
         id="path2126"
         sodipodi:nodetypes="ccsc" />
      <path
         style="fill:none;stroke:#000000;stroke-width:1.52174;stroke-linecap:butt;stroke-linejoin:miter;stroke-miterlimit:4;stroke-dasharray:none;stroke-opacity:1"
         d="m 243.94989,286.74644 c 0,0 3.83458,21.34019 3.50113,25.00806 -1.83393,-0.33346 -3.33441,-1.00034 -6.00192,-0.83362 1.16703,4.168 3.00096,7.6691 4.66815,11.83714 -1.33375,4.66815 -31.38135,51.89736 -31.38135,51.89736"
         id="path2128"
         sodipodi:nodetypes="ccccc" />
      <path
         style="fill:none;stroke:#000000;stroke-width:1.52174;stroke-linecap:butt;stroke-linejoin:miter;stroke-miterlimit:4;stroke-dasharray:none;stroke-opacity:1"
         d="m 241.4491,310.92088 -7.83586,-4.16799"
         id="path2135" />
      <path
         style="display:inline;opacity:1;fill:none;stroke:#000000;stroke-width:1.52174;stroke-linecap:round;stroke-linejoin:miter;stroke-miterlimit:4;stroke-dasharray:none;stroke-opacity:1"
         d="m 257.37087,356.93564 c 0,0 9.50304,-22.17379 12.50401,-27.00867"
         id="path2120-2"
         sodipodi:nodetypes="cc" />
      <path
         style="display:inline;opacity:1;fill:none;stroke:#000000;stroke-width:1.52174;stroke-linecap:round;stroke-linejoin:miter;stroke-miterlimit:4;stroke-dasharray:none;stroke-opacity:1"
         d="m 253.03612,387.27871 c 0,0 1.16707,8.16928 12.83747,18.33921"
         id="path2122-2" />
      <path
         style="fill:none;stroke:#000000;stroke-width:0;stroke-linecap:butt;stroke-linejoin:miter;stroke-miterlimit:4;stroke-dasharray:none;stroke-opacity:1"
         d="m 230.21468,282.07829 c 0,0 -4.50145,14.50466 -7.16899,15.67168 -2.66751,1.16706 -10.83681,-13.83777 -10.83681,-13.83777"
         id="path2156" />
      <path
         style="fill:none;stroke:#000000;stroke-width:1.52174;stroke-linecap:butt;stroke-linejoin:miter;stroke-miterlimit:4;stroke-dasharray:none;stroke-opacity:1"
         d="m 212.6065,281.74484 c 0,0 5.33505,16.00513 7.33569,15.83841 2.00065,-0.16672 10.27249,-15.50496 10.27249,-15.50496"
         id="path2160"
         sodipodi:nodetypes="csc" />
      <path
         style="display:inline;opacity:1;fill:none;stroke:#000000;stroke-width:1.52174;stroke-linecap:butt;stroke-linejoin:miter;stroke-miterlimit:4;stroke-dasharray:none;stroke-opacity:1"
         d="m 211.43947,282.07829 c 0,0 -5.33505,16.00513 -7.3357,15.83841 -2.00064,-0.16673 -9.85568,-14.67138 -9.85568,-14.67138"
         id="path2160-2"
         sodipodi:nodetypes="csc" />
      <path
         style="fill:none;stroke:#000000;stroke-width:1.52174;stroke-linecap:butt;stroke-linejoin:miter;stroke-miterlimit:4;stroke-dasharray:none;stroke-opacity:1"
         d="m 212.6065,281.74484 -0.0487,86.00495"
         id="path2177"
         sodipodi:nodetypes="cc" />
      <circle
         style="fill:none;fill-opacity:1;stroke:#000000;stroke-width:1.52174;stroke-linecap:round;stroke-linejoin:bevel;stroke-miterlimit:4;stroke-dasharray:none;stroke-opacity:1"
         id="path2179"
         cx="207.36813"
         cy="306.13162"
         r="2.711446" />
      <circle
         style="display:inline;opacity:1;fill:none;fill-opacity:1;stroke:#000000;stroke-width:1.52174;stroke-linecap:round;stroke-linejoin:bevel;stroke-miterlimit:4;stroke-dasharray:none;stroke-opacity:1"
         id="path2179-2"
         cx="207.13239"
         cy="324.6402"
         r="2.711446" />
      <path
         style="fill:none;stroke:#000000;stroke-width:1.52174;stroke-linecap:butt;stroke-linejoin:miter;stroke-miterlimit:4;stroke-dasharray:none;stroke-opacity:1"
         d="m 158.09056,471.05828 c 0,0 5.1871,66.01784 6.366,70.26183 1.17888,4.244 7.07335,100.20563 10.13844,105.15695"
         id="path2230" />
      <path
         style="fill:none;stroke:#000000;stroke-width:1.52174;stroke-linecap:butt;stroke-linejoin:miter;stroke-miterlimit:4;stroke-dasharray:none;stroke-opacity:1"
         d="m 212.31947,478.13162 c 0,0 -4.00823,64.60316 -4.47978,79.69294 -0.47155,15.0898 3.06511,69.31871 1.17888,88.41672"
         id="path2232"
         sodipodi:nodetypes="csc" />
      <path
         style="fill:none;stroke:#000000;stroke-width:1.52174;stroke-linecap:butt;stroke-linejoin:miter;stroke-miterlimit:4;stroke-dasharray:none;stroke-opacity:1"
         d="m 177.66012,475.06654 c 0,0 1.41467,152.78407 11.55312,171.41052"
         id="path2234" />
      <path
         style="display:inline;opacity:1;fill:none;stroke:#000000;stroke-width:1.52174;stroke-linecap:butt;stroke-linejoin:miter;stroke-miterlimit:4;stroke-dasharray:none;stroke-opacity:1"
         d="m 212.31947,478.13162 c 0,0 4.00823,64.60316 4.47979,79.69294 0.47156,15.0898 -2.122,55.87938 -1.17889,88.41672"
         id="path2232-1"
         sodipodi:nodetypes="csc" />
      <path
         style="display:inline;opacity:1;fill:none;stroke:#000000;stroke-width:1.52174;stroke-linecap:butt;stroke-linejoin:miter;stroke-miterlimit:4;stroke-dasharray:none;stroke-opacity:1"
         d="m 246.97883,475.06654 c 0,0 -1.41468,152.78407 -11.55313,171.41052"
         id="path2234-4" />
      <path
         style="fill:none;stroke:#000000;stroke-width:1.52174;stroke-linecap:butt;stroke-linejoin:miter;stroke-miterlimit:4;stroke-dasharray:none;stroke-opacity:1"
         d="m 195.43432,483.47623 29.17603,-8.33599"
         id="path2257" />
      <path
         style="fill:none;stroke:#000000;stroke-width:1.52174;stroke-linecap:butt;stroke-linejoin:miter;stroke-miterlimit:4;stroke-dasharray:none;stroke-opacity:1"
         d="m 212.31947,478.13162 -0.21314,-51.00681"
         id="path2259" />
      <path
         style="fill:none;stroke:#000000;stroke-width:1.52174;stroke-linecap:butt;stroke-linejoin:bevel;stroke-miterlimit:4;stroke-dasharray:none;stroke-opacity:1"
         d="m 207.93833,438.29509 1.00034,31.00992 3.00095,1.00033"
         id="path2261" />
      <path
         style="fill:none;stroke:#000000;stroke-width:1.52174;stroke-linecap:butt;stroke-linejoin:miter;stroke-miterlimit:4;stroke-dasharray:none;stroke-opacity:1"
         d="m 175.87815,223.46324 c 0,0 -16.96236,39.28527 6.73331,45.41551 0,0 -0.47155,-2.35779 -0.70734,-4.71556 3.183,2.82934 6.55831,6.02067 12.37834,4.71556"
         id="path2263"
         sodipodi:nodetypes="cccc" />
      <path
         style="display:inline;opacity:1;fill:none;stroke:#000000;stroke-width:1.52174;stroke-linecap:butt;stroke-linejoin:miter;stroke-miterlimit:4;stroke-dasharray:none;stroke-opacity:1"
         d="m 248.85041,224.03403 c 0,0 16.74023,38.78546 -6.95545,44.91568 0,0 0.47154,-2.35777 0.70732,-4.71557 -3.183,2.82934 -6.55831,6.02069 -12.37833,4.71557"
         id="path2263-9"
         sodipodi:nodetypes="cccc" />
      <path
         style="display:inline;opacity:1;fill:none;stroke:#000000;stroke-width:1.48366;stroke-linecap:butt;stroke-linejoin:miter;stroke-miterlimit:4;stroke-dasharray:none;stroke-opacity:1"
         d="m 205.5749,206.4036 c 0,0 -4.83588,-4.00918 -6.83999,-3.77342"
         id="path2062-9"
         sodipodi:nodetypes="cc" />
      <path
         style="display:inline;opacity:1;fill:none;stroke:#bf8070;stroke-width:1.08493;stroke-linecap:round;stroke-linejoin:round;stroke-miterlimit:4;stroke-dasharray:none;stroke-opacity:1"
         d="m 227.05244,228.43836 c 1.08792,-3.78574 6.72532,-7.3572 5.43961,-1.71428 4.35167,-5.14293 6.62641,-2.78574 5.4396,-0.42858"
         id="path2297-2"
         sodipodi:nodetypes="ccc" />
      <path
         style="display:inline;opacity:1;fill:none;stroke:#bf8070;stroke-width:1.52174;stroke-linecap:butt;stroke-linejoin:miter;stroke-miterlimit:4;stroke-dasharray:none;stroke-opacity:1"
         d="m 230.07959,232.08446 c 0,0 2.13983,2.50114 1.69555,5.80651"
         id="path1694-9"
         sodipodi:nodetypes="cc" />
      <path
         style="display:inline;opacity:1;fill:none;stroke:#bf8070;stroke-width:1.52174;stroke-linecap:butt;stroke-linejoin:miter;stroke-miterlimit:4;stroke-dasharray:none;stroke-opacity:1"
         d="m 219.481,218.38181 c 0,0 1.75174,3.2533 4.50453,2.8779"
         id="path1711-9" />
      <path
         style="display:inline;opacity:1;fill:none;stroke:#bf8070;stroke-width:1.08493;stroke-linecap:round;stroke-linejoin:round;stroke-miterlimit:4;stroke-dasharray:none;stroke-opacity:1"
         d="m 187.95009,228.94473 c 1.08792,-3.78577 6.72532,-7.35723 5.43958,-1.71432 4.35169,-5.14291 6.62642,-2.78574 5.4396,-0.42858"
         id="path2297-2-8"
         sodipodi:nodetypes="ccc" />
      <path
         style="display:inline;opacity:1;fill:none;stroke:#bf8070;stroke-width:1.52174;stroke-linecap:butt;stroke-linejoin:miter;stroke-miterlimit:4;stroke-dasharray:none;stroke-opacity:1"
         d="m 195.30163,231.74117 c 0,0 -2.13985,2.50113 -1.69555,5.8065"
         id="path1694-9-0"
         sodipodi:nodetypes="cc" />
      <path
         style="display:inline;opacity:1;fill:none;stroke:#bf8070;stroke-width:1.52174;stroke-linecap:butt;stroke-linejoin:miter;stroke-miterlimit:4;stroke-dasharray:none;stroke-opacity:1"
         d="m 205.90024,218.1956 c 0,0 -1.75177,3.25327 -4.50457,2.8779"
         id="path1711-9-5" />
      <path
         style="fill:none;stroke:#000000;stroke-width:1.52174;stroke-linecap:butt;stroke-linejoin:miter;stroke-miterlimit:4;stroke-dasharray:none;stroke-opacity:1"
         d="m 266.54838,471.05828 c 0,0 -5.1871,66.01784 -6.366,70.26183 -1.17889,4.244 -7.07334,100.20563 -10.13844,105.15695"
         id="path3625" />
      <path
         style="fill:none;stroke:#000000;stroke-width:1.52174;stroke-linecap:butt;stroke-linejoin:miter;stroke-miterlimit:4;stroke-dasharray:none;stroke-opacity:1"
         d="m 268.50475,295.58263 c 0,0 -0.8336,23.67425 -5.66848,34.0109 -4.50143,19.33954 -11.33781,56.15409 -10.0032,63.85381 2.16735,12.50402 22.67394,69.02213 21.50691,72.69001 -1.00034,6.50209 -38.84581,11.83712 -44.18086,8.16927 -3.66784,-9.66975 -18.05895,-48.06243 -18.05895,-48.06243"
         id="path3707"
         sodipodi:nodetypes="ccsccc" />
      <path
         style="fill:none;stroke:#000000;stroke-width:1.52174;stroke-linecap:butt;stroke-linejoin:miter;stroke-miterlimit:4;stroke-dasharray:none;stroke-opacity:1"
         d="m 199.8529,264.40596 c -11.83712,1.33374 -1.66718,25.50819 -46.68163,30.84322 -5.0016,6.66881 -3.00096,24.0077 -3.16768,27.67555 1.00032,17.00544 -5.0016,80.02567 -4.50144,82.85991 0.50016,2.83424 13.91959,20.53421 15.75352,21.20109"
         id="path3928"
         sodipodi:nodetypes="cccsc" />
      <path
         style="fill:none;stroke:#000000;stroke-width:1.52172;stroke-linecap:butt;stroke-linejoin:miter;stroke-miterlimit:4;stroke-dasharray:none;stroke-opacity:1"
         d="m 180.9298,286.74644 c 0,0 -3.83453,21.33993 -3.50107,25.00772 1.83391,-0.33344 3.33436,-1.00032 6.00184,-0.83359 -1.16701,4.16795 -3.00092,7.66901 -4.6681,11.83699 1.33374,4.66809 38.29466,59.53671 38.29466,59.53671"
         id="path5408"
         sodipodi:nodetypes="ccccc" />
      <path
         style="fill:none;stroke:#000000;stroke-width:1.52174;stroke-linecap:butt;stroke-linejoin:miter;stroke-miterlimit:4;stroke-dasharray:none;stroke-opacity:1"
         d="m 183.43057,310.92057 7.83586,-4.168"
         id="path5627" />
      <path
         style="fill:none;stroke:#000000;stroke-width:1.52174;stroke-linecap:butt;stroke-linejoin:miter;stroke-miterlimit:4;stroke-dasharray:none;stroke-opacity:1"
         d="m 212.10633,427.12481 c 0,0 5.82478,-44.00562 4.87486,-46.07475 -1.85126,-4.41487 -25.61468,-68.63331 -25.76656,-74.55615 -0.16672,-6.5021 0.76887,-19.41402 8.93815,-38.2534"
         id="path5998"
         sodipodi:nodetypes="cccc" />
      <path
         style="fill:none;stroke:#000000;stroke-width:1.52174;stroke-linecap:butt;stroke-linejoin:miter;stroke-miterlimit:4;stroke-dasharray:none;stroke-opacity:1"
         d="m 212.68042,369.95918 c 0,0 20.7661,-57.37111 20.93282,-63.87319 0.16672,-6.5021 -0.66689,-19.0061 -8.83615,-37.84548"
         id="path9826"
         sodipodi:nodetypes="csc" />
      <circle
         style="display:inline;opacity:1;fill:none;fill-opacity:1;stroke:#000000;stroke-width:1.52174;stroke-linecap:round;stroke-linejoin:bevel;stroke-miterlimit:4;stroke-dasharray:none;stroke-opacity:1"
         id="circle11216"
         cx="211.6194"
         cy="385.01105"
         r="2.711446" />
      <circle
         style="display:inline;opacity:1;fill:none;fill-opacity:1;stroke:#000000;stroke-width:1.52174;stroke-linecap:round;stroke-linejoin:bevel;stroke-miterlimit:4;stroke-dasharray:none;stroke-opacity:1"
         id="circle11382"
         cx="208.44658"
         cy="412.41251"
         r="2.711446" />
    </g>
  </g>
</svg>
