<?xml version="1.0" encoding="UTF-8" standalone="no"?>
<svg
   xmlns:dc="http://purl.org/dc/elements/1.1/"
   xmlns:cc="http://creativecommons.org/ns#"
   xmlns:rdf="http://www.w3.org/1999/02/22-rdf-syntax-ns#"
   xmlns:svg="http://www.w3.org/2000/svg"
   xmlns="http://www.w3.org/2000/svg"
   xmlns:sodipodi="http://sodipodi.sourceforge.net/DTD/sodipodi-0.dtd"
   xmlns:inkscape="http://www.inkscape.org/namespaces/inkscape"
   width="440"
   height="600"
   viewBox="0 0 116.41666 158.75"
   version="1.1"
   id="svg898"
   sodipodi:docname="maire.svg"
   inkscape:version="1.0.1 (3bc2e813f5, 2020-09-07)">
  <defs
     id="defs892" />
  <sodipodi:namedview
     id="base"
     pagecolor="#ffffff"
     bordercolor="#666666"
     borderopacity="1.0"
     inkscape:pageopacity="0.0"
     inkscape:pageshadow="2"
     inkscape:zoom="0.42880795"
     inkscape:cx="1343.6823"
     inkscape:cy="245.41497"
     inkscape:document-units="mm"
     inkscape:current-layer="layer2"
     inkscape:document-rotation="0"
     showgrid="false"
     units="px"
     inkscape:window-width="1920"
     inkscape:window-height="1137"
     inkscape:window-x="-8"
     inkscape:window-y="-8"
     inkscape:window-maximized="1" />
  <metadata
     id="metadata895">
    <rdf:RDF>
      <cc:Work
         rdf:about="">
        <dc:format>image/svg+xml</dc:format>
        <dc:type
           rdf:resource="http://purl.org/dc/dcmitype/StillImage" />
        <dc:title></dc:title>
      </cc:Work>
    </rdf:RDF>
  </metadata>
  <g
     inkscape:groupmode="layer"
     id="layer2"
     inkscape:label="Calque 2"
     style="opacity:1">
    <g
       id="g1861"
       inkscape:export-xdpi="300"
       inkscape:export-ydpi="300"
       style="display:inline;opacity:1"
       transform="matrix(0.05587237,0,0,0.05587237,24.953117,27.391683)">
      <path
         style="display:inline;fill:#434e7c;fill-opacity:1;stroke:none;stroke-width:1px;stroke-linecap:butt;stroke-linejoin:miter;stroke-opacity:1"
         d="m 504.37386,769.32975 c 0,0 -2.79321,-19.9515 -62.24867,78.20987 -13.56702,13.56702 -142.85272,77.41181 -164.40034,67.83509 -21.54762,-9.57672 -11.9709,137.26629 -13.56702,151.63139 -1.59612,14.3651 -24.73986,362.3192 -22.34568,374.2901 11.17284,36.7108 60.65255,95.7672 74.21957,105.3439 2.39418,19.9515 -58.25837,175.5733 -51.87389,185.948 14.36508,17.5572 142.85271,67.037 211.48587,39.1049 25.53792,-54.2681 72.62345,-213.0821 85.39241,-225.851 15.9612,30.3263 69.43121,211.4859 92.57495,229.0432 29.52822,2.3942 133.27602,-2.3941 158.01587,-17.5573 13.56701,-26.336 2.39417,-213.082 12.76895,-226.649 10.37478,-13.567 58.25838,-73.4215 58.25838,-86.9885 0,-13.567 -26.33598,-363.9153 -21.54762,-385.463 4.78836,-21.5476 -0.79806,-140.45851 -15.9612,-143.65075 -184.35184,-19.9515 -172.38093,-125.2954 -223.45677,-147.64108 -29.92725,0.39903 -117.31481,2.39418 -117.31481,2.39418"
         id="path2360"
         sodipodi:nodetypes="ccsscccccccsssccc" />
      <path
         style="display:inline;fill:#d1cddc;fill-opacity:1;stroke:none;stroke-width:1px;stroke-linecap:butt;stroke-linejoin:miter;stroke-opacity:1"
         d="m 631.86077,806.36399 -136.33674,-1.26555 -38.2357,117.45881 c 0,0 104.70813,315.51535 129.2857,333.58905 13.85561,-48.5153 78.89352,-277.32242 77.41181,-286.50351 -1.48171,-9.18109 -7.4657,-128.33146 -32.12507,-163.2788 z"
         id="path2364"
         sodipodi:nodetypes="ccccsc" />
      <path
         style="display:inline;fill:#e5b293;fill-opacity:1;stroke:none;stroke-width:1px;stroke-linecap:butt;stroke-linejoin:miter;stroke-opacity:1"
         d="m 632.59551,364.54657 c 0,0 -136.06267,126.56193 -212.74621,142.77133 0.0436,12.89685 -2.10837,29.33934 -1.69294,44.01646 -29.19742,-137.95988 -64.78174,45.46882 7.15595,75.07013 21.74762,62.55325 70.67017,83.96566 79.58576,88.98776 -2.48412,32.61675 -0.48952,76.6798 -3.78762,96.09067 8.06301,16.27809 39.97416,36.85476 56.73342,40.047 16.75926,3.19224 55.45884,-25.68901 66.83436,-41.17563 2.99589,-15.48662 -14.1624,-80.92753 -3.78762,-96.09067 52.6983,-11.77726 60.94847,-52.86215 74.90802,-82.23242 85.62738,-58.15026 31.05809,-198.01613 12.4149,-82.95409 -2.75206,-18.08655 -0.56431,-45.14509 -0.56431,-45.14509 0,0 -66.42859,-80.06892 -75.05371,-139.38545 z"
         id="path2316"
         sodipodi:nodetypes="ccccccscccccc" />
      <path
         style="display:inline;fill:#bf8070;fill-opacity:1;stroke:none;stroke-width:1px;stroke-linecap:butt;stroke-linejoin:miter;stroke-opacity:1"
         d="m 502.80339,629.20963 c 0,0 102.70507,5.07883 114.55566,0.56432 33.88571,-12.90883 -12.4149,18.05803 -58.1243,17.49372 -33.29674,-0.41107 -56.43136,-18.05804 -56.43136,-18.05804 z"
         id="path2318"
         sodipodi:nodetypes="cssc" />
      <path
         style="display:inline;fill:#e2d9d4;fill-opacity:1;stroke:none;stroke-width:1px;stroke-linecap:butt;stroke-linejoin:miter;stroke-opacity:1"
         d="m 606.91924,527.35103 c 0,0 30.19079,-54.73842 65.17823,-1.12863 -16.3651,37.2447 -50.50608,30.47294 -65.17823,1.12863 z"
         id="path2320"
         sodipodi:nodetypes="ccc" />
      <path
         style="display:inline;fill:#e2d9d4;fill-opacity:1;stroke:none;stroke-width:1px;stroke-linecap:butt;stroke-linejoin:miter;stroke-opacity:1"
         d="m 517.21099,527.42553 c 0,0 -30.19079,-54.73842 -65.17823,-1.12863 16.3651,37.2447 50.50608,30.47294 65.17823,1.12863 z"
         id="path2320-6"
         sodipodi:nodetypes="ccc" />
      <path
         style="display:inline;fill:#291818;fill-opacity:1;stroke:none;stroke-width:1px;stroke-linecap:butt;stroke-linejoin:miter;stroke-opacity:1"
         d="m 708.21353,549.07711 -0.56431,-45.14509 c 0,0 -56.99568,-64.89606 -75.05371,-139.38545 C 521.99006,471.76615 419.8493,507.3179 419.8493,507.3179 l -1.69294,44.01646 -9.54969,-42.9702 c 0,0 -7.94404,-3.30352 -14.7158,-5.56077 -4.51451,-213.31053 174.3729,-207.10308 187.35211,-207.10308 12.97921,0 48.53096,19.75097 58.68861,27.08705 47.96666,-12.97921 117.94154,125.84193 118.50585,146.15722 0.56431,20.31529 -24.82979,27.08704 -29.3443,35.55175 -16.00687,3.72601 -20.87961,44.58078 -20.87961,44.58078 z"
         id="path2341"
         sodipodi:nodetypes="cccccccscscc" />
      <path
         style="display:inline;fill:#291818;fill-opacity:1;stroke:none;stroke-width:1px;stroke-linecap:butt;stroke-linejoin:miter;stroke-opacity:1"
         d="m 425.31231,626.40449 c 0,0 -31.98574,-38.38975 -38.75751,-53.0619 -6.77177,-14.67215 -77.87527,189.04505 33.2945,215.00347 -1.69295,-6.20745 -3.38588,-14.10783 -3.38588,-22.57254 14.67215,11.85058 44.01645,26.52273 59.25292,22.57254 15.23647,-3.95019 18.3774,-28.43929 28.65752,-19.01631 7.33024,6.71906 -2.45993,-30.39369 0.52421,-53.9375 1.09389,-8.63037 -69.60824,-28.02547 -79.58576,-88.98776"
         id="path2343"
         sodipodi:nodetypes="cscccssc" />
      <path
         style="display:inline;fill:#291818;fill-opacity:1;stroke:none;stroke-width:1px;stroke-linecap:butt;stroke-linejoin:miter;stroke-opacity:1"
         d="m 698.16592,626.74418 c 0,0 31.98574,-38.38975 38.75751,-53.0619 6.77177,-14.67215 77.87527,189.04505 -33.2945,215.00347 1.69295,-6.20745 3.38588,-14.10783 3.38588,-22.57254 -14.67215,11.85058 -37.80901,24.82979 -53.04548,20.8796 -15.23647,-3.95019 -20.63465,-29.0036 -30.91477,-19.58062 -7.33024,6.71906 -1.49027,-28.13644 -4.47441,-51.68025 15.44794,-7.87847 69.60825,-28.02547 79.58577,-88.98776"
         id="path2343-9"
         sodipodi:nodetypes="cscccscc" />
      <path
         style="display:inline;fill:#41465d;fill-opacity:1;stroke:none;stroke-width:1px;stroke-linecap:butt;stroke-linejoin:miter;stroke-opacity:1"
         d="m 302.47207,1756.1438 c 0,0 39.50195,417.5921 39.50195,432.2642 0,14.6722 30.47293,398.4054 39.50195,407.4344 9.02902,9.029 158.00781,11.2863 164.77957,-1.1286 6.77176,-12.4149 -4.51451,-404.0485 -6.77177,-417.592 -2.25725,-13.5436 18.05804,-351.0031 18.05804,-351.0031 0,0 29.3443,334.0737 28.21568,351.0031 -1.12863,16.9294 -14.67215,402.9198 -7.90039,417.592 6.77176,14.6722 155.75056,14.6721 164.77957,1.1286 9.02901,-13.5435 47.40233,-476.2806 48.53096,-495.4673 1.12862,-19.1866 21.44394,-183.9664 22.00824,-200.8957 0.5643,-16.9293 -1.54894,-142.1515 -1.54894,-142.1515 0,0 -140.95052,32.9128 -158.01587,17.5573 -17.06535,-15.3555 -79.48732,-203.462 -92.57495,-229.0432 -47.6195,121.2359 -74.17878,204.1554 -85.39241,225.851 -17.42108,7.0234 -163.01399,2.5088 -173.17163,-15.5492 z"
         id="path2366"
         sodipodi:nodetypes="csssscssssscsccc" />
      <path
         style="display:inline;fill:#d1cddc;fill-opacity:1;stroke:none;stroke-width:1px;stroke-linecap:butt;stroke-linejoin:miter;stroke-opacity:1"
         d="m 437.33683,840.35708 c 0,0 125.2954,565.82442 379.87651,662.38972 3.59127,14.3651 8.77865,51.0758 -1.59612,59.8545 -10.37477,8.7787 -73.42152,43.0952 -86.19047,43.0952 C 480.77473,1458.975 331.19486,943.30682 338.3774,895.42322 c 37.50882,-17.55732 98.95943,-55.06614 98.95943,-55.06614 z"
         id="path2368"
         sodipodi:nodetypes="ccsccc" />
      <path
         style="display:inline;fill:#ca3142;fill-opacity:1;stroke:none;stroke-width:1px;stroke-linecap:butt;stroke-linejoin:miter;stroke-opacity:1"
         d="m 368.70367,885.04843 c 0,0 149.23721,605.72747 403.81832,702.29277 -6.37669,11.6486 -28.72542,18.277 -43.09524,18.3553 C 469.60189,1458.1769 336.38225,942.90779 338.3774,895.42322 c 37.50881,-17.55732 30.32627,-10.37479 30.32627,-10.37479 z"
         id="path2368-5"
         sodipodi:nodetypes="ccccc" />
      <path
         style="display:inline;fill:#002654;fill-opacity:1;stroke:none;stroke-width:1px;stroke-linecap:butt;stroke-linejoin:miter;stroke-opacity:1"
         d="m 437.33683,840.35708 c 0,0 126.09347,568.21862 380.67458,664.78392 -6.37669,11.6486 11.97563,57.382 -2.39419,57.4603 C 527.57668,1417.339 404.21735,909.38928 406.2125,861.90471 c 37.50881,-17.55732 31.12433,-21.54763 31.12433,-21.54763 z"
         id="path2368-5-2"
         sodipodi:nodetypes="ccccc" />
      <path
         style="display:inline;fill:#002654;fill-opacity:1;stroke:none;stroke-width:1px;stroke-linecap:butt;stroke-linejoin:miter;stroke-opacity:1"
         d="m 783.69483,1486.7856 -7.9806,-33.9175 41.49911,49.8787 z"
         id="path2400" />
      <path
         style="display:inline;fill:#d1cddc;fill-opacity:1;stroke:none;stroke-width:1px;stroke-linecap:butt;stroke-linejoin:miter;stroke-opacity:1"
         d="m 818.18843,1531.2432 -2.57121,31.3581 -21.06371,14.6551 0.56431,11.2863 5.64314,-1.1286 18.62235,136.5639 -7.33608,2.2572 3.9502,11.8506 c 0,0 -10.4398,191.8666 0.56431,203.1529 11.00411,11.2863 14.10784,-8.1826 14.10784,-8.1826 l -0.56432,-17.4937 9.02902,-0.2821 2.82157,22.0082 22.57254,-1.1286 -1.69294,-52.4812 19.18666,-2.8216 1.69294,9.0291 18.05804,-6.7718 c 0,0 -5.64314,-171.5514 -14.10784,-193.5596 6.20745,-3.9502 6.20745,-3.9502 6.20745,-3.9502 l -2.82157,-15.2364 -8.4647,4.5145 -41.19489,-101.5765 0.56431,-14.1078 -7.90039,-25.112 z"
         id="path2408"
         sodipodi:nodetypes="ccccccccsccccccccccccccccc" />
      <path
         style="display:inline;fill:#002654;fill-opacity:1;stroke:none;stroke-width:1px;stroke-linecap:butt;stroke-linejoin:miter;stroke-opacity:1"
         d="m 795.11782,1588.5427 33.85882,-1.1286 -2.25726,-9.029 14.67216,-5.0789 -7.33608,-39.2198 -15.86703,-2.8432 -2.57121,31.3581 -21.06371,14.6551 z"
         id="path2410" />
      <path
         style="display:inline;fill:#002654;fill-opacity:1;stroke:none;stroke-width:1px;stroke-linecap:butt;stroke-linejoin:miter;stroke-opacity:1"
         d="m 812.04723,1726.2352 48.53097,-10.4398 2.82157,14.39 -47.40234,7.9004"
         id="path2412" />
      <path
         style="display:inline;fill:#002654;fill-opacity:1;stroke:none;stroke-width:1px;stroke-linecap:butt;stroke-linejoin:miter;stroke-opacity:1"
         d="m 851.54918,1687.8619 39.50195,-17.4937 2.82157,15.2364 -41.75921,15.8008 z"
         id="path2414" />
      <path
         style="fill:none;stroke:#000000;stroke-width:8;stroke-linecap:butt;stroke-linejoin:miter;stroke-miterlimit:4;stroke-dasharray:none;stroke-opacity:1"
         d="m 695.79863,632.0312 c 68.84626,-59.25292 53.6098,-151.23604 20.48322,-121.74113 0,0 -21.96973,134.54233 -29.15227,143.32099 -20.16175,49.40924 -41.42578,51.01912 -66.23897,60.65256 -40.04965,23.74128 -81.97331,18.60574 -115.99254,1.12863 -25.55453,-18.04143 -63.8849,-29.61532 -76.3399,-83.3288 -3.9903,-21.54762 -19.9515,-123.69929 -19.9515,-123.69929 -33.14938,-30.095 -47.98709,63.61606 20.85917,122.86898"
         id="path2003"
         sodipodi:nodetypes="cccccccc" />
      <path
         style="fill:none;stroke:#000000;stroke-width:8;stroke-linecap:butt;stroke-linejoin:miter;stroke-miterlimit:4;stroke-dasharray:none;stroke-opacity:1"
         d="m 732.47902,528.1975 c 0,0 -9.02902,-1.69294 -8.46471,3.9502 0.56432,5.64313 -5.07882,63.20312 -10.72195,67.15331"
         id="path2005" />
      <path
         style="display:inline;opacity:1;fill:none;stroke:#000000;stroke-width:8;stroke-linecap:butt;stroke-linejoin:miter;stroke-miterlimit:4;stroke-dasharray:none;stroke-opacity:1"
         d="m 392.78545,527.39944 c 0,0 9.02902,-1.69294 8.46471,3.9502 -0.56432,5.64313 5.07882,63.20312 10.72195,67.15331"
         id="path2005-1" />
      <path
         style="fill:none;stroke:#000000;stroke-width:8;stroke-linecap:butt;stroke-linejoin:miter;stroke-miterlimit:4;stroke-dasharray:none;stroke-opacity:1"
         d="m 553.0273,510.13947 c 0,0 -10.15764,85.77566 -5.64314,88.03292 4.51451,2.25725 32.73019,-0.56432 32.73019,-0.56432"
         id="path2026" />
      <path
         style="fill:none;stroke:#000000;stroke-width:8;stroke-linecap:butt;stroke-linejoin:miter;stroke-miterlimit:4;stroke-dasharray:none;stroke-opacity:1"
         d="m 488.69555,623.00218 c 0,0 32.66386,12.97923 71.10351,12.97922 42.88784,-10e-6 73.92508,-11.28628 73.92508,-11.28628"
         id="path2028"
         sodipodi:nodetypes="csc" />
      <path
         style="fill:none;stroke:#000000;stroke-width:8;stroke-linecap:butt;stroke-linejoin:miter;stroke-miterlimit:4;stroke-dasharray:none;stroke-opacity:1"
         d="m 603.81552,525.94025 c 0,0 14.13273,-24.27826 31.60156,-25.39411 28.20893,-1.80189 40.06627,24.26548 40.06627,24.26548"
         id="path2030"
         sodipodi:nodetypes="csc" />
      <ellipse
         style="fill:#000000;fill-opacity:1;stroke:none;stroke-width:8.86846;stroke-linecap:round;stroke-linejoin:round;stroke-miterlimit:4;stroke-dasharray:none;stroke-opacity:1"
         id="path2032"
         cx="639.08514"
         cy="525.37592"
         rx="19.468817"
         ry="24.829798" />
      <ellipse
         style="fill:#e2d9d4;fill-opacity:1;stroke:none;stroke-width:9.79796;stroke-linecap:round;stroke-linejoin:round;stroke-miterlimit:4;stroke-dasharray:none;stroke-opacity:1"
         id="path2038"
         cx="639.36725"
         cy="525.65808"
         rx="3.9501951"
         ry="7.6182332" />
      <path
         style="display:inline;opacity:1;fill:none;stroke:#000000;stroke-width:8;stroke-linecap:butt;stroke-linejoin:miter;stroke-miterlimit:4;stroke-dasharray:none;stroke-opacity:1"
         d="m 520.10699,526.29162 c 0,0 -14.13273,-24.27826 -31.60156,-25.39411 -28.20893,-1.80189 -40.06627,24.26548 -40.06627,24.26548"
         id="path2030-3"
         sodipodi:nodetypes="csc" />
      <ellipse
         style="display:inline;opacity:1;fill:#000000;fill-opacity:1;stroke:none;stroke-width:8.86846;stroke-linecap:round;stroke-linejoin:round;stroke-miterlimit:4;stroke-dasharray:none;stroke-opacity:1"
         id="path2032-1"
         cx="-484.83737"
         cy="525.72729"
         rx="19.468817"
         ry="24.829798"
         transform="scale(-1,1)" />
      <ellipse
         style="display:inline;opacity:1;fill:#e2d9d4;fill-opacity:1;stroke:none;stroke-width:9.79796;stroke-linecap:round;stroke-linejoin:round;stroke-miterlimit:4;stroke-dasharray:none;stroke-opacity:1"
         id="path2038-6"
         cx="-484.55527"
         cy="526.00946"
         rx="3.9501951"
         ry="7.6182332"
         transform="scale(-1,1)" />
      <path
         style="fill:none;stroke:#000000;stroke-width:7.8;stroke-linecap:butt;stroke-linejoin:miter;stroke-miterlimit:4;stroke-dasharray:none;stroke-opacity:1"
         d="m 598.17239,486.43007 c 0,0 40.06626,-25.95842 49.65959,-24.8298 9.59333,1.12863 37.2447,16.3651 37.2447,16.3651"
         id="path2062" />
      <path
         style="fill:none;stroke:#000000;stroke-width:8;stroke-linecap:butt;stroke-linejoin:miter;stroke-miterlimit:4;stroke-dasharray:none;stroke-opacity:1"
         d="m 709.71733,550.39294 -2.06811,-46.46092 c 0,0 -44.01646,-28.77999 -75.05371,-139.38545 C 510.13947,485.87399 419.8493,507.3179 419.8493,507.3179 l -4.08548,45.87732"
         id="path2064"
         sodipodi:nodetypes="ccccc" />
      <path
         style="fill:none;stroke:#000000;stroke-width:8;stroke-linecap:butt;stroke-linejoin:miter;stroke-miterlimit:4;stroke-dasharray:none;stroke-opacity:1"
         d="m 729.09314,504.49633 c 0,0 23.70117,-22.57254 29.3443,-35.55175 -3.38588,-18.05804 -71.66782,-169.29407 -118.50585,-146.15722 -25.95842,-13.54352 -34.42313,-19.75097 -58.68861,-27.08705 -130.35644,8.46471 -187.3521,81.82547 -187.35211,207.10308"
         id="path2068"
         sodipodi:nodetypes="ccccc" />
      <path
         style="fill:none;stroke:#000000;stroke-width:8;stroke-linecap:butt;stroke-linejoin:miter;stroke-miterlimit:4;stroke-dasharray:none;stroke-opacity:1"
         d="m 504.89807,715.39225 c 0,0 -0.40174,92.14047 -3.78762,96.09067"
         id="path2070" />
      <path
         style="display:inline;opacity:1;fill:none;stroke:#000000;stroke-width:8;stroke-linecap:butt;stroke-linejoin:miter;stroke-miterlimit:4;stroke-dasharray:none;stroke-opacity:1"
         d="m 620.89061,714.26362 c 0,0 0.40174,92.14047 3.78762,96.09067"
         id="path2070-1" />
      <path
         style="fill:none;stroke:#000000;stroke-width:8;stroke-linecap:butt;stroke-linejoin:bevel;stroke-miterlimit:4;stroke-dasharray:none;stroke-opacity:1"
         d="m 773.32005,1449.2768 c 0,0 36.71076,39.903 44.69136,55.8642 -276.9268,-129.2857 -380.67458,-664.78392 -380.67458,-664.78392 0,0 -63.84479,45.48942 -98.95943,55.06614 99.10893,481.05768 311.24336,681.54318 391.04935,710.27328 49.64833,-13.9442 69.55153,-32.2529 86.19047,-43.0952 5.35267,-26.0787 3.19224,-55.8642 1.59612,-59.8545"
         id="path2088"
         sodipodi:nodetypes="ccccccc" />
      <path
         style="fill:none;stroke:#000000;stroke-width:8;stroke-linecap:butt;stroke-linejoin:miter;stroke-miterlimit:4;stroke-dasharray:none;stroke-opacity:1"
         d="m 586.57403,1256.1463 c 0,0 76.61375,-258.57142 77.41181,-289.69575 0.79806,-31.12434 -3.19224,-90.97883 -42.29717,-181.1596"
         id="path2090"
         sodipodi:nodetypes="csc" />
      <path
         style="fill:none;stroke:#000000;stroke-width:8;stroke-linecap:butt;stroke-linejoin:miter;stroke-miterlimit:4;stroke-dasharray:none;stroke-opacity:1"
         d="m 503.5758,782.09871 c 0,0 -47.88359,125.2954 -46.28747,140.45854"
         id="path2092"
         sodipodi:nodetypes="cc" />
      <path
         style="fill:none;stroke:#000000;stroke-width:8;stroke-linecap:butt;stroke-linejoin:miter;stroke-miterlimit:4;stroke-dasharray:none;stroke-opacity:1"
         d="m 631.86077,806.36399 c 0,0 -53.28146,43.42147 -70.82466,45.16593 -17.01345,1.69178 -65.51208,-46.43148 -65.51208,-46.43148"
         id="path2094"
         sodipodi:nodetypes="csc" />
      <path
         style="fill:none;stroke:#000000;stroke-width:8;stroke-linecap:butt;stroke-linejoin:miter;stroke-miterlimit:4;stroke-dasharray:none;stroke-opacity:1"
         d="m 504.37386,769.32975 c -32.72046,0.79806 -42.29717,67.03703 -62.24867,78.20987"
         id="path2108"
         sodipodi:nodetypes="cc" />
      <path
         style="fill:none;stroke:#000000;stroke-width:8;stroke-linecap:butt;stroke-linejoin:miter;stroke-miterlimit:4;stroke-dasharray:none;stroke-opacity:1"
         d="m 337.57934,904.99993 c 0,0 -42.29717,15.16314 -59.85449,10.37478 -13.56702,-5.58642 -15.9612,100.55559 -13.56702,151.63139 -3.19224,137.2663 -24.73986,363.1173 -21.54762,375.0882 14.36508,55.0661 61.45061,95.7671 73.42151,104.5458"
         id="path2112"
         sodipodi:nodetypes="ccccc" />
      <path
         style="fill:none;stroke:#000000;stroke-width:8;stroke-linecap:butt;stroke-linejoin:miter;stroke-miterlimit:4;stroke-dasharray:none;stroke-opacity:1"
         d="m 292.08993,916.17277 c 0,0 3.99029,113.32453 27.13403,162.80423 21.54762,92.5749 54.27217,268.7997 47.8836,305.6569 -10.37478,59.8545 -108.53615,330.3968 -102.94973,347.9542 4.78836,31.1243 185.94796,56.6622 211.48587,39.1049 17.55732,-46.2875 108.53615,-292.888 108.53615,-292.888"
         id="path2118"
         sodipodi:nodetypes="ccsccc" />
      <path
         style="fill:none;stroke:#000000;stroke-width:8;stroke-linecap:round;stroke-linejoin:miter;stroke-miterlimit:4;stroke-dasharray:none;stroke-opacity:1"
         d="m 345.55994,1207.4647 c 0,0 -45.48942,-106.1421 -59.85449,-129.2858"
         id="path2120"
         sodipodi:nodetypes="cc" />
      <path
         style="fill:none;stroke:#000000;stroke-width:8;stroke-linecap:round;stroke-linejoin:miter;stroke-miterlimit:4;stroke-dasharray:none;stroke-opacity:1"
         d="m 366.3095,1352.7115 c 0,0 -5.58642,39.105 -61.45062,87.7866"
         id="path2122" />
      <path
         style="fill:none;stroke:#000000;stroke-width:8;stroke-linecap:butt;stroke-linejoin:miter;stroke-miterlimit:4;stroke-dasharray:none;stroke-opacity:1"
         d="m 621.68867,766.93557 c 56.66226,6.38448 7.9806,122.10316 223.45677,147.64108 23.9418,31.9224 14.36508,114.92065 15.16314,132.47795 -4.78836,81.4021 23.9418,383.0688 21.54762,396.6358 -2.39418,13.567 -48.68166,83.7963 -57.46032,86.9885"
         id="path2124"
         sodipodi:nodetypes="cccsc" />
      <path
         style="fill:none;stroke:#000000;stroke-width:8;stroke-linecap:butt;stroke-linejoin:miter;stroke-miterlimit:4;stroke-dasharray:none;stroke-opacity:1"
         d="m 829.9823,911.38441 c 0,0 0.79806,101.35359 -24.73985,170.78479 -15.9612,24.7399 -51.8739,256.1773 -48.68166,291.2919 3.19224,35.1146 27.13404,113.3245 27.13404,113.3245"
         id="path2126"
         sodipodi:nodetypes="ccsc" />
      <path
         style="fill:none;stroke:#000000;stroke-width:8;stroke-linecap:butt;stroke-linejoin:miter;stroke-miterlimit:4;stroke-dasharray:none;stroke-opacity:1"
         d="m 713.46556,873.8756 c 0,0 18.35537,102.15166 16.75925,119.70898 -8.77865,-1.59612 -15.96119,-4.78835 -28.73015,-3.9903 5.58642,19.95152 14.36508,36.71072 22.34568,56.66232 -6.38448,22.3456 -102.15167,268.9461 -102.15167,268.9461"
         id="path2128"
         sodipodi:nodetypes="ccccc" />
      <path
         style="fill:none;stroke:#000000;stroke-width:8;stroke-linecap:butt;stroke-linejoin:miter;stroke-miterlimit:4;stroke-dasharray:none;stroke-opacity:1"
         d="M 701.49466,989.59428 663.98584,969.64279"
         id="path2135" />
      <path
         style="display:inline;opacity:1;fill:none;stroke:#000000;stroke-width:8;stroke-linecap:round;stroke-linejoin:miter;stroke-miterlimit:4;stroke-dasharray:none;stroke-opacity:1"
         d="m 777.70938,1209.8589 c 0,0 45.48942,-106.1421 59.85449,-129.2858"
         id="path2120-2"
         sodipodi:nodetypes="cc" />
      <path
         style="display:inline;opacity:1;fill:none;stroke:#000000;stroke-width:8;stroke-linecap:round;stroke-linejoin:miter;stroke-miterlimit:4;stroke-dasharray:none;stroke-opacity:1"
         d="m 756.95982,1355.1057 c 0,0 5.58642,39.105 61.45062,87.7866"
         id="path2122-2" />
      <path
         style="fill:none;stroke:#000000;stroke-width:0;stroke-linecap:butt;stroke-linejoin:miter;stroke-miterlimit:4;stroke-dasharray:none;stroke-opacity:1"
         d="m 647.71746,851.52992 c 0,0 -21.54762,69.43121 -34.31658,75.01763 -12.76896,5.58642 -51.87389,-66.23897 -51.87389,-66.23897"
         id="path2156" />
      <path
         style="fill:none;stroke:#000000;stroke-width:8;stroke-linecap:butt;stroke-linejoin:miter;stroke-miterlimit:4;stroke-dasharray:none;stroke-opacity:1"
         d="m 563.43029,849.9338 c 0,0 25.53792,76.61375 35.11464,75.81569 9.57672,-0.79806 49.17253,-74.21957 49.17253,-74.21957"
         id="path2160"
         sodipodi:nodetypes="csc" />
      <path
         style="display:inline;opacity:1;fill:none;stroke:#000000;stroke-width:8;stroke-linecap:butt;stroke-linejoin:miter;stroke-miterlimit:4;stroke-dasharray:none;stroke-opacity:1"
         d="m 557.84387,851.52992 c 0,0 -25.53792,76.61375 -35.11464,75.81569 -9.57672,-0.79806 -47.17738,-70.22927 -47.17738,-70.22927"
         id="path2160-2"
         sodipodi:nodetypes="csc" />
      <path
         style="fill:none;stroke:#000000;stroke-width:8;stroke-linecap:butt;stroke-linejoin:miter;stroke-miterlimit:4;stroke-dasharray:none;stroke-opacity:1"
         d="m 563.43029,849.9338 -0.23375,359.6512"
         id="path2177"
         sodipodi:nodetypes="cc" />
      <circle
         style="fill:none;fill-opacity:1;stroke:#000000;stroke-width:8;stroke-linecap:round;stroke-linejoin:bevel;stroke-miterlimit:4;stroke-dasharray:none;stroke-opacity:1"
         id="path2179"
         cx="538.35516"
         cy="966.66919"
         r="12.979212" />
      <circle
         style="display:inline;opacity:1;fill:none;fill-opacity:1;stroke:#000000;stroke-width:8;stroke-linecap:round;stroke-linejoin:bevel;stroke-miterlimit:4;stroke-dasharray:none;stroke-opacity:1"
         id="path2179-2"
         cx="537.2265"
         cy="1055.2664"
         r="12.979212" />
      <path
         style="fill:none;stroke:#000000;stroke-width:8;stroke-linecap:butt;stroke-linejoin:bevel;stroke-miterlimit:4;stroke-dasharray:none;stroke-opacity:1"
         d="m 817.69037,1553.5553 11.28627,33.8588 -33.85882,1.1286 -0.56431,-11.2863"
         id="path2196"
         sodipodi:nodetypes="cccc" />
      <path
         style="fill:none;stroke:#000000;stroke-width:8;stroke-linecap:butt;stroke-linejoin:miter;stroke-miterlimit:4;stroke-dasharray:none;stroke-opacity:1"
         d="m 818.18843,1531.2432 c 0,0 16.43134,-0.2605 17.55997,7.6399 1.12863,7.9004 8.4647,29.3443 5.64314,32.7302 -2.82157,3.3859 -14.67216,6.7718 -14.67216,6.7718"
         id="path2198"
         sodipodi:nodetypes="cssc" />
      <path
         style="fill:none;stroke:#000000;stroke-width:8;stroke-linecap:butt;stroke-linejoin:bevel;stroke-miterlimit:4;stroke-dasharray:none;stroke-opacity:1"
         d="m 800.76096,1587.4141 18.62235,136.5639 34.98744,-6.7718 -25.39411,-129.7921"
         id="path2200" />
      <path
         style="fill:none;stroke:#000000;stroke-width:8;stroke-linecap:butt;stroke-linejoin:bevel;stroke-miterlimit:4;stroke-dasharray:none;stroke-opacity:1"
         d="m 841.39154,1573.3062 41.19489,101.5765 -31.03725,12.9792"
         id="path2206" />
      <path
         style="fill:none;stroke:#000000;stroke-width:8;stroke-linecap:butt;stroke-linejoin:bevel;stroke-miterlimit:4;stroke-dasharray:none;stroke-opacity:1"
         d="m 819.38331,1723.978 -7.33608,2.2572 3.9502,11.8506 47.40234,-7.9004 -2.82157,-14.39 -6.20745,1.4108"
         id="path2210"
         sodipodi:nodetypes="cccccc" />
      <path
         style="fill:none;stroke:#000000;stroke-width:8;stroke-linecap:butt;stroke-linejoin:bevel;stroke-miterlimit:4;stroke-dasharray:none;stroke-opacity:1"
         d="m 882.58643,1674.8827 8.4647,-4.5145 2.82157,15.2364 -41.75921,15.8008"
         id="path2212" />
      <path
         style="fill:none;stroke:#000000;stroke-width:8;stroke-linecap:butt;stroke-linejoin:miter;stroke-miterlimit:4;stroke-dasharray:none;stroke-opacity:1"
         d="m 887.66525,1689.5548 c 0,0 15.04929,52.9854 14.10784,193.5596 -7.90039,5.6431 -18.05804,6.7718 -18.05804,6.7718 l -3.38588,-85.7757"
         id="path2214"
         sodipodi:nodetypes="cccc" />
      <path
         style="fill:none;stroke:#000000;stroke-width:8;stroke-linecap:butt;stroke-linejoin:miter;stroke-miterlimit:4;stroke-dasharray:none;stroke-opacity:1"
         d="m 852.67781,1735.8285 c 0,0 15.80078,186.2235 11.85058,200.3314 -11.28262,0.6613 -23.82656,2.811 -23.70117,-1.693 0.14221,-5.1081 0,-10.722 -1.69294,-19.1866 0,0 -8.75927,-3.4076 -9.02902,2.2572 -0.56431,11.8506 3.38589,24.2655 -1.12862,24.2655 -4.51451,0 -12.4149,-0.5643 -12.4149,-0.5643 -2.25726,-16.3651 -10.15764,-170.4227 -0.56431,-203.1529"
         id="path2216"
         sodipodi:nodetypes="ccscsscc" />
      <path
         style="fill:none;stroke:#000000;stroke-width:8;stroke-linecap:butt;stroke-linejoin:miter;stroke-miterlimit:4;stroke-dasharray:none;stroke-opacity:1"
         d="m 882.02211,1880.8571 c 0,0 -10.72195,-2.2572 -15.23646,4.5145"
         id="path2218" />
      <path
         style="fill:none;stroke:#000000;stroke-width:8;stroke-linecap:butt;stroke-linejoin:miter;stroke-miterlimit:4;stroke-dasharray:none;stroke-opacity:1"
         d="m 839.13428,1915.2803 -4.36362,-128.4242"
         id="path2220" />
      <path
         style="fill:none;stroke:#000000;stroke-width:8;stroke-linecap:butt;stroke-linejoin:miter;stroke-miterlimit:4;stroke-dasharray:none;stroke-opacity:1"
         d="m 561.03611,1545.842 c 0,0 71.02734,198.717 92.57495,229.0432 19.9515,12.769 158.01587,-17.5573 158.01587,-17.5573"
         id="path2228"
         sodipodi:nodetypes="ccc" />
      <path
         style="fill:none;stroke:#000000;stroke-width:8;stroke-linecap:butt;stroke-linejoin:miter;stroke-miterlimit:4;stroke-dasharray:none;stroke-opacity:1"
         d="m 302.47207,1756.1438 c 0,0 24.8298,316.0156 30.47294,336.3309 5.64313,20.3153 33.85881,479.6666 48.53096,503.3677"
         id="path2230" />
      <path
         style="fill:none;stroke:#000000;stroke-width:8;stroke-linecap:butt;stroke-linejoin:miter;stroke-miterlimit:4;stroke-dasharray:none;stroke-opacity:1"
         d="m 562.05632,1790.0026 c 0,0 -19.18666,309.2439 -21.44392,381.476 -2.25725,72.2322 14.67215,331.8164 5.64314,423.2352"
         id="path2232"
         sodipodi:nodetypes="csc" />
      <path
         style="fill:none;stroke:#000000;stroke-width:8;stroke-linecap:butt;stroke-linejoin:miter;stroke-miterlimit:4;stroke-dasharray:none;stroke-opacity:1"
         d="m 396.14813,1775.3305 c 0,0 6.77176,731.3504 55.30273,820.5119"
         id="path2234" />
      <path
         style="display:inline;opacity:1;fill:none;stroke:#000000;stroke-width:8;stroke-linecap:butt;stroke-linejoin:miter;stroke-miterlimit:4;stroke-dasharray:none;stroke-opacity:1"
         d="m 813.17587,1899.4794 c 0,0 -16.3651,172.68 -22.00824,192.9953 -5.64313,20.3153 -33.85881,479.6666 -48.53096,503.3677"
         id="path2230-0"
         sodipodi:nodetypes="csc" />
      <path
         style="display:inline;opacity:1;fill:none;stroke:#000000;stroke-width:8;stroke-linecap:butt;stroke-linejoin:miter;stroke-miterlimit:4;stroke-dasharray:none;stroke-opacity:1"
         d="m 562.05632,1790.0026 c 0,0 19.18666,309.2439 21.44392,381.476 2.25725,72.2322 -10.15764,267.4847 -5.64314,423.2352"
         id="path2232-1"
         sodipodi:nodetypes="csc" />
      <path
         style="display:inline;opacity:1;fill:none;stroke:#000000;stroke-width:8;stroke-linecap:butt;stroke-linejoin:miter;stroke-miterlimit:4;stroke-dasharray:none;stroke-opacity:1"
         d="m 727.96451,1775.3305 c 0,0 -6.77176,731.3504 -55.30273,820.5119"
         id="path2234-4" />
      <path
         style="fill:none;stroke:#000000;stroke-width:8;stroke-linecap:butt;stroke-linejoin:miter;stroke-miterlimit:4;stroke-dasharray:none;stroke-opacity:1"
         d="m 481.23012,1815.5863 139.66049,-39.903"
         id="path2257" />
      <path
         style="fill:none;stroke:#000000;stroke-width:8;stroke-linecap:butt;stroke-linejoin:miter;stroke-miterlimit:4;stroke-dasharray:none;stroke-opacity:1"
         d="M 562.05632,1790.0026 561.03611,1545.842"
         id="path2259" />
      <path
         style="fill:none;stroke:#000000;stroke-width:8;stroke-linecap:butt;stroke-linejoin:bevel;stroke-miterlimit:4;stroke-dasharray:none;stroke-opacity:1"
         d="m 541.08462,1599.3121 4.78836,148.4391 14.36507,4.7884"
         id="path2261" />
      <path
         style="fill:none;stroke:#000000;stroke-width:8;stroke-linecap:butt;stroke-linejoin:miter;stroke-miterlimit:4;stroke-dasharray:none;stroke-opacity:1"
         d="m 387.61815,570.95005 c 0,0 -81.19588,188.0517 32.23115,217.39601 0,0 -2.25725,-11.28627 -3.38588,-22.57254 15.23647,13.54353 31.39346,28.81989 59.25292,22.57254"
         id="path2263"
         sodipodi:nodetypes="cccc" />
      <path
         style="display:inline;opacity:1;fill:none;stroke:#000000;stroke-width:8;stroke-linecap:butt;stroke-linejoin:miter;stroke-miterlimit:4;stroke-dasharray:none;stroke-opacity:1"
         d="m 736.92343,573.68228 c 0,0 80.13253,185.65916 -33.2945,215.00347 0,0 2.25725,-11.28627 3.38588,-22.57254 -15.23647,13.54353 -31.39346,28.81989 -59.25292,22.57254"
         id="path2263-9"
         sodipodi:nodetypes="cccc" />
      <path
         style="display:inline;opacity:1;fill:none;stroke:#000000;stroke-width:7.8;stroke-linecap:butt;stroke-linejoin:miter;stroke-miterlimit:4;stroke-dasharray:none;stroke-opacity:1"
         d="m 529.77123,489.2886 c 0,0 -23.14848,-19.19131 -32.74181,-18.06269"
         id="path2062-9"
         sodipodi:nodetypes="cc" />
      <path
         style="display:inline;opacity:1;fill:none;stroke:#bf8070;stroke-width:5.70371;stroke-linecap:round;stroke-linejoin:round;stroke-miterlimit:4;stroke-dasharray:none;stroke-opacity:1"
         d="m 619.56164,588.68973 c 5.20767,-18.12174 32.1929,-35.21773 26.03837,-8.20608 20.8307,-24.61822 31.71946,-13.33486 26.03837,-2.05151"
         id="path2297-2"
         sodipodi:nodetypes="ccc" />
      <path
         style="display:inline;opacity:1;fill:none;stroke:#bf8070;stroke-width:5.70371;stroke-linecap:round;stroke-linejoin:round;stroke-miterlimit:4;stroke-dasharray:none;stroke-opacity:1"
         d="m 456.68738,593.71724 c 5.20767,-18.12174 32.1929,-35.21773 26.03837,-8.20608 20.8307,-24.61822 31.71946,-13.33486 26.03837,-2.05151"
         id="path2297-2-8"
         sodipodi:nodetypes="ccc" />
    </g>
  </g>
</svg>
