<?xml version="1.0" encoding="UTF-8" standalone="no"?>
<svg
   xmlns:dc="http://purl.org/dc/elements/1.1/"
   xmlns:cc="http://creativecommons.org/ns#"
   xmlns:rdf="http://www.w3.org/1999/02/22-rdf-syntax-ns#"
   xmlns:svg="http://www.w3.org/2000/svg"
   xmlns="http://www.w3.org/2000/svg"
   xmlns:sodipodi="http://sodipodi.sourceforge.net/DTD/sodipodi-0.dtd"
   xmlns:inkscape="http://www.inkscape.org/namespaces/inkscape"
   width="414"
   height="600"
   viewBox="0 0 109.53749 158.75"
   version="1.1"
   id="svg898"
   sodipodi:docname="association.svg"
   inkscape:version="1.0.1 (3bc2e813f5, 2020-09-07)">
  <defs
     id="defs892" />
  <sodipodi:namedview
     id="base"
     pagecolor="#ffffff"
     bordercolor="#666666"
     borderopacity="1.0"
     inkscape:pageopacity="0.0"
     inkscape:pageshadow="2"
     inkscape:zoom="0.8349433"
     inkscape:cx="149.63128"
     inkscape:cy="404.98914"
     inkscape:document-units="mm"
     inkscape:current-layer="layer2"
     inkscape:document-rotation="0"
     showgrid="false"
     units="px"
     inkscape:window-width="1920"
     inkscape:window-height="1017"
     inkscape:window-x="-8"
     inkscape:window-y="-8"
     inkscape:window-maximized="1" />
  <metadata
     id="metadata895">
    <rdf:RDF>
      <cc:Work
         rdf:about="">
        <dc:format>image/svg+xml</dc:format>
        <dc:type
           rdf:resource="http://purl.org/dc/dcmitype/StillImage" />
        <dc:title></dc:title>
      </cc:Work>
    </rdf:RDF>
  </metadata>
  <g
     inkscape:groupmode="layer"
     id="layer2"
     inkscape:label="Calque 2"
     style="opacity:1">
    <g
       id="g1855"
       inkscape:export-xdpi="300"
       inkscape:export-ydpi="300"
       style="display:inline;opacity:1;stroke-width:0.892867"
       transform="matrix(0.06259243,0,0,0.0625602,-460.92001,4.5916289)">
      <path
         style="display:inline;fill:#a12e2e;fill-opacity:1;stroke:none;stroke-width:0.892867px;stroke-linecap:butt;stroke-linejoin:miter;stroke-opacity:1"
         d="m 8170.6635,794.53477 c 0,0 -331.7837,86.35868 -286.0743,304.74803 3.3859,41.7592 -21.9257,120.2019 -17.1703,135.719 4.7554,15.5171 88.5017,15.5282 105.8815,5.9293 -6.163,99.7353 -21.5579,398.9642 -17.6077,429.4371 1.1287,16.9294 18.2999,35.6501 27.7723,44.9121 85.6547,-43.7835 526.2321,-20.5459 535.3369,1.6941 14.1836,-21.2121 28.2915,-42.0917 27.1628,-53.378 -1.1286,-11.2863 -26.1007,-409.1173 -20.3864,-423.5123 31.6727,4.2273 92.0574,5.9223 105.8815,-5.9293 13.8241,-11.8516 -20.0347,-123.5857 -16.6488,-141.6437 39.502,-189.04511 -245.8897,-299.68917 -286.5958,-298.82338 94.7292,44.31794 -38.4488,99.05635 -76.8222,96.7991 -38.3733,-2.25726 -177.8241,-48.00413 -80.7295,-95.95205 z"
         id="path1655"
         sodipodi:nodetypes="ccsccccscsccsc" />
      <path
         style="display:inline;fill:#d1cddc;fill-opacity:1;stroke:none;stroke-width:0.892867px;stroke-linecap:butt;stroke-linejoin:miter;stroke-opacity:1"
         d="m 7973.3004,1240.9311 c -11.0567,3.2443 -72.5672,3.6735 -91.4816,0.8472 -5.3709,10.1529 -5.9811,155.7681 -11.8588,166.8692 -28.4502,120.0136 56.3774,132.2802 84.7053,128.7519 28.3279,-3.5283 56.7524,9.3176 69.4582,6.7764 194.9791,-76.4663 291.3909,-138.7184 300.7035,-149.9282 9.3126,-11.2098 -60.9324,-141.8178 -73.6935,-143.1518 -108.1301,81.0558 -223.9622,112.4293 -238.8687,111.8109 -14.9065,-0.6184 -33.3818,-16.3085 -44.8937,-15.247 4.8532,-28.8471 5.9293,-106.7286 5.9293,-106.7286 z"
         id="path1657"
         sodipodi:nodetypes="cccscscscc" />
      <path
         style="opacity:1;fill:none;stroke:#000000;stroke-width:7.14294;stroke-linecap:butt;stroke-linejoin:miter;stroke-miterlimit:4;stroke-dasharray:none;stroke-opacity:1"
         d="m 8170.6635,794.53477 c 0,0 -299.0093,80.46998 -287.9977,271.05663 4.2353,79.6229 -17.7881,121.9754 -15.2469,169.4104 46.5878,21.1763 105.8815,5.9293 105.8815,5.9293"
         id="path1209-2"
         sodipodi:nodetypes="cccc" />
      <path
         style="fill:none;stroke:#000000;stroke-width:7.14294;stroke-linecap:round;stroke-linejoin:miter;stroke-miterlimit:4;stroke-dasharray:none;stroke-opacity:1"
         d="m 7881.8188,1241.7783 c 0,0 -5.9294,159.2457 -11.8588,166.8692 -33.882,117.7401 55.9056,139.7637 84.7053,128.7519 33.035,-8.4706 48.2819,11.8587 69.4582,6.7764 83.0111,-30.4939 291.3859,-123.6696 300.7035,-149.9282 -1.6941,-44.0467 -50.8231,-120.2814 -73.6935,-143.1518 -182.9633,141.4576 -238.8687,74.5406 -332.8915,166.0222"
         id="path1244"
         sodipodi:nodetypes="ccccccc" />
      <g
         id="g2476"
         inkscape:export-xdpi="300"
         inkscape:export-ydpi="300"
         style="stroke-width:0.892867">
        <path
           style="display:inline;fill:#ecb58e;fill-opacity:1;stroke:none;stroke-width:0.892867px;stroke-linecap:butt;stroke-linejoin:miter;stroke-opacity:1"
           d="m 8227.416,350.67953 c -11.3893,-11.50407 -53.973,-7.55139 -61.4113,0.84705 -7.4383,8.39844 -55.8336,130.86668 -67.1275,134.46282 -11.2939,3.59614 -30.1394,2.75465 -40.0683,3.22132 -2.0073,82.82893 35.4361,102.9058 53.3161,90.18643 9.4153,32.42572 9.2209,69.72169 21.8457,76.35713 14.3177,18.48603 35.2086,23.34084 43.4692,28.66373 14.7497,9.50426 5.3207,102.60132 -6.7764,110.11676 -75.6244,41.97406 2.7861,89.81223 81.1728,91.37522 78.3868,1.56299 156.3507,-38.75988 76.3789,-92.22227 -11.1149,-30.32919 -23.0614,-93.23396 -10.1646,-105.8815 12.8968,-12.64754 38.0545,-17.72273 51.4126,-33.54051 13.3581,-15.81778 6.6419,-58.88615 17.0026,-74.93114 32.9332,35.30755 105.4857,-128.70258 14.494,-89.38839 -23.8384,4.32675 -110.5552,-116.68772 -113.8266,-140.1137 -11.1718,-16.65422 -62.693,-9.1965 -59.7172,0.84705"
           id="path1627"
           sodipodi:nodetypes="csscccscscsccccc" />
        <path
           style="display:inline;fill:#ecb58e;fill-opacity:1;stroke:none;stroke-width:0.892867px;stroke-linecap:butt;stroke-linejoin:miter;stroke-opacity:1"
           d="m 8251.1335,1251.0958 c 0,0 68.682,104.0046 69.4582,115.1991 0.7762,11.1945 80.9088,-23.7929 83.7303,-33.9506 2.8216,-10.1576 3.6509,-50.1672 6.9043,-58.3781 3.2534,-8.2109 15.9158,-28.5532 -12.7058,-60.9877 -12.8208,-8.7333 16.1545,-27.981 -38.1173,-24.5646 -14.2055,4.545 7.3338,-10.2259 -27.9527,-22.8703 -16.2537,6.2543 -82.1409,70.8927 -81.317,85.5522 z"
           id="path1629"
           sodipodi:nodetypes="cssscccc" />
        <path
           style="display:inline;fill:#ecb58e;fill-opacity:1;stroke:none;stroke-width:0.892867px;stroke-linecap:butt;stroke-linejoin:miter;stroke-opacity:1"
           d="m 8610.2835,1763.5623 c 0,0 0.47,207.9672 -59.2936,158.3987 -15.7471,-6.6807 -8.5359,-24.3984 -12.7058,-30.4939 -17.1491,2.3692 -8.8175,-62.2887 -5.9294,-74.5405 2.8881,-12.2518 -17.0004,-38.6015 -3.3881,-47.4349 13.6123,-8.8334 66.6318,4.3106 81.3169,-5.9294"
           id="path1631"
           sodipodi:nodetypes="cccssc" />
        <path
           style="display:inline;fill:#7b5027;fill-opacity:1;stroke:none;stroke-width:0.892867px;stroke-linecap:butt;stroke-linejoin:miter;stroke-opacity:1"
           d="m 8436.2143,485.36079 c 0,0 -25.0966,-0.26557 -35.2545,4.58539 -42.8881,-4.17806 -97.8752,-106.55066 -113.8266,-140.1137 -12.5908,-19.0249 -69.6664,2.33857 -59.7172,0.84705 15.8181,-2.37135 -57.9633,-11.54169 -61.4113,0.84705 -48.0288,142.74518 -88.9637,146.42795 -112.0458,129.68612 9.6481,-6.01987 14.6818,-9.67693 20.1407,-19.99289 -18.8066,-105.68495 73.0299,-263.95696 146.1165,-188.89259 137.3634,-125.26588 255.0594,144.91834 215.9982,213.03357 z"
           id="path1633"
           sodipodi:nodetypes="cccsccccc" />
        <path
           style="display:inline;fill:#e2d9d4;fill-opacity:1;stroke:none;stroke-width:0.892867px;stroke-linecap:butt;stroke-linejoin:miter;stroke-opacity:1"
           d="m 8280.9759,486.15975 c 0,0 7.4946,-12.25811 11.3801,-14.37495 3.8855,-2.11684 67.6437,-3.06562 73.2734,3.59373 5.6297,6.65935 -30.8869,40.84003 -84.6535,10.78122"
           id="path1635"
           sodipodi:nodetypes="cssc" />
        <path
           style="display:inline;fill:#e2d9d4;fill-opacity:1;stroke:none;stroke-width:0.892867px;stroke-linecap:butt;stroke-linejoin:miter;stroke-opacity:1"
           d="m 8218.5139,486.96681 c 0,0 -7.4946,-12.25811 -11.3801,-14.37495 -3.8855,-2.11684 -67.6437,-3.06562 -73.2734,3.59373 -5.6297,6.65935 30.8869,40.84003 84.6535,10.78122"
           id="path1635-5"
           sodipodi:nodetypes="cssc" />
        <path
           style="display:inline;fill:#d4976c;fill-opacity:1;stroke:none;stroke-width:0.892867px;stroke-linecap:butt;stroke-linejoin:miter;stroke-opacity:1"
           d="m 8209.6338,619.6163 c 0,0 62.21,7.05905 76.7467,1.69294 12.6114,-4.65539 -6.777,14.09773 -33.2945,14.10784 -30.4909,0.0116 -43.4522,-15.80078 -43.4522,-15.80078 z"
           id="path1653"
           sodipodi:nodetypes="cssc" />
        <path
           style="display:inline;fill:#d1cddc;fill-opacity:1;stroke:none;stroke-width:0.892867px;stroke-linecap:butt;stroke-linejoin:miter;stroke-opacity:1"
           d="m 8525.5783,1240.0841 c 0,0 70.0614,3.1893 82.1641,0.8471 12.1027,-2.3422 4.1384,181.6065 9.3176,190.5867 23.5346,27.3356 17.7401,58.5027 11.8587,72.8464 -5.8814,14.3437 15.7377,234.4344 9.3175,246.4922 -6.4202,12.0578 -130.5623,23.4203 -135.5283,16.941 -4.966,-6.4793 -2.9165,-50.6573 0.8471,-59.2936 6.5852,3.7786 10.769,0.039 15.2469,8.4705 4.4779,8.4311 25.2275,-40.2505 26.0255,-55.4137 0.7981,-15.1631 -19.2491,-421.4766 -19.2491,-421.4766"
           id="path1659"
           sodipodi:nodetypes="cscssscssc" />
        <path
           style="display:inline;fill:#a06c2f;fill-opacity:1;stroke:none;stroke-width:0.892867px;stroke-linecap:butt;stroke-linejoin:miter;stroke-opacity:1"
           d="m 8399.8075,992.62757 c 75.0583,0.76824 69.9697,105.79843 3.9502,104.39803 -62.0716,-1.3167 -71.0983,-105.08531 -3.9502,-104.39803 z"
           id="path1661"
           sodipodi:nodetypes="sss" />
        <path
           style="display:inline;fill:#80a94a;fill-opacity:1;stroke:none;stroke-width:0.892867px;stroke-linecap:butt;stroke-linejoin:miter;stroke-opacity:1"
           d="m 8409.8381,1058.8856 c -84.0448,-45.0782 16.6723,-86.70819 0,0 z"
           id="path1667"
           sodipodi:nodetypes="cc" />
        <path
           style="display:inline;fill:#80a94a;fill-opacity:1;stroke:none;stroke-width:0.892867px;stroke-linecap:butt;stroke-linejoin:miter;stroke-opacity:1"
           d="m 8409.4146,1036.4388 c 35.2563,-30.4842 35.967,13.8436 1.6941,14.8234 -1.6941,-14.8234 -1.6941,-14.8234 -1.6941,-14.8234 z"
           id="path1669"
           sodipodi:nodetypes="ccc" />
        <path
           style="display:inline;fill:#80a94a;fill-opacity:1;stroke:none;stroke-width:0.892867px;stroke-linecap:butt;stroke-linejoin:miter;stroke-opacity:1"
           d="m 8374.2619,1049.5681 c 5.3671,-2.9125 25.9377,19.6084 56.7525,6.3528 -4.3414,27.3498 -49.7497,38.8569 -56.7525,-6.3528"
           id="path1671"
           sodipodi:nodetypes="ccc" />
        <path
           style="display:inline;fill:#92abb0;fill-opacity:1;stroke:none;stroke-width:0.892867px;stroke-linecap:butt;stroke-linejoin:miter;stroke-opacity:1"
           d="m 8263.4157,1228.6489 -86.8228,-34.7291 c 0,0 5.3905,-27.5573 42.3526,-14.8234 9.8281,-5.6215 14.9782,-15.0238 16.9411,-23.7175 8.3474,0.484 11.0027,0.5602 19.4821,-2.1176 26.0367,-44.975 43.2415,0.6665 33.4586,11.4352 5.3802,9.5716 12.6219,11.5503 12.7058,20.7528 0.084,9.2025 -37.381,34.8732 -38.1174,43.1996"
           id="path1673"
           sodipodi:nodetypes="ccccccsc" />
        <path
           style="display:inline;fill:#3e2a33;fill-opacity:1;stroke:none;stroke-width:0.892867px;stroke-linecap:butt;stroke-linejoin:miter;stroke-opacity:1"
           d="m 8233.3454,1160.4612 -1.7033,13.311 -12.6966,5.3242 -21.1763,-4.6588 -71.9994,-30.0704 -96.5639,215.9983 -16.9411,2.5412 107.5756,-249.0333 z"
           id="path1675" />
        <path
           style="display:inline;fill:#3e2a33;fill-opacity:1;stroke:#000000;stroke-width:0.892867px;stroke-linecap:butt;stroke-linejoin:miter;stroke-opacity:1"
           d="m 8334.1446,1365.0243 16.941,-2.9647 -111.8109,264.2802 -202.4454,-84.7052 52.5172,-22.0233 150.7753,64.3759 77.9288,-180.8455 z"
           id="path1677" />
        <path
           style="display:inline;fill:#d4cac0;fill-opacity:1;stroke:none;stroke-width:0.892867px;stroke-linecap:butt;stroke-linejoin:miter;stroke-opacity:1"
           d="m 8263.4157,1228.6489 -86.8228,-34.7291 c 0,0 11.5689,-19.9455 21.1763,-19.4822 9.6074,0.4633 -71.9994,-30.0704 -71.9994,-30.0704 l -96.5639,215.9983 c 0,0 188.3735,-64.6763 221.9276,-109.2697 33.5541,-44.5934 12.2822,-22.4469 12.2822,-22.4469"
           id="path1679" />
        <path
           style="display:inline;fill:#d4cac0;fill-opacity:1;stroke:none;stroke-width:0.892867px;stroke-linecap:butt;stroke-linejoin:miter;stroke-opacity:1"
           d="m 8318.0506,1403.1417 -77.9288,180.8455 -150.7753,-64.3759 c 0,0 211.2789,-95.8962 228.7041,-116.4696 z"
           id="path1681" />
        <path
           style="display:inline;fill:#d4cac0;fill-opacity:1;stroke:none;stroke-width:0.892867px;stroke-linecap:butt;stroke-linejoin:miter;stroke-opacity:1"
           d="m 8325.2505,1386.2006 -4.6588,-19.9057 13.5529,-1.2706 z"
           id="path1683" />
        <path
           style="display:inline;fill:#3f4a55;fill-opacity:1;stroke:none;stroke-width:0.892867px;stroke-linecap:butt;stroke-linejoin:miter;stroke-opacity:1"
           d="m 8503.555,1708.5039 c 0,0 -308.0509,-54.6969 -506.114,2.3968 -10.4136,305.2239 9.04,470.1713 3.9611,480.8932 -5.0788,10.722 -33.2945,164.7796 -31.0372,174.3729 2.2572,9.5933 27.6514,60.9459 28.78,73.3608 1.1286,12.4149 1.1103,133.0467 0.8373,140.4484 -0.273,7.4017 223.6482,29.5302 229.9113,26.0842 6.2631,-3.446 -10.6663,-298.582 -8.4091,-313.2542 2.2573,-14.6721 20.3153,-475.7163 21.4439,-485.3096 5.3611,-10e-5 12.1896,-2.3226 16.6757,-5.8169 -0.9551,131.6365 23.9549,478.7116 20.0047,493.9481 -3.9502,15.2365 -6.1354,284.5901 -8.993,298.0456 -2.8576,13.4555 223.8205,5.1447 230.3981,-16.094 6.5776,-21.2387 -7.5302,-125.6367 -0.7585,-137.4873 6.7718,-11.8506 30.473,-67.1533 31.0373,-75.618 0.5643,-8.4647 -36.6804,-178.3231 -32.1659,-190.738 4.5145,-12.4149 12.1857,-312.6764 4.4283,-465.232"
           id="path1685"
           sodipodi:nodetypes="ccssssssccssssssc" />
        <path
           style="fill:none;stroke:#000000;stroke-width:7.14294;stroke-linecap:butt;stroke-linejoin:miter;stroke-miterlimit:4;stroke-dasharray:none;stroke-opacity:1"
           d="m 8099.8974,481.62757 c 0,0 12.7766,142.37474 34.0733,174.12671 20.4496,23.28146 55.6354,33.95261 75.3231,46.2224 14.6054,5.49337 66.7073,5.28783 86.2497,-1.19792 14.4601,-13.26217 54.8735,-22.6752 73.9197,-46.51305 9.7286,-28.92017 31.4966,-164.31953 31.4966,-164.31953"
           id="path1177"
           sodipodi:nodetypes="cccccc" />
        <path
           style="fill:none;stroke:#000000;stroke-width:7.14294;stroke-linecap:butt;stroke-linejoin:miter;stroke-miterlimit:4;stroke-dasharray:none;stroke-opacity:1"
           d="m 8386.4658,579.33457 c 34.7291,44.89375 100.7914,-139.01433 14.494,-89.38839"
           id="path1181"
           sodipodi:nodetypes="cc" />
        <path
           style="fill:none;stroke:#000000;stroke-width:7.14294;stroke-linecap:butt;stroke-linejoin:miter;stroke-miterlimit:4;stroke-dasharray:none;stroke-opacity:1"
           d="m 8396.8265,563.28958 c 49.976,-28.79977 -4.2353,-44.89376 27.1056,-67.76416"
           id="path1185"
           sodipodi:nodetypes="cc" />
        <path
           style="opacity:1;fill:none;stroke:#000000;stroke-width:7.14294;stroke-linecap:butt;stroke-linejoin:miter;stroke-miterlimit:4;stroke-dasharray:none;stroke-opacity:1"
           d="m 8112.125,579.39715 c -39.4294,12.79873 -64.559,-59.81726 -52.8464,-91.39094"
           id="path1181-2"
           sodipodi:nodetypes="cc" />
        <path
           style="opacity:1;fill:none;stroke:#000000;stroke-width:7.14294;stroke-linecap:butt;stroke-linejoin:miter;stroke-miterlimit:4;stroke-dasharray:none;stroke-opacity:1"
           d="m 8102.5624,561.75604 c -49.976,-28.79977 4.2353,-44.89376 -27.1056,-67.76416"
           id="path1185-1"
           sodipodi:nodetypes="cc" />
        <path
           style="fill:none;stroke:#000000;stroke-width:7.14294;stroke-linecap:butt;stroke-linejoin:miter;stroke-miterlimit:4;stroke-dasharray:none;stroke-opacity:1"
           d="m 8318.0506,687.80622 c 0,0 -10.1647,77.92878 10.1646,105.8815 89.7876,43.19965 -16.095,94.94313 -79.6229,94.02277 -68.6066,-0.99393 -163.481,-58.44658 -77.9288,-93.17572 22.0233,-33.03503 6.7764,-110.11676 6.7764,-110.11676"
           id="path1207"
           sodipodi:nodetypes="ccscc" />
        <path
           style="fill:none;stroke:#000000;stroke-width:7.14294;stroke-linecap:butt;stroke-linejoin:miter;stroke-miterlimit:4;stroke-dasharray:none;stroke-opacity:1"
           d="m 8328.2152,793.68772 c 0,0 299.0093,80.46998 287.9977,271.05668 -4.2353,79.6229 17.7881,121.9754 15.2469,169.4104 -46.5878,21.1763 -105.8815,5.9293 -105.8815,5.9293"
           id="path1209"
           sodipodi:nodetypes="cccc" />
        <path
           style="fill:none;stroke:#000000;stroke-width:7.14294;stroke-linecap:butt;stroke-linejoin:miter;stroke-miterlimit:4;stroke-dasharray:none;stroke-opacity:1"
           d="m 8552.684,918.20436 c 0,0 -40.6585,78.77584 -41.5055,88.94044 -0.8471,10.1646 37.2702,640.3713 33.882,654.7712 -3.3882,14.3999 -14.3999,37.2703 -26.2586,55.0584 -35.5762,-31.3409 -255.8097,-28.7998 -273.5978,-28.7998 -17.7881,0 -221.0806,-2.5411 -261.7391,27.1057 -10.1645,-11.0117 -26.2586,-35.5762 -27.9527,-47.4349 -3.0329,-21.2301 -0.847,-130.446 -0.847,-130.446"
           id="path1228"
           sodipodi:nodetypes="csccscsc" />
        <path
           style="fill:none;stroke:#000000;stroke-width:7.14294;stroke-linecap:butt;stroke-linejoin:miter;stroke-miterlimit:4;stroke-dasharray:none;stroke-opacity:1"
           d="m 7967.3711,1347.6597 c 0,0 23.7174,-317.6445 24.5645,-337.1267 0.847,-19.48217 -44.0467,-92.32864 -44.0467,-92.32864"
           id="path1230" />
        <circle
           style="fill:none;stroke:#000000;stroke-width:7.14294;stroke-linecap:round;stroke-linejoin:round;stroke-miterlimit:4;stroke-dasharray:none;stroke-opacity:1"
           id="path1232"
           cx="8402.6533"
           cy="1044.9114"
           r="52.517223" />
        <path
           style="fill:none;stroke:#000000;stroke-width:7.14294;stroke-linecap:butt;stroke-linejoin:miter;stroke-miterlimit:4;stroke-dasharray:none;stroke-opacity:1"
           d="m 8607.7424,1240.9312 c 0,0 5.9294,179.575 9.3176,190.5867 24.5645,30.4939 26.2585,44.0467 11.8587,72.8464 3.3882,91.4816 16.941,208.3748 9.3175,246.4922 -26.2586,23.7174 -135.5283,16.941 -135.5283,16.941"
           id="path1234"
           sodipodi:nodetypes="ccccc" />
        <path
           style="fill:none;stroke:#000000;stroke-width:7.14294;stroke-linecap:round;stroke-linejoin:miter;stroke-miterlimit:4;stroke-dasharray:none;stroke-opacity:1"
           d="m 8528.9666,1769.4917 c 0,0 -11.8588,40.6584 18.6351,66.917 6.7764,11.8588 2.5411,37.2704 5.9293,43.1997 3.3882,5.9294 15.395,8.9368 21.1763,-0.8471 11.0117,-18.6351 11.0117,-92.3286 11.0117,-92.3286"
           id="path1236"
           sodipodi:nodetypes="ccssc" />
        <path
           style="fill:none;stroke:#000000;stroke-width:7.14294;stroke-linecap:butt;stroke-linejoin:miter;stroke-miterlimit:4;stroke-dasharray:none;stroke-opacity:1"
           d="m 8610.2835,1763.5623 c 0,0 3.3883,128.7519 -28.7998,164.328 -11.0117,6.7765 -23.7174,3.3882 -27.1056,-3.3882 -3.3882,-6.7764 6.7764,-38.1173 6.7764,-38.1173"
           id="path1238"
           sodipodi:nodetypes="ccsc" />
        <path
           style="fill:none;stroke:#000000;stroke-width:7.14294;stroke-linecap:butt;stroke-linejoin:miter;stroke-miterlimit:4;stroke-dasharray:none;stroke-opacity:1"
           d="m 8550.9899,1921.961 c 0,0 -22.8704,5.9293 -3.3882,-85.5523"
           id="path1240"
           sodipodi:nodetypes="cc" />
        <path
           style="fill:none;stroke:#000000;stroke-width:7.14294;stroke-linecap:butt;stroke-linejoin:miter;stroke-miterlimit:4;stroke-dasharray:none;stroke-opacity:1"
           d="m 8538.2841,1891.4671 c 0,0 -25.4116,11.8588 -5.9294,-74.5405"
           id="path1242"
           sodipodi:nodetypes="cc" />
        <path
           style="fill:none;stroke:#000000;stroke-width:7.14294;stroke-linecap:round;stroke-linejoin:miter;stroke-miterlimit:4;stroke-dasharray:none;stroke-opacity:1"
           d="m 7936.8772,1355.2832 c 0,0 33.035,-19.4822 75.3876,7.6235"
           id="path1246"
           sodipodi:nodetypes="cc" />
        <path
           style="fill:none;stroke:#000000;stroke-width:7.14294;stroke-linecap:butt;stroke-linejoin:miter;stroke-miterlimit:4;stroke-dasharray:none;stroke-opacity:1"
           d="m 8251.1335,1251.0958 c 0,0 35.5761,-61.8348 81.317,-85.5522 19.4822,5.0823 27.9527,22.8703 27.9527,22.8703"
           id="path1248"
           sodipodi:nodetypes="ccc" />
        <path
           style="fill:none;stroke:#000000;stroke-width:7.14294;stroke-linecap:round;stroke-linejoin:miter;stroke-miterlimit:4;stroke-dasharray:none;stroke-opacity:1"
           d="m 8320.5917,1366.2949 c 0,0 16.9411,-0.8471 30.4939,-4.2353 17.7881,-11.0117 47.4349,-22.0233 52.5172,-33.8821 5.0823,-11.8587 6.7764,-44.0467 7.6235,-54.2113 3.3882,-13.5528 10.2158,-20.3387 8.4705,-29.6469 -2.5412,-13.5527 -21.1763,-24.5644 -21.1763,-31.3408 4.2353,-47.435 -43.1996,-22.0234 -66.07,-11.8587"
           id="path1250"
           sodipodi:nodetypes="ccscscc" />
        <path
           style="fill:none;stroke:#000000;stroke-width:7.14294;stroke-linecap:butt;stroke-linejoin:miter;stroke-miterlimit:4;stroke-dasharray:none;stroke-opacity:1"
           d="m 8168.9694,1839.7969 c 0,0 141.4577,-66.9171 182.1162,-68.6112"
           id="path1253" />
        <path
           style="fill:none;stroke:#000000;stroke-width:7.14294;stroke-linecap:butt;stroke-linejoin:miter;stroke-miterlimit:4;stroke-dasharray:none;stroke-opacity:1"
           d="m 8259.604,1801.6795 93.1757,10e-5"
           id="path1255"
           sodipodi:nodetypes="cc" />
        <path
           style="fill:none;stroke:#000000;stroke-width:7.14294;stroke-linecap:butt;stroke-linejoin:miter;stroke-miterlimit:4;stroke-dasharray:none;stroke-opacity:1"
           d="m 8503.555,1708.5039 c 0,0 6.556,219.6908 5.0823,271.9037 -0.7238,25.6451 -5.546,146.5637 -7.6235,177.0338 -5.0823,74.5406 28.013,178.6162 27.9527,207.5278 -0.025,11.8609 -25.199,56.5333 -27.1056,74.5406 -7.6235,71.9994 -0.8471,138.0694 -0.8471,138.0694"
           id="path1257"
           sodipodi:nodetypes="cssssc" />
        <path
           style="opacity:1;fill:none;stroke:#000000;stroke-width:7.14294;stroke-linecap:butt;stroke-linejoin:miter;stroke-miterlimit:4;stroke-dasharray:none;stroke-opacity:1"
           d="m 7997.441,1710.9007 c 0,0 -6.556,219.6908 -5.0823,271.9037 0.7238,25.6451 5.546,146.5637 7.6235,177.0338 5.0823,74.5406 -28.013,178.6162 -27.9527,207.5278 0.025,11.8609 25.199,56.5333 27.1056,74.5406 7.6235,71.9994 0.8471,138.0694 0.8471,138.0694"
           id="path1257-6"
           sodipodi:nodetypes="cssssc" />
        <path
           style="fill:none;stroke:#000000;stroke-width:7.14294;stroke-linecap:butt;stroke-linejoin:miter;stroke-miterlimit:4;stroke-dasharray:none;stroke-opacity:1"
           d="m 8270.6157,2593.6732 c 0,0 11.8587,-274.4448 8.4705,-323.5739 -3.3882,-49.129 -30.4939,-511.2085 -19.4822,-461.2323"
           id="path1274"
           sodipodi:nodetypes="csc" />
        <path
           style="display:inline;opacity:1;fill:none;stroke:#000000;stroke-width:7.14294;stroke-linecap:butt;stroke-linejoin:miter;stroke-miterlimit:4;stroke-dasharray:none;stroke-opacity:1"
           d="m 8229.8935,2606.0602 c 0,0 -11.8587,-274.4448 -8.4705,-323.5739 3.3882,-49.129 30.4939,-518.396 19.4822,-468.4198"
           id="path1274-8" />
        <path
           style="fill:none;stroke:#000000;stroke-width:7.14294;stroke-linecap:butt;stroke-linejoin:miter;stroke-miterlimit:4;stroke-dasharray:none;stroke-opacity:1"
           d="m 8434.0967,1694.951 c 0,0 2.5412,55.0584 10.1646,64.376 7.6235,9.3176 61.8348,46.5879 61.8348,46.5879"
           id="path1291" />
        <path
           style="display:inline;opacity:1;fill:none;stroke:#000000;stroke-width:7.14294;stroke-linecap:butt;stroke-linejoin:miter;stroke-miterlimit:4;stroke-dasharray:none;stroke-opacity:1"
           d="m 8066.0348,1697.2069 c 0,0 -2.5412,55.0584 -10.1646,64.376 -7.6235,9.3176 -61.8348,46.5879 -61.8348,46.5879"
           id="path1291-3" />
        <path
           style="fill:none;stroke:#000000;stroke-width:7.14294;stroke-linecap:butt;stroke-linejoin:miter;stroke-miterlimit:4;stroke-dasharray:none;stroke-opacity:1"
           d="m 8207.9338,1688.1746 c 0,0 -1.6941,70.3053 3.3882,75.3877 9.3176,11.0117 34.7292,11.0116 34.7292,11.0116 1.6941,6.7764 3.3882,29.6468 3.3882,29.6468"
           id="path1311"
           sodipodi:nodetypes="cccc" />
        <path
           style="fill:none;stroke:#000000;stroke-width:7.14294;stroke-linecap:butt;stroke-linejoin:miter;stroke-miterlimit:4;stroke-dasharray:none;stroke-opacity:1"
           d="m 8254.5217,1689.0217 v 72.8464"
           id="path1313" />
        <path
           style="fill:none;stroke:#000000;stroke-width:7.14294;stroke-linecap:butt;stroke-linejoin:round;stroke-miterlimit:4;stroke-dasharray:none;stroke-opacity:1"
           d="m 8012.2648,1362.9067 107.5756,-249.0333 113.505,46.5878"
           id="path1317" />
        <path
           style="fill:none;stroke:#000000;stroke-width:7.14294;stroke-linecap:butt;stroke-linejoin:round;stroke-miterlimit:4;stroke-dasharray:none;stroke-opacity:1"
           d="m 8351.0856,1362.0596 -111.8109,264.2802 -202.4454,-84.7052"
           id="path1319" />
        <path
           style="fill:none;stroke:#000000;stroke-width:7.14294;stroke-linecap:butt;stroke-linejoin:miter;stroke-miterlimit:4;stroke-dasharray:none;stroke-opacity:1"
           d="m 8318.0506,1403.1417 -77.9288,180.8455 -150.7753,-64.3759"
           id="path1321"
           sodipodi:nodetypes="ccc" />
        <path
           style="fill:none;stroke:#000000;stroke-width:7.14294;stroke-linecap:butt;stroke-linejoin:miter;stroke-miterlimit:4;stroke-dasharray:none;stroke-opacity:1"
           d="m 8029.2059,1360.3655 96.5639,-215.9983 71.9994,30.0704"
           id="path1323"
           sodipodi:nodetypes="ccc" />
        <path
           style="fill:none;stroke:#000000;stroke-width:7.14294;stroke-linecap:butt;stroke-linejoin:miter;stroke-miterlimit:4;stroke-dasharray:none;stroke-opacity:1"
           d="m 8334.1446,1365.0243 -8.8941,21.1763"
           id="path1325" />
        <path
           style="fill:none;stroke:#000000;stroke-width:7.14294;stroke-linecap:butt;stroke-linejoin:miter;stroke-miterlimit:4;stroke-dasharray:none;stroke-opacity:1"
           d="m 8263.4157,1228.6489 -86.8228,-34.7291 c 0,0 5.5058,-30.0704 42.3526,-14.8234 16.094,0.4235 16.9411,-23.7175 16.9411,-23.7175 l 19.4821,-2.1176 c 0,0 7.4209,-26.3936 26.6821,-18.6351 16.0645,6.4707 9.7412,24.1409 6.7765,30.0703 4.2353,9.3176 12.7058,20.7528 12.7058,20.7528"
           id="path1327"
           sodipodi:nodetypes="cccccscc" />
        <circle
           style="fill:none;stroke:#000000;stroke-width:7.14294;stroke-linecap:round;stroke-linejoin:round;stroke-miterlimit:4;stroke-dasharray:none;stroke-opacity:1"
           id="path1329"
           cx="8275.2744"
           cy="1151.9907"
           r="3.811734" />
        <path
           style="fill:none;stroke:#000000;stroke-width:4.46434;stroke-linecap:round;stroke-linejoin:miter;stroke-miterlimit:4;stroke-dasharray:none;stroke-opacity:1"
           d="m 8146.9461,1218.4843 c 0,0 8.047,10.1646 11.8587,10.1646 3.8117,0 8.047,-1.6941 11.0117,-0.4235 2.9647,1.2706 44.4702,23.7174 49.5525,25.4116 5.0823,1.6941 15.6705,7.6234 15.6705,7.6234"
           id="path1331" />
        <path
           style="fill:none;stroke:#000000;stroke-width:4.46434;stroke-linecap:round;stroke-linejoin:miter;stroke-miterlimit:4;stroke-dasharray:none;stroke-opacity:1"
           d="m 8150.3343,1271.425 c 0,0 22.0233,11.8588 26.6821,12.2823 4.6588,0.4235 13.9764,5.9294 13.9764,5.9294"
           id="path1333" />
        <path
           style="fill:none;stroke:#000000;stroke-width:4.46434;stroke-linecap:butt;stroke-linejoin:miter;stroke-miterlimit:4;stroke-dasharray:none;stroke-opacity:1"
           d="m 8374.2619,1049.5681 c -4.2352,32.188 44.4703,50.8231 56.7525,6.3528 -30.9174,12.7059 -56.7525,-6.3528 -56.7525,-6.3528 z"
           id="path1337"
           sodipodi:nodetypes="ccc" />
        <path
           style="fill:none;stroke:#000000;stroke-width:4.46434;stroke-linecap:butt;stroke-linejoin:miter;stroke-miterlimit:4;stroke-dasharray:none;stroke-opacity:1"
           d="m 8409.8381,1058.8856 c 0,0 2.5412,-68.18766 -25.4116,-47.8584 -28.9445,21.0506 25.4116,47.8584 25.4116,47.8584 z"
           id="path1339"
           sodipodi:nodetypes="csc" />
        <path
           style="fill:none;stroke:#000000;stroke-width:4.46434;stroke-linecap:butt;stroke-linejoin:miter;stroke-miterlimit:4;stroke-dasharray:none;stroke-opacity:1"
           d="m 8409.4146,1036.4388 c 0,0 16.586,-20.2913 24.1409,-8.047 12.2823,19.9057 -22.4468,22.8704 -22.4468,22.8704"
           id="path1341"
           sodipodi:nodetypes="csc" />
        <path
           style="fill:none;stroke:#000000;stroke-width:7.14294;stroke-linecap:butt;stroke-linejoin:miter;stroke-miterlimit:4;stroke-dasharray:none;stroke-opacity:1"
           d="m 8280.9759,486.15975 11.3801,-14.37495 c 0,0 26.9531,-10.18226 74.8695,3.59373"
           id="path1343"
           sodipodi:nodetypes="ccc" />
        <ellipse
           style="fill:#090909;fill-opacity:1;stroke:#000000;stroke-width:7.14294;stroke-linecap:round;stroke-linejoin:round;stroke-miterlimit:4;stroke-dasharray:none;stroke-opacity:1"
           id="path1345"
           cx="8320.6035"
           cy="483.16498"
           rx="11.679646"
           ry="11.380168" />
        <ellipse
           style="fill:#e2d9d4;fill-opacity:1;stroke:#e2d9d4;stroke-width:6.40357;stroke-linecap:round;stroke-linejoin:round;stroke-miterlimit:4;stroke-dasharray:none;stroke-opacity:1"
           id="path1347"
           cx="8320.3037"
           cy="483.16495"
           rx="2.2109089"
           ry="2.5103874" />
        <path
           style="display:inline;opacity:1;fill:none;stroke:#000000;stroke-width:7.14294;stroke-linecap:butt;stroke-linejoin:miter;stroke-miterlimit:4;stroke-dasharray:none;stroke-opacity:1"
           d="m 8218.5139,486.96681 -11.3801,-14.37495 c 0,0 -26.9531,-10.18226 -74.8695,3.59373"
           id="path1343-0"
           sodipodi:nodetypes="ccc" />
        <ellipse
           style="display:inline;opacity:1;fill:#090909;fill-opacity:1;stroke:#000000;stroke-width:7.14294;stroke-linecap:round;stroke-linejoin:round;stroke-miterlimit:4;stroke-dasharray:none;stroke-opacity:1"
           id="path1345-5"
           cx="-8178.8867"
           cy="483.97205"
           rx="11.679646"
           ry="11.380168"
           transform="scale(-1,1)" />
        <ellipse
           style="display:inline;opacity:1;fill:#e2d9d4;fill-opacity:1;stroke:#e2d9d4;stroke-width:6.40357;stroke-linecap:round;stroke-linejoin:round;stroke-miterlimit:4;stroke-dasharray:none;stroke-opacity:1"
           id="path1347-9"
           cx="-8179.1865"
           cy="483.97202"
           rx="2.2109089"
           ry="2.5103874"
           transform="scale(-1,1)" />
        <path
           style="fill:none;stroke:#000000;stroke-width:7.14294;stroke-linecap:butt;stroke-linejoin:miter;stroke-miterlimit:4;stroke-dasharray:none;stroke-opacity:1"
           d="m 8247.3217,499.76068 c 0,0 -26.2586,72.84647 -23.7174,75.38762 2.5411,2.54116 36.8467,1.27058 36.8467,1.27058"
           id="path1370" />
        <path
           style="fill:none;stroke:#000000;stroke-width:7.14294;stroke-linecap:butt;stroke-linejoin:miter;stroke-miterlimit:4;stroke-dasharray:none;stroke-opacity:1"
           d="m 8199.0398,615.8068 c 0,0 27.9373,9.54178 49.5525,9.31757 22.4406,-0.23277 50.3996,-8.47052 50.3996,-8.47052"
           id="path1372"
           sodipodi:nodetypes="csc" />
        <path
           style="fill:none;stroke:#d4976c;stroke-width:7.14294;stroke-linecap:round;stroke-linejoin:round;stroke-miterlimit:4;stroke-dasharray:none;stroke-opacity:1"
           d="m 8130.005,566.67778 c -1.2706,-13.55283 43.6232,-77.50526 33.4586,-7.62346 13.1293,-47.43491 34.7291,-35.99971 35.5762,-8.89405"
           id="path1375"
           sodipodi:nodetypes="ccc" />
        <path
           style="display:inline;opacity:1;fill:none;stroke:#d4976c;stroke-width:7.14294;stroke-linecap:round;stroke-linejoin:round;stroke-miterlimit:4;stroke-dasharray:none;stroke-opacity:1"
           d="m 8298.3747,555.77608 c -1.2706,-13.55283 43.6232,-77.50526 33.4586,-7.62346 13.1293,-47.43491 34.7291,-35.99971 35.5762,-8.89405"
           id="path1375-3"
           sodipodi:nodetypes="ccc" />
        <path
           style="fill:none;stroke:#000000;stroke-width:7.14294;stroke-linecap:butt;stroke-linejoin:miter;stroke-miterlimit:4;stroke-dasharray:none;stroke-opacity:1"
           d="m 8225.463,449.54935 c 0,0 -53.7878,-38.30765 -95.8213,-15.52773"
           id="path1392"
           sodipodi:nodetypes="cc" />
        <path
           style="display:inline;opacity:1;fill:none;stroke:#000000;stroke-width:7.14294;stroke-linecap:butt;stroke-linejoin:miter;stroke-miterlimit:4;stroke-dasharray:none;stroke-opacity:1"
           d="m 8275.3871,449.12634 c 0,0 25.4774,-21.23138 51.5096,-23.87234"
           id="path1392-3"
           sodipodi:nodetypes="cc" />
        <path
           style="fill:none;stroke:#000000;stroke-width:7.14294;stroke-linecap:butt;stroke-linejoin:miter;stroke-miterlimit:4;stroke-dasharray:none;stroke-opacity:1"
           d="M 8400.9598,489.94618 C 8268.4981,430.72594 8277.8156,191.01022 8227.416,350.67953 c -65.6465,-145.26942 -80.94,199.23155 -173.4571,130.53317 7.8585,-5.16948 31.5759,-19.56936 34.9641,-58.11023"
           id="path1411"
           sodipodi:nodetypes="ccc" />
        <path
           style="fill:none;stroke:#000000;stroke-width:7.14294;stroke-linecap:butt;stroke-linejoin:miter;stroke-miterlimit:4;stroke-dasharray:none;stroke-opacity:1"
           d="m 8074.0996,461.21981 c -28.3762,-95.71688 78.3524,-269.78606 146.1165,-188.89259 97.411,-118.16376 258.7744,102.06976 215.9982,213.03357"
           id="path1413"
           sodipodi:nodetypes="ccc" />
        <path
           style="fill:none;stroke:#000000;stroke-width:7.14294;stroke-linecap:butt;stroke-linejoin:miter;stroke-miterlimit:4;stroke-dasharray:none;stroke-opacity:1"
           d="m 8166.0047,351.52658 c 0,0 41.082,-18.63514 61.4113,-0.84705 32.6116,-19.90572 59.7172,-0.84705 59.7172,-0.84705"
           id="path1417"
           sodipodi:nodetypes="ccc" />
      </g>
    </g>
  </g>
</svg>
