<?xml version="1.0" encoding="UTF-8" standalone="no"?>
<svg
   xmlns:dc="http://purl.org/dc/elements/1.1/"
   xmlns:cc="http://creativecommons.org/ns#"
   xmlns:rdf="http://www.w3.org/1999/02/22-rdf-syntax-ns#"
   xmlns:svg="http://www.w3.org/2000/svg"
   xmlns="http://www.w3.org/2000/svg"
   xmlns:sodipodi="http://sodipodi.sourceforge.net/DTD/sodipodi-0.dtd"
   xmlns:inkscape="http://www.inkscape.org/namespaces/inkscape"
   width="440"
   height="600"
   viewBox="0 0 116.41666 158.75"
   version="1.1"
   id="svg898"
   sodipodi:docname="citoyen4.svg"
   inkscape:version="1.0.1 (3bc2e813f5, 2020-09-07)">
  <defs
     id="defs892" />
  <sodipodi:namedview
     id="base"
     pagecolor="#ffffff"
     bordercolor="#666666"
     borderopacity="1.0"
     inkscape:pageopacity="0.0"
     inkscape:pageshadow="2"
     inkscape:zoom="0.30321301"
     inkscape:cx="-2.0671774"
     inkscape:cy="208.84484"
     inkscape:document-units="mm"
     inkscape:current-layer="layer2"
     inkscape:document-rotation="0"
     showgrid="false"
     units="px"
     inkscape:window-width="1920"
     inkscape:window-height="1137"
     inkscape:window-x="-8"
     inkscape:window-y="-8"
     inkscape:window-maximized="1" />
  <metadata
     id="metadata895">
    <rdf:RDF>
      <cc:Work
         rdf:about="">
        <dc:format>image/svg+xml</dc:format>
        <dc:type
           rdf:resource="http://purl.org/dc/dcmitype/StillImage" />
        <dc:title></dc:title>
      </cc:Work>
    </rdf:RDF>
  </metadata>
  <g
     inkscape:groupmode="layer"
     id="layer2"
     inkscape:label="Calque 2"
     style="opacity:1">
    <g
       id="g2201"
       inkscape:export-xdpi="300"
       inkscape:export-ydpi="300"
       style="display:inline;opacity:1"
       transform="matrix(0.05587237,0,0,0.05587237,-229.16125,27.391683)">
      <path
         style="display:inline;fill:#c68761;fill-opacity:1;stroke:none;stroke-width:1px;stroke-linecap:butt;stroke-linejoin:miter;stroke-opacity:1"
         d="m 5043.0198,327.18415 c 26.1604,10.20809 131.2498,11.59085 157.5221,3.29432 13.8276,4.83964 24.8101,7.76973 32.8007,17.02104 1.7682,20.31335 31.9203,60.88121 31.9203,60.88121 0,0 -5.2249,60.35159 -3.8465,83.0578 104.3937,-66.48149 62.605,141.65174 -6.0485,101.31194 -2.9727,21.88418 8.0985,28.48336 -3.3138,45.57941 -11.4123,17.09605 -48.2557,49.7432 -60.946,65.22299 -12.6903,15.47979 -15.2747,111.95554 12.8307,129.37674 53.2159,91.75821 -255.2934,72.22162 -170.4821,-4.59029 25.0809,-19.98594 13.4198,-102.84572 5.3461,-129.91134 -20.7845,-23.64348 -57.7912,-42.49661 -57.2637,-57.95964 0.5275,-15.46303 4.6319,-16.43882 -7.0996,-47.75429 -96.0796,12.93269 -81.2567,-175.45668 -6.0485,-101.31194 -0.1519,-55.14286 -16.0625,-62.96916 -6.0331,-82.21716 19.0173,-16.48249 24.7723,-74.92444 80.6619,-82.00079 z"
         id="path1641"
         sodipodi:nodetypes="ccccccsscccscccc" />
      <path
         style="display:inline;fill:#c68761;fill-opacity:1;stroke:none;stroke-width:1px;stroke-linecap:butt;stroke-linejoin:miter;stroke-opacity:1"
         d="m 5332.5595,1744.3558 c 0,0 75.6845,17.7176 107.2869,15.7502 23.8413,184.9519 -73.0983,159.7819 -85.6809,152.2105 -30.5584,0.034 -26.6248,-61.1409 9.0885,-56.1345 -30.6589,-13.6608 -43.1748,-80.704 -30.6945,-111.8262"
         id="path1645"
         sodipodi:nodetypes="ccccc" />
      <path
         style="display:inline;fill:#c68761;fill-opacity:1;stroke:none;stroke-width:1px;stroke-linecap:butt;stroke-linejoin:miter;stroke-opacity:1"
         d="m 4892.4827,1742.6814 c 0,0 -75.6845,17.7176 -107.2869,15.7502 -23.8413,184.9519 73.0983,159.7819 85.6809,152.2105 30.5584,0.034 26.6248,-61.1409 -9.0885,-56.1345 30.6589,-13.6608 43.1748,-80.704 30.6945,-111.8262"
         id="path1645-6"
         sodipodi:nodetypes="ccccc" />
      <path
         style="display:inline;fill:#000000;fill-opacity:1;stroke:none;stroke-width:1px;stroke-linecap:butt;stroke-linejoin:miter;stroke-opacity:1"
         d="m 5261.4164,491.43852 c 0,0 12.0069,-7.42916 19.123,-12.98272 7.1161,-5.55356 29.5481,-78.97775 30.7769,-91.35346 1.2288,-12.37571 -17.6796,-61.75402 -35.5348,-57.4605 5.6516,-84.89418 -35.3636,-86.36762 -48.3878,-75.60593 -7.4932,-9.28826 -21.4467,-21.81942 -31.7544,-12.09695 -6.8508,-8.25335 -13.7527,-29.11696 -23.4379,-20.4136 -20.0559,-29.32241 -49.9657,-17.04013 -65.7771,-8.31665 -10.7097,-7.29897 -11.6613,-3.19246 -27.2182,0 -13.148,2.69812 -33.0406,6.39338 -41.5832,19.65754 -57.9709,-8.78628 -79.8833,43.92467 -76.362,63.50898 -26.8993,2.99125 -14.4051,25.16835 -15.1212,39.31508 -28.3712,11.38122 -27.4522,43.77803 -15.1212,59.72868 4.7258,18.71616 14.2229,76.32241 25.7977,86.15276 11.5748,9.83035 10.7315,-4.52124 10.7315,-4.52124 l -5.1898,-67.86557 c 0,0 34.4512,-43.90868 34.6851,-60.6162 0.2339,-16.70752 30.1871,-16.38238 45.9768,-21.38459 28.9259,6.75121 80.5748,16.31453 157.5221,3.29432 14.5189,-3.45688 26.1929,7.76973 32.8007,17.02104 6.6078,9.25131 15.2259,46.36259 31.9203,60.88121 -1.1142,19.58198 -3.8465,83.0578 -3.8465,83.0578 z"
         id="path1663"
         sodipodi:nodetypes="csscccccsccccsccsccccc" />
      <path
         style="display:inline;fill:#d8cdc7;fill-opacity:1;stroke:none;stroke-width:1px;stroke-linecap:butt;stroke-linejoin:miter;stroke-opacity:1"
         d="m 5146.7151,500.73094 c 0,0 67.1084,-17.13218 87.7029,-9.07271 0.062,10.01498 -53.6113,58.41289 -87.7029,9.07271"
         id="path1665"
         sodipodi:nodetypes="ccc" />
      <path
         style="display:inline;fill:#d8cdc7;fill-opacity:1;stroke:none;stroke-width:1px;stroke-linecap:butt;stroke-linejoin:miter;stroke-opacity:1"
         d="m 5083.0439,500.00827 c 0,0 -67.1084,-17.13219 -87.7029,-9.07272 -0.062,10.01499 53.6113,58.4129 87.7029,9.07272"
         id="path1665-0"
         sodipodi:nodetypes="ccc" />
      <path
         style="display:inline;fill:#b27048;fill-opacity:1;stroke:none;stroke-width:1px;stroke-linecap:butt;stroke-linejoin:miter;stroke-opacity:1"
         d="m 5061.575,646.29989 c 0,0 82.2248,6.79516 101.5978,0.6075 10.8619,-3.46923 -21.1142,19.67228 -52.2235,19.32384 -25.3238,-0.28364 -49.3743,-19.93134 -49.3743,-19.93134 z"
         id="path1682"
         sodipodi:nodetypes="cssc" />
      <path
         style="display:inline;fill:#cfc2b2;fill-opacity:1;stroke:none;stroke-width:1px;stroke-linecap:butt;stroke-linejoin:miter;stroke-opacity:1"
         d="m 5033.4567,828.33931 c -16.8212,1.31375 -53.6508,29.41247 -60.4713,40.94408 -8.2033,160.86921 134.3568,416.51621 143.2766,426.62251 8.9198,10.1063 128.103,-225.3866 140.069,-418.06868 -1.1702,-28.13421 -56.6005,-70.66894 -52.3922,-44.90762 50.5306,92.13356 -250.108,74.98713 -170.4821,-4.59029 z"
         id="path1684"
         sodipodi:nodetypes="ccsccc" />
      <path
         style="display:inline;fill:#a12e2e;fill-opacity:1;stroke:none;stroke-width:1px;stroke-linecap:butt;stroke-linejoin:miter;stroke-opacity:1"
         d="m 5046.7621,814.7527 c 0,0 -96.6181,20.64851 -116.546,39.02686 -19.9279,18.37835 -0.9992,8.80975 -8.0192,16.03844 -7.02,7.22869 -78.4087,50.71499 -93.5576,52.92685 -15.1489,2.21186 -28.0491,18.55474 -18.1769,29.93841 -3.8164,33.87205 -15.5494,388.79734 -15.5494,401.50814 0,12.7108 -52.6133,297.9542 -51.2394,319.5954 1.3739,21.6412 29.3552,28.7732 27.0976,43.7846 -2.2576,15.0114 -7.8105,23.2156 -1.123,36.2242 6.6875,13.0086 114.8066,-1.9933 122.8345,-11.1142 8.0279,-9.1209 27.5347,-207.8159 39.2919,-218.4659 11.7572,-10.65 -8.7756,-34.1161 -6.8201,-41.9382 1.9555,-7.822 6.7609,-9.9336 12.6691,-13.7666 14.7064,4.9274 123.0778,43.2376 172.581,44.3639 51.8556,1.1798 166.1986,-33.4438 178.2033,-43.7536 6.627,7.7787 10.0492,4.3565 11.0269,16.0896 0.9778,11.7331 -8.0824,29.6563 -5.5078,39.7609 2.5746,10.1046 42.4245,196.9359 38.6325,219.3843 4.5189,15.6041 112.5696,16.535 122.8317,12.6474 10.2621,-3.8876 -6.6416,-16.7398 -1.123,-36.2242 5.5186,-19.4844 24.2328,-31.9078 27.0976,-43.7846 2.8648,-11.8768 -54.8227,-316.9365 -53.845,-335.5138 0.9778,-18.5774 -8.288,-369.3217 -12.9438,-385.58963 -4.6558,-16.26793 18.1675,-9.38749 -18.1769,-29.93843 -36.3444,-20.55094 -85.5384,-36.88841 -93.5576,-52.92685 -8.0192,-16.03844 0.08,0.0791 -8.0192,-16.03844 -8.0993,-16.11751 -105.8537,-40.09609 -105.8537,-40.09609 0,0 51.6347,15.78208 67.3614,60.94606 19.6377,58.36368 -113.0244,420.40408 -140.069,418.06868 -27.0446,-2.3354 -171.5106,-393.32008 -143.2766,-426.62251 28.234,-33.30243 73.7767,-54.53069 73.7767,-54.53069"
         id="path1686"
         sodipodi:nodetypes="csssccsssssscscsscssssssssccssc" />
      <path
         style="display:inline;fill:#3e2a33;fill-opacity:1;stroke:none;stroke-width:1px;stroke-linecap:butt;stroke-linejoin:miter;stroke-opacity:1"
         d="m 5110.2046,1512.8746 c -18.3057,14.1341 -134.4902,-36.6199 -172.581,-44.3639 -4.2133,6.0836 -12.6691,3.9891 -8.7581,15.7222 0.4541,12.4244 11.6847,29.122 2.9091,39.9826 -8.7756,10.8606 -39.5034,202.032 -39.2947,216.9327 -7.3965,66.754 47.5433,809.6348 53.6975,824.3917 6.1542,14.7569 161.5306,9.1642 165.8076,9.1642 4.277,0 -5.168,-329.7775 0.6985,-347.3771 5.8666,-17.5996 1.44,-400.0142 1.44,-400.0142 l 15.1819,-29.2204 -16.0766,-18.3289 z"
         id="path1688"
         sodipodi:nodetypes="cccscssscccc" />
      <path
         style="display:inline;fill:#3e2a33;fill-opacity:1;stroke:none;stroke-width:1px;stroke-linecap:butt;stroke-linejoin:miter;stroke-opacity:1"
         d="m 5099.9252,1513.4849 c 18.3057,14.1341 150.3919,-36.6199 188.4827,-44.3639 4.2133,6.0836 12.6691,3.9891 8.7581,15.7222 -0.4541,12.4244 -11.6847,29.122 -2.9091,39.9826 8.7756,10.8606 39.5034,202.032 39.2947,216.9327 7.3965,66.754 -47.5433,809.6348 -53.6975,824.3917 -6.1542,14.7569 -161.5306,9.1642 -165.8076,9.1642 -4.277,0 16.9214,-282.7638 -0.6985,-347.3771 -4.8808,-17.8981 -1.44,-400.0142 -1.44,-400.0142 l -15.1819,-29.2204 16.0766,-18.3289 z"
         id="path1688-5"
         sodipodi:nodetypes="cccscssscccc" />
      <path
         style="fill:none;stroke:#000000;stroke-width:8;stroke-linecap:butt;stroke-linejoin:miter;stroke-miterlimit:4;stroke-dasharray:none;stroke-opacity:1"
         d="m 4981.5391,640.46833 86.6076,89.81526 h 99.4383 l 84.4691,-91.95372 13.2088,-229.94915 c -7.1714,-2.26818 -27.1087,-35.21971 -31.9203,-60.88121 -6.4153,-5.34614 -24.0576,-19.24613 -41.6999,-16.57305 -63.0845,8.01922 -96.2306,10.15768 -148.6229,-3.74231 -24.0577,2.67308 -41.1653,13.89999 -45.9768,21.38459 -11.7616,38.49225 -29.2741,54.10354 -34.6851,60.6162 z"
         id="path1342"
         sodipodi:nodetypes="ccccccccccc" />
      <path
         style="fill:none;stroke:#000000;stroke-width:8;stroke-linecap:butt;stroke-linejoin:miter;stroke-miterlimit:4;stroke-dasharray:none;stroke-opacity:1"
         d="m 5191.1081,703.55286 c 0,0 -29.9385,118.68444 12.8307,129.37674"
         id="path1344"
         sodipodi:nodetypes="cc" />
      <path
         style="opacity:1;fill:none;stroke:#000000;stroke-width:8;stroke-linecap:butt;stroke-linejoin:miter;stroke-miterlimit:4;stroke-dasharray:none;stroke-opacity:1"
         d="m 5038.8028,698.42797 c 0,0 29.9385,115.47674 -5.3461,129.91134"
         id="path1344-9"
         sodipodi:nodetypes="cc" />
      <path
         style="fill:none;stroke:#000000;stroke-width:8;stroke-linecap:butt;stroke-linejoin:miter;stroke-miterlimit:4;stroke-dasharray:none;stroke-opacity:1"
         d="m 5046.7621,814.7527 c 0,0 -42.7691,25.6615 -26.7307,49.18455 47.0461,51.323 161.4536,39.56148 190.3228,-4.27692 2.1384,-28.86919 -21.3846,-42.76917 -21.3846,-42.76917 0,0 49.1846,9.62306 67.3614,60.94606 1.0693,133.65368 -86.6075,345.36108 -140.069,418.06868 -56.6692,-73.7768 -163.5921,-348.56877 -143.2766,-426.62251 37.4229,-44.90763 73.7767,-54.53069 73.7767,-54.53069 z"
         id="path1361"
         sodipodi:nodetypes="cccccccc" />
      <path
         style="fill:none;stroke:#000000;stroke-width:8;stroke-linecap:butt;stroke-linejoin:miter;stroke-miterlimit:4;stroke-dasharray:none;stroke-opacity:1"
         d="m 5188.9696,816.89116 c 0,0 81.2615,24.05766 105.8537,40.09609 10.8525,8.18431 3.2077,7.48461 8.0192,16.03844 21.3846,17.64228 86.073,51.85762 93.5576,52.92685 20.3154,8.01922 27.2654,18.1769 18.1769,29.93843 18.1769,135.79213 6.4153,289.76113 16.0384,400.96093 12.2267,95.8675 53.5152,266.9811 50.7504,320.1425 -6.5451,19.8947 -22.7447,19.1701 -27.0976,43.7846 0.1834,13.2737 4.5141,26.7845 1.123,36.2242 -29.0972,5.6592 -92.7951,2.7647 -122.8317,-12.6474"
         id="path1363"
         sodipodi:nodetypes="cccccccccc" />
      <path
         style="fill:none;stroke:#000000;stroke-width:8;stroke-linecap:butt;stroke-linejoin:miter;stroke-miterlimit:4;stroke-dasharray:none;stroke-opacity:1"
         d="m 5430.0176,1761.6181 c 0,0 7.5606,-25.7061 -0.756,-55.1923"
         id="path1365"
         sodipodi:nodetypes="cc" />
      <path
         style="opacity:1;fill:none;stroke:#000000;stroke-width:8;stroke-linecap:butt;stroke-linejoin:miter;stroke-miterlimit:4;stroke-dasharray:none;stroke-opacity:1"
         d="m 5400.7752,1759.7065 c 0,0 7.5605,-25.7061 -0.756,-55.1923"
         id="path1365-4"
         sodipodi:nodetypes="cc" />
      <path
         style="opacity:1;fill:none;stroke:#000000;stroke-width:8;stroke-linecap:butt;stroke-linejoin:miter;stroke-miterlimit:4;stroke-dasharray:none;stroke-opacity:1"
         d="m 5368.2644,1757.4383 c 0,0 7.5606,-25.7061 -0.756,-55.1923"
         id="path1365-1"
         sodipodi:nodetypes="cc" />
      <path
         style="opacity:1;fill:none;stroke:#000000;stroke-width:8;stroke-linecap:butt;stroke-linejoin:miter;stroke-miterlimit:4;stroke-dasharray:none;stroke-opacity:1"
         d="m 5046.7621,814.7527 c 0,0 -21.3847,-5.88076 -116.546,39.02686 -10.8525,8.18431 -3.2077,7.48461 -8.0192,16.03844 -21.3846,17.64228 -86.073,51.85762 -93.5576,52.92685 -20.3154,8.01921 -27.2654,18.17691 -18.1769,29.93841 -18.1769,135.79224 -6.4153,289.76124 -16.0384,400.96104 -12.2267,95.8675 -53.5152,266.9811 -50.7504,320.1425 6.5451,19.8947 22.7447,19.1701 27.0976,43.7846 -0.1834,13.2737 -4.5141,26.7845 -1.123,36.2242 29.0972,5.6592 92.7951,2.7647 122.8317,-12.6474"
         id="path1363-8"
         sodipodi:nodetypes="cccccccccc" />
      <path
         style="opacity:1;fill:none;stroke:#000000;stroke-width:8;stroke-linecap:butt;stroke-linejoin:miter;stroke-miterlimit:4;stroke-dasharray:none;stroke-opacity:1"
         d="m 4795.0218,1758.4105 c 0,0 -7.5606,-25.7061 0.756,-55.1923"
         id="path1365-10"
         sodipodi:nodetypes="cc" />
      <path
         style="opacity:1;fill:none;stroke:#000000;stroke-width:8;stroke-linecap:butt;stroke-linejoin:miter;stroke-miterlimit:4;stroke-dasharray:none;stroke-opacity:1"
         d="m 4824.2642,1756.4989 c 0,0 -7.5605,-25.7061 0.756,-55.1923"
         id="path1365-4-3"
         sodipodi:nodetypes="cc" />
      <path
         style="opacity:1;fill:none;stroke:#000000;stroke-width:8;stroke-linecap:butt;stroke-linejoin:miter;stroke-miterlimit:4;stroke-dasharray:none;stroke-opacity:1"
         d="m 4856.775,1754.2307 c 0,0 -7.5606,-25.7061 0.756,-55.1923"
         id="path1365-1-3"
         sodipodi:nodetypes="cc" />
      <path
         style="fill:none;stroke:#000000;stroke-width:8;stroke-linecap:butt;stroke-linejoin:miter;stroke-miterlimit:4;stroke-dasharray:none;stroke-opacity:1"
         d="m 5414.577,955.89097 c 0,0 -54.5307,60.94603 -65.223,136.86133 -16.0384,138.9998 -4.2769,287.6227 -26.7307,352.8457 -22.4538,21.3845 -120.8188,68.0045 -208.4997,67.3614 -63.4283,-0.4652 -182.8383,-36.3538 -211.7074,-74.846 -20.3154,-57.7384 -14.9693,-291.8996 -25.6615,-338.9457 -19.2462,-100.50752 -66.2923,-146.48444 -66.2923,-146.48444"
         id="path1421"
         sodipodi:nodetypes="cccsccc" />
      <path
         style="fill:none;stroke:#000000;stroke-width:8;stroke-linecap:butt;stroke-linejoin:miter;stroke-miterlimit:4;stroke-dasharray:none;stroke-opacity:1"
         d="m 5302.8425,873.02569 c 0,0 -39.0268,299.91881 -189.7882,479.54931 -165.7305,-235.2304 -190.8574,-482.757 -190.8574,-482.757"
         id="path1423"
         sodipodi:nodetypes="ccc" />
      <path
         style="fill:none;stroke:#000000;stroke-width:8;stroke-linecap:butt;stroke-linejoin:miter;stroke-miterlimit:4;stroke-dasharray:none;stroke-opacity:1"
         d="m 5095.8394,899.71052 c 0,0 -3.0242,50.65597 1.5122,54.43627 4.5363,3.7803 15.8772,1.13409 15.8772,1.13409 3.0242,6.04847 -2.2682,333.04412 -2.2682,333.04412"
         id="path1425"
         sodipodi:nodetypes="cccc" />
      <circle
         style="fill:none;fill-opacity:1;stroke:#000000;stroke-width:8;stroke-miterlimit:4;stroke-dasharray:none;stroke-opacity:1"
         id="path1429"
         cx="5139.7852"
         cy="929.16022"
         r="11.226908" />
      <circle
         style="opacity:1;fill:none;fill-opacity:1;stroke:#000000;stroke-width:8;stroke-miterlimit:4;stroke-dasharray:none;stroke-opacity:1"
         id="path1429-8"
         cx="5139.7852"
         cy="1030.2024"
         r="11.226908" />
      <circle
         style="opacity:1;fill:none;fill-opacity:1;stroke:#000000;stroke-width:8;stroke-miterlimit:4;stroke-dasharray:none;stroke-opacity:1"
         id="path1429-3"
         cx="5139.7852"
         cy="1122.6908"
         r="11.226908" />
      <path
         style="fill:none;stroke:#000000;stroke-width:8;stroke-linecap:butt;stroke-linejoin:miter;stroke-miterlimit:4;stroke-dasharray:none;stroke-opacity:1"
         d="m 5288.4079,1469.121 c 0,0 8.5539,9.6231 9.6231,14.9692 1.0692,5.3462 -5.8807,36.3538 -4.8115,42.7692 1.0692,6.4153 38.5839,160.0804 39.34,217.4964 1.8253,325.6721 -43.0823,652.8562 -52.7054,821.7944"
         id="path1452"
         sodipodi:nodetypes="csscc" />
      <path
         style="opacity:1;fill:none;stroke:#000000;stroke-width:8;stroke-linecap:butt;stroke-linejoin:miter;stroke-miterlimit:4;stroke-dasharray:none;stroke-opacity:1"
         d="m 4937.6236,1468.5107 c 0,0 -8.5539,9.6231 -9.6231,14.9692 -1.0692,5.3462 5.8807,36.3538 4.8115,42.7692 -1.0692,6.4153 -38.5839,160.0804 -39.34,217.4964 -1.8253,325.6721 43.0823,652.8562 52.7054,821.7944"
         id="path1452-3"
         sodipodi:nodetypes="csscc" />
      <path
         style="fill:none;stroke:#000000;stroke-width:8;stroke-linecap:butt;stroke-linejoin:miter;stroke-miterlimit:4;stroke-dasharray:none;stroke-opacity:1"
         d="m 5060.6621,1848.6974 c 0,0 87.6768,-38.4923 115.4768,-40.6307"
         id="path1469" />
      <path
         style="fill:none;stroke:#000000;stroke-width:8;stroke-linecap:butt;stroke-linejoin:miter;stroke-miterlimit:4;stroke-dasharray:none;stroke-opacity:1"
         d="m 5114.1235,1827.3128 c 0,0 -0.4177,369.9938 3.2078,405.2379 5.8528,56.8958 3.2076,327.1842 -1.0693,342.1534"
         id="path1471"
         sodipodi:nodetypes="csc" />
      <path
         style="opacity:1;fill:none;stroke:#000000;stroke-width:8;stroke-linecap:butt;stroke-linejoin:miter;stroke-miterlimit:4;stroke-dasharray:none;stroke-opacity:1"
         d="m 5114.1235,1827.3128 c 0,0 0.4177,369.9938 -3.2078,405.2379 -5.8528,56.8958 -3.2076,327.1842 1.0693,342.1534"
         id="path1471-6"
         sodipodi:nodetypes="csc" />
      <path
         style="fill:none;stroke:#000000;stroke-width:8;stroke-linecap:round;stroke-linejoin:miter;stroke-miterlimit:4;stroke-dasharray:none;stroke-opacity:1"
         d="m 5356.6799,1754.0575 c -5.2924,9.8288 -4.5364,42.3393 1.5121,56.7045 2.2682,15.8772 0,48.3877 8.3166,65.7771 9.8289,15.8772 23.4379,17.3894 33.2667,6.0485 3.7803,-12.097 -3.3375,-45.8982 0.4429,-70.0921"
         id="path1488"
         sodipodi:nodetypes="ccccc" />
      <path
         style="fill:none;stroke:#000000;stroke-width:8;stroke-linecap:butt;stroke-linejoin:miter;stroke-miterlimit:4;stroke-dasharray:none;stroke-opacity:1"
         d="m 5361.9723,1866.7103 c -22.6818,14.3652 -11.3409,49.1439 0.7561,52.9242 37.0468,6.0485 68.0453,-12.853 76.3619,-49.9 0.7561,-28.7302 0.7561,-109.6285 0.7561,-109.6285"
         id="path1490"
         sodipodi:nodetypes="cccc" />
      <path
         style="fill:none;stroke:#000000;stroke-width:8;stroke-linecap:butt;stroke-linejoin:miter;stroke-miterlimit:4;stroke-dasharray:none;stroke-opacity:1"
         d="m 5332.2464,1788.2859 c 0,0 0.5345,61.4808 31.0076,67.8961"
         id="path1492"
         sodipodi:nodetypes="cc" />
      <path
         style="fill:none;stroke:#000000;stroke-width:8;stroke-linecap:butt;stroke-linejoin:miter;stroke-miterlimit:4;stroke-dasharray:none;stroke-opacity:1"
         d="m 5363.254,1856.182 c -33.1461,3.2076 -32.0769,19.2461 -32.0769,29.4038 0,10.1577 -0.01,25.8281 22.9884,26.7307"
         id="path1494"
         sodipodi:nodetypes="csc" />
      <path
         style="opacity:1;fill:none;stroke:#000000;stroke-width:8;stroke-linecap:round;stroke-linejoin:miter;stroke-miterlimit:4;stroke-dasharray:none;stroke-opacity:1"
         d="m 4868.3623,1752.3831 c 5.2924,9.8288 4.5364,42.3393 -1.5121,56.7045 -2.2682,15.8772 0,48.3877 -8.3166,65.7771 -9.8289,15.8772 -23.4379,17.3894 -33.2667,6.0485 -3.7803,-12.097 3.3375,-45.8982 -0.4429,-70.0921"
         id="path1488-7"
         sodipodi:nodetypes="ccccc" />
      <path
         style="opacity:1;fill:none;stroke:#000000;stroke-width:8;stroke-linecap:butt;stroke-linejoin:miter;stroke-miterlimit:4;stroke-dasharray:none;stroke-opacity:1"
         d="m 4863.0699,1865.0359 c 22.6818,14.3652 11.3409,49.1439 -0.7561,52.9242 -37.0468,6.0485 -68.0453,-12.853 -76.3619,-49.9 -0.7561,-28.7302 -0.7561,-109.6285 -0.7561,-109.6285"
         id="path1490-1"
         sodipodi:nodetypes="cccc" />
      <path
         style="opacity:1;fill:none;stroke:#000000;stroke-width:8;stroke-linecap:butt;stroke-linejoin:miter;stroke-miterlimit:4;stroke-dasharray:none;stroke-opacity:1"
         d="m 4892.7958,1786.6115 c 0,0 -0.5345,61.4808 -31.0076,67.8961"
         id="path1492-2"
         sodipodi:nodetypes="cc" />
      <path
         style="opacity:1;fill:none;stroke:#000000;stroke-width:8;stroke-linecap:butt;stroke-linejoin:miter;stroke-miterlimit:4;stroke-dasharray:none;stroke-opacity:1"
         d="m 4861.7882,1854.5076 c 33.1461,3.2076 32.0769,19.2461 32.0769,29.4038 0,10.1577 0.01,25.8281 -22.9884,26.7307"
         id="path1494-4"
         sodipodi:nodetypes="csc" />
      <path
         style="fill:none;stroke:#000000;stroke-width:8;stroke-linecap:butt;stroke-linejoin:miter;stroke-miterlimit:4;stroke-dasharray:none;stroke-opacity:1"
         d="m 4931.7746,1524.2155 c 120.9694,44.6075 268.401,37.0468 362.1524,0.756"
         id="path1852"
         sodipodi:nodetypes="cc" />
      <path
         style="fill:none;stroke:#000000;stroke-width:8;stroke-linecap:butt;stroke-linejoin:miter;stroke-miterlimit:4;stroke-dasharray:none;stroke-opacity:1"
         d="m 5110.2046,1512.8746 c 0,0 1.5121,263.1086 2.2681,266.1328 0.7561,3.0243 15.1212,18.1455 14.3652,22.6818 -0.7561,4.5364 -12.7144,25.6236 -12.7144,25.6236"
         id="path1854" />
      <path
         style="fill:none;stroke:#000000;stroke-width:8;stroke-linecap:butt;stroke-linejoin:miter;stroke-miterlimit:4;stroke-dasharray:none;stroke-opacity:1"
         d="m 5146.4954,1555.2139 c 0,0 5.2924,191.283 0,194.3072 -4.5363,11.341 -33.2666,30.2424 -33.2666,30.2424"
         id="path1856"
         sodipodi:nodetypes="ccc" />
      <circle
         style="fill:none;fill-opacity:1;stroke:#000000;stroke-width:6.89861;stroke-linecap:round;stroke-miterlimit:4;stroke-dasharray:none;stroke-opacity:1"
         id="path1858"
         cx="5132.5083"
         cy="1533.6661"
         r="10.757495" />
      <path
         style="fill:none;stroke:#000000;stroke-width:8;stroke-linecap:round;stroke-linejoin:miter;stroke-miterlimit:4;stroke-dasharray:none;stroke-opacity:1"
         d="m 5195.385,1551.4517 50.2538,234.1612 2.1384,310.0765"
         id="path1860" />
      <path
         style="fill:none;stroke:#000000;stroke-width:8;stroke-linecap:butt;stroke-linejoin:miter;stroke-miterlimit:4;stroke-dasharray:none;stroke-opacity:1"
         d="m 5264.8849,1539.6901 51.323,140.0691 16.3516,64.5966"
         id="path1862" />
      <path
         style="opacity:1;fill:none;stroke:#000000;stroke-width:8;stroke-linecap:round;stroke-linejoin:miter;stroke-miterlimit:4;stroke-dasharray:none;stroke-opacity:1"
         d="m 5029.6544,1548.2441 -50.2538,234.1612 -2.1384,310.0765"
         id="path1860-5" />
      <path
         style="opacity:1;fill:none;stroke:#000000;stroke-width:8;stroke-linecap:butt;stroke-linejoin:miter;stroke-miterlimit:4;stroke-dasharray:none;stroke-opacity:1"
         d="m 4960.1545,1536.4825 -51.323,140.0691 -16.3516,64.5966"
         id="path1862-5" />
      <path
         style="fill:none;stroke:#000000;stroke-width:8;stroke-linecap:butt;stroke-linejoin:miter;stroke-miterlimit:4;stroke-dasharray:none;stroke-opacity:1"
         d="m 5261.4164,491.43852 c 71.0696,-62.75292 76.362,78.63016 30.2424,99.04376 -16.6333,8.31666 -27.9742,7.5606 -36.2909,2.26818"
         id="path1882"
         sodipodi:nodetypes="ccc" />
      <path
         style="fill:none;stroke:#000000;stroke-width:8;stroke-linecap:butt;stroke-linejoin:miter;stroke-miterlimit:4;stroke-dasharray:none;stroke-opacity:1"
         d="m 5304.5118,510.34 c 0,0 -6.5994,-15.61657 -18.9015,-12.09695 -4.4095,3.2732 -5.1438,27.37989 -3.7803,37.80297 21.1696,4.53635 6.0485,39.31508 -5.2924,43.85143"
         id="path1884"
         sodipodi:nodetypes="cccc" />
      <path
         style="opacity:1;fill:none;stroke:#000000;stroke-width:8;stroke-linecap:butt;stroke-linejoin:miter;stroke-miterlimit:4;stroke-dasharray:none;stroke-opacity:1"
         d="m 4968.391,491.4021 c -71.0696,-62.75292 -76.362,78.63016 -30.2424,99.04376 16.6333,8.31666 27.9742,7.5606 36.2909,2.26818"
         id="path1882-3"
         sodipodi:nodetypes="ccc" />
      <path
         style="opacity:1;fill:none;stroke:#000000;stroke-width:8;stroke-linecap:butt;stroke-linejoin:miter;stroke-miterlimit:4;stroke-dasharray:none;stroke-opacity:1"
         d="m 4925.2956,510.30358 c 0,0 6.5994,-15.61657 18.9015,-12.09695 4.4095,3.2732 5.1438,27.37989 3.7803,37.80297 -21.1696,4.53635 -6.0485,39.31508 5.2924,43.85143"
         id="path1884-6"
         sodipodi:nodetypes="cccc" />
      <path
         style="fill:none;stroke:#000000;stroke-width:8;stroke-linecap:butt;stroke-linejoin:miter;stroke-miterlimit:4;stroke-dasharray:none;stroke-opacity:1"
         d="m 5110.9606,500.29153 -0.756,70.31351 c 0,0 -28.7303,25.70601 -26.4621,32.51055 2.2682,6.80453 29.4863,14.36512 29.4863,14.36512"
         id="path1904" />
      <path
         style="fill:none;stroke:#000000;stroke-width:8;stroke-linecap:butt;stroke-linejoin:miter;stroke-miterlimit:4;stroke-dasharray:none;stroke-opacity:1"
         d="m 5052.7441,637.89431 c 15.1211,20.41361 102.068,20.41361 123.9937,0.75606"
         id="path1906"
         sodipodi:nodetypes="cc" />
      <path
         style="fill:none;stroke:#000000;stroke-width:8;stroke-linecap:butt;stroke-linejoin:miter;stroke-miterlimit:4;stroke-dasharray:none;stroke-opacity:1"
         d="m 5146.7151,500.73094 c 0,0 30.9984,-12.85301 87.7029,-9.07271"
         id="path1908"
         sodipodi:nodetypes="cc" />
      <circle
         style="fill:#000000;fill-opacity:1;stroke:#000000;stroke-width:8;stroke-linecap:round;stroke-miterlimit:4;stroke-dasharray:none;stroke-opacity:1"
         id="path1910"
         cx="5184.416"
         cy="506.53775"
         r="12.296137" />
      <ellipse
         style="fill:#d8cdc7;fill-opacity:1;stroke:#d8cdc7;stroke-width:4.54262;stroke-linecap:round;stroke-miterlimit:4;stroke-dasharray:none;stroke-opacity:1"
         id="path1912"
         cx="5182.5444"
         cy="505.3349"
         rx="1.4613822"
         ry="2.6642654" />
      <path
         style="fill:none;stroke:#000000;stroke-width:8;stroke-linecap:butt;stroke-linejoin:miter;stroke-miterlimit:4;stroke-dasharray:none;stroke-opacity:1"
         d="m 5149.1312,455.21475 c 27.8,-24.05766 73.7769,-12.83076 83.9345,1.06923"
         id="path1914"
         sodipodi:nodetypes="cc" />
      <path
         style="opacity:1;fill:none;stroke:#000000;stroke-width:8;stroke-linecap:butt;stroke-linejoin:miter;stroke-miterlimit:4;stroke-dasharray:none;stroke-opacity:1"
         d="m 5083.0439,500.00826 c 0,0 -30.9984,-12.85301 -87.7029,-9.07271"
         id="path1908-0"
         sodipodi:nodetypes="cc" />
      <circle
         style="opacity:1;fill:#000000;fill-opacity:1;stroke:#000000;stroke-width:8;stroke-linecap:round;stroke-miterlimit:4;stroke-dasharray:none;stroke-opacity:1"
         id="path1910-8"
         cx="-5045.3428"
         cy="505.81509"
         r="12.296137"
         transform="scale(-1,1)" />
      <ellipse
         style="opacity:1;fill:#d8cdc7;fill-opacity:1;stroke:#d8cdc7;stroke-width:4.54262;stroke-linecap:round;stroke-miterlimit:4;stroke-dasharray:none;stroke-opacity:1"
         id="path1912-5"
         cx="-5047.2144"
         cy="504.61221"
         rx="1.4613822"
         ry="2.6642654"
         transform="scale(-1,1)" />
      <path
         style="opacity:1;fill:none;stroke:#000000;stroke-width:8;stroke-linecap:butt;stroke-linejoin:miter;stroke-miterlimit:4;stroke-dasharray:none;stroke-opacity:1"
         d="m 5080.6278,454.49207 c -27.8,-24.05766 -73.7769,-12.83076 -83.9345,1.06923"
         id="path1914-1"
         sodipodi:nodetypes="cc" />
      <path
         style="fill:none;stroke:#000000;stroke-width:8;stroke-linecap:butt;stroke-linejoin:miter;stroke-miterlimit:4;stroke-dasharray:none;stroke-opacity:1"
         d="m 4956.8162,481.57175 c 0,0 -29.0814,-71.78763 -25.7977,-86.15276 -24.5163,-18.64204 -2.9862,-58.16282 15.1212,-59.72868 -15.0387,-33.10811 4.5364,-44.60749 15.1212,-39.31508 -2.246,-60.46518 65.8688,-70.44323 76.362,-63.50898 6.7508,-17.65802 33.2666,-23.43783 41.5832,-19.65754 4.5744,-4.77353 20.1385,-6.04847 27.2182,0 40.2257,-27.63224 63.5089,0 65.7771,8.31665 17.2374,3.50513 22.6818,14.36513 23.4379,20.4136 14.656,-0.90151 30.9984,1.51212 31.7544,12.09695 41.9214,-23.09589 49.8463,48.09688 48.3878,75.60593 27.9455,5.05524 42.3394,48.38779 35.5348,57.4605 -6.8045,16.55731 -30.7769,91.35346 -30.7769,91.35346"
         id="path1940"
         sodipodi:nodetypes="ccccccccccccc" />
      <path
         style="fill:none;stroke:#000000;stroke-width:8;stroke-linecap:round;stroke-linejoin:miter;stroke-miterlimit:4;stroke-dasharray:none;stroke-opacity:1"
         d="m 4946.1397,335.69031 c 0,0 -27.5962,-8.31664 -37.0469,30.99843"
         id="path1946"
         sodipodi:nodetypes="cc" />
      <path
         style="fill:none;stroke:#000000;stroke-width:8;stroke-linecap:round;stroke-linejoin:miter;stroke-miterlimit:4;stroke-dasharray:none;stroke-opacity:1"
         d="m 4961.2609,296.37523 c 0,0 -24.95,-36.29084 35.5347,-70.69153"
         id="path1948"
         sodipodi:nodetypes="cc" />
      <path
         style="fill:none;stroke:#000000;stroke-width:8;stroke-linecap:round;stroke-linejoin:miter;stroke-miterlimit:4;stroke-dasharray:none;stroke-opacity:1"
         d="m 5037.6229,232.86625 c 0,0 -3.0243,-31.37645 35.9128,-32.51055"
         id="path1950"
         sodipodi:nodetypes="cc" />
      <path
         style="fill:none;stroke:#000000;stroke-width:8;stroke-linecap:round;stroke-linejoin:miter;stroke-miterlimit:4;stroke-dasharray:none;stroke-opacity:1"
         d="m 5172.2014,221.52536 c 0,0 9.0727,-26.8401 -27.2181,-30.6204"
         id="path1952"
         sodipodi:nodetypes="cc" />
      <path
         style="fill:none;stroke:#000000;stroke-width:8;stroke-linecap:round;stroke-linejoin:miter;stroke-miterlimit:4;stroke-dasharray:none;stroke-opacity:1"
         d="m 5275.7815,329.64184 c 0,0 17.7674,-46.49765 -6.0484,-72.95972"
         id="path1954"
         sodipodi:nodetypes="cc" />
      <path
         style="fill:none;stroke:#000000;stroke-width:8;stroke-linecap:round;stroke-linejoin:miter;stroke-miterlimit:4;stroke-dasharray:none;stroke-opacity:1"
         d="m 5275.7815,329.64184 c 0,0 29.1083,-7.56059 44.6075,36.29084"
         id="path1956"
         sodipodi:nodetypes="cc" />
      <path
         style="fill:none;stroke:#b27048;stroke-width:8;stroke-linecap:round;stroke-linejoin:round;stroke-miterlimit:4;stroke-dasharray:none;stroke-opacity:1"
         d="m 5003.831,582.39752 c 4.4559,-35.42379 74.077,-69.47649 27.9425,-8.99211 46.0919,-53.99917 46.945,-14.69906 30.5021,-3.91471"
         id="path2296"
         sodipodi:nodetypes="ccc" />
      <path
         style="opacity:1;fill:none;stroke:#b27048;stroke-width:8;stroke-linecap:round;stroke-linejoin:round;stroke-miterlimit:4;stroke-dasharray:none;stroke-opacity:1"
         d="m 5162.871,574.44723 c 4.4559,-35.42379 74.077,-69.47649 27.9425,-8.99211 46.0919,-53.99917 46.945,-14.69906 30.5021,-3.91471"
         id="path2296-3"
         sodipodi:nodetypes="ccc" />
    </g>
  </g>
</svg>
