<?xml version="1.0" encoding="UTF-8" standalone="no"?>
<svg
   xmlns:dc="http://purl.org/dc/elements/1.1/"
   xmlns:cc="http://creativecommons.org/ns#"
   xmlns:rdf="http://www.w3.org/1999/02/22-rdf-syntax-ns#"
   xmlns:svg="http://www.w3.org/2000/svg"
   xmlns="http://www.w3.org/2000/svg"
   xmlns:sodipodi="http://sodipodi.sourceforge.net/DTD/sodipodi-0.dtd"
   xmlns:inkscape="http://www.inkscape.org/namespaces/inkscape"
   width="440"
   height="600"
   viewBox="0 0 116.41666 158.75"
   version="1.1"
   id="svg898"
   sodipodi:docname="citoyen3.svg"
   inkscape:version="1.0.1 (3bc2e813f5, 2020-09-07)">
  <defs
     id="defs892" />
  <sodipodi:namedview
     id="base"
     pagecolor="#ffffff"
     bordercolor="#666666"
     borderopacity="1.0"
     inkscape:pageopacity="0.0"
     inkscape:pageshadow="2"
     inkscape:zoom="0.42880795"
     inkscape:cx="537.79288"
     inkscape:cy="308.97524"
     inkscape:document-units="mm"
     inkscape:current-layer="layer2"
     inkscape:document-rotation="0"
     showgrid="false"
     units="px"
     inkscape:window-width="1920"
     inkscape:window-height="1137"
     inkscape:window-x="-8"
     inkscape:window-y="-8"
     inkscape:window-maximized="1" />
  <metadata
     id="metadata895">
    <rdf:RDF>
      <cc:Work
         rdf:about="">
        <dc:format>image/svg+xml</dc:format>
        <dc:type
           rdf:resource="http://purl.org/dc/dcmitype/StillImage" />
        <dc:title></dc:title>
      </cc:Work>
    </rdf:RDF>
  </metadata>
  <g
     inkscape:groupmode="layer"
     id="layer2"
     inkscape:label="Calque 2"
     style="opacity:1">
    <g
       id="g2115"
       inkscape:export-xdpi="300"
       inkscape:export-ydpi="300"
       style="display:inline;opacity:1"
       transform="matrix(0.05587237,0,0,0.05587237,-165.24348,27.391683)">
      <path
         style="display:inline;fill:#b7735e;fill-opacity:1;stroke:none;stroke-width:1px;stroke-linecap:butt;stroke-linejoin:miter;stroke-opacity:1"
         d="m 3960.2384,316.78883 c -83.4378,-16.61789 -93.5029,25.83886 -105.0922,47.63173 0.1641,28.70665 -3.5433,61.95386 -15.8772,75.60593 -12.3339,13.65207 11.3656,53.72772 1.9602,60.08929 -9.4054,6.36157 -26.0311,-32.97074 -38.2511,-16.23785 -12.22,16.73289 7.8377,129.60434 47.3287,128.54481 9.7618,43.18864 12.8095,126.84529 66.5839,134.6249 0.5383,18.15027 -1.8899,60.64048 -18.9015,76.36198 0.2728,23.32665 118.3481,36.32364 140.8794,0.69498 -18.26,-19.0356 -23.5929,-60.14826 -18.9015,-76.36199 48.2482,-5.84307 67.7095,-95.98231 70.3135,-136.84673 22.6539,10.9889 71.0468,-97.57424 47.5807,-126.9069 -26.923,-5.13446 -24.8988,9.55494 -38.5031,14.59994 0,-17.10767 -70.6523,-117.67567 -111.4686,-181.52904 -10.5491,0.7438 -10.8159,-7.94171 -27.6512,-0.27105"
         id="path1515"
         sodipodi:nodetypes="ccssscccccccccc" />
      <path
         style="display:inline;fill:#000000;fill-opacity:1;stroke:none;stroke-width:1px;stroke-linecap:butt;stroke-linejoin:miter;stroke-opacity:1"
         d="m 3807.5145,567.04444 c 0,0 -21.2287,165.80294 -21.9258,189.01482 -0.6971,23.21188 10.9769,90.75998 7.0954,104.89595 -3.8815,14.13597 5.8486,12.70682 8.3167,-0.75606 2.4681,-13.46288 28.8774,-44.25942 41.5833,-57.4605 11.8584,-12.32055 56.3938,-22.94646 75.6058,-22.68178 0.1653,-13.00767 -3.2526,-23.18924 -1.2992,-33.00923 -42.5345,-15.68652 -59.3451,-89.78923 -66.5839,-134.6249 -14.0831,0.62996 -41.68,-25.87694 -42.7923,-45.3783"
         id="path1517"
         sodipodi:nodetypes="csssscccc" />
      <path
         style="display:inline;fill:#000000;fill-opacity:1;stroke:none;stroke-width:1px;stroke-linecap:butt;stroke-linejoin:miter;stroke-opacity:1"
         d="m 3841.2292,500.11578 c -12.3803,-3.01532 -21.2565,-20.47247 -38.2511,-16.23785 -16.9946,4.23462 -2.3488,-212.58062 123.9937,-211.6966 -10.0544,-67.55887 83.1805,-40.84648 126.5748,-7.38373 42.6078,22.28341 47.4056,20.11593 54.1234,34.60187 6.7178,14.48594 86.1638,262.56803 61.9968,285.7904 7.6101,58.42157 30.4518,154.58411 26.3035,182.23921 -4.1482,27.6551 -14.84,-38.70886 -27.8156,-64.29397 -12.9756,-25.58511 11.3601,169.07755 -3.7803,168.60122 -5.5707,-0.17526 -20.784,0.99303 -25.706,-9.82877 -4.922,-10.8218 -25.0085,-45.33211 -41.5833,-57.4605 -16.5748,-12.12839 -62.0625,-21.14027 -75.6058,-22.68178 -1.8102,-15.71896 -9.5107,-27.43679 -1.5122,-34.02267 44.1755,-11.47466 67.639,-82.50978 70.3135,-136.84673 17.3408,-1.04927 65.4884,-40.34489 47.5807,-126.9069 -12.0412,-11.76372 -30.0259,11.24876 -38.5031,14.59994 -8.4772,3.35118 7.7859,-2.99764 0,-17.10767 -7.7859,-14.11003 -82.0633,-104.52812 -116.4792,-170.33554 -14.3719,-1.27556 -9.4766,5.08965 -22.6406,5.64312 -75.2515,-18.02388 -102.3017,25.57224 -105.0922,47.63173 -2.7905,22.05949 -3.3829,67.61977 -15.8772,75.60593 -0.7409,16.28269 1.9602,60.08929 1.9602,60.08929 z"
         id="path1519"
         sodipodi:nodetypes="csccscsssssccccssccscc" />
      <path
         style="display:inline;fill:#d8cac6;fill-opacity:1;stroke:none;stroke-width:1px;stroke-linecap:butt;stroke-linejoin:miter;stroke-opacity:1"
         d="m 4008.1686,490.32431 c 0,0 32.9963,14.29383 64.7227,-1.15397 4.5937,-12.51453 -48.3632,-17.44346 -64.7227,1.15397 z"
         id="path1521"
         sodipodi:nodetypes="ccc" />
      <path
         style="display:inline;fill:#d8cac6;fill-opacity:1;stroke:none;stroke-width:1px;stroke-linecap:butt;stroke-linejoin:miter;stroke-opacity:1"
         d="m 3929.5004,491.63956 c 0,0 -32.9963,14.29383 -64.7227,-1.15397 -4.5937,-12.51453 48.3632,-17.44346 64.7227,1.15397 z"
         id="path1521-4"
         sodipodi:nodetypes="ccc" />
      <path
         style="display:inline;fill:#a45840;fill-opacity:1;stroke:none;stroke-width:1px;stroke-linecap:butt;stroke-linejoin:miter;stroke-opacity:1"
         d="m 3915.9108,628.20791 c 0,0 12.729,14.75057 51.8211,15.15522 45.0168,0.46597 53.7765,-16.13297 53.7765,-16.13297 z"
         id="path1538"
         sodipodi:nodetypes="cscc" />
      <path
         style="display:inline;fill:#000000;fill-opacity:1;stroke:none;stroke-width:1px;stroke-linecap:butt;stroke-linejoin:miter;stroke-opacity:1"
         d="m 3897.9892,823.40962 c -23.5094,-2.05309 -39.3569,13.37242 -54.94,26.40099 -15.5831,13.02857 95.643,301.72599 84.9695,338.51819 -10.6735,36.7922 -7.908,295.3674 -7.908,317.4915 0,22.1241 26.2611,171.1117 25.3453,322.5618 17.1726,-1.0797 35.3321,0.3965 51.3229,3.2076 -0.1421,-59.7653 4.9144,-292.5833 22.8902,-328.5349 4.7761,-40.3515 -14.6544,-281.729 -8.0186,-313.0175 12.9912,-80.1763 79.6578,-271.22705 84.6786,-337.95851 -18.9343,-24.19909 -44.4486,-22.04121 -57.4605,-27.97419 -26.7004,16.5554 -114.6045,33.16148 -140.8794,-0.69498 z"
         id="path1540"
         sodipodi:nodetypes="csssccccccc" />
      <path
         style="display:inline;fill:#3e2a33;fill-opacity:1;stroke:none;stroke-width:1px;stroke-linecap:butt;stroke-linejoin:miter;stroke-opacity:1"
         d="m 3918.1899,780.05687 c -20.8565,-2.74124 -64.8455,9.97234 -75.6058,22.68178 -10.7603,12.70944 -25.0116,38.50491 -41.5833,57.4605 -35.7325,12.91588 -140.6404,90.59307 -159.5285,111.89676 -2.7551,14.4594 3.9488,25.23087 -4.5364,34.02259 -109.4263,107.6587 -137.7345,319.0698 -115.677,393.1509 -48.463,130.4284 -108.4346,209.5565 -34.0227,309.9843 -11.8043,57.5505 26.5396,192.6773 82.4104,201.8677 15.7709,70.0316 43.1655,84.7552 112.6529,65.7772 60.4994,2.4547 192.0547,24.386 234.3784,12.0969 47.8547,-77.9699 26.6101,-436.3198 5.0994,-481.2965 -6.9917,-57.4216 8.5717,-290.6594 6.2414,-319.3702 -1.6389,-84.7124 -106.9878,-311.97772 -84.9695,-338.51819 22.0183,-26.54047 37.9962,-17.46171 54.94,-26.40099 16.9438,-8.93928 20.5243,-29.8562 20.2007,-43.35275 z"
         id="path1542"
         sodipodi:nodetypes="ccccccccccccssc" />
      <path
         style="display:inline;fill:#3e2a33;fill-opacity:1;stroke:none;stroke-width:1px;stroke-linecap:butt;stroke-linejoin:miter;stroke-opacity:1"
         d="m 4021.4793,781.76532 c 20.8565,-2.74124 64.8455,9.97234 75.6058,22.68178 10.7603,12.70944 25.0116,38.50491 41.5833,57.4605 35.7325,12.91588 140.6404,90.59303 159.5285,111.89673 2.7551,14.4594 -3.9488,25.2309 4.5364,34.02257 109.4263,107.6587 137.7345,319.0698 115.677,393.1509 48.463,130.4284 108.4346,209.5565 34.0227,309.9843 11.8043,57.5505 -26.5396,192.6774 -82.4104,201.8678 -15.7709,70.0316 -43.1655,84.7552 -112.6529,65.7772 -60.4994,2.4547 -192.0547,24.386 -234.3784,12.0969 -47.8547,-77.9699 -26.6101,-436.3199 -5.0994,-481.2966 6.9917,-57.4216 -8.5717,-290.6594 -6.2414,-319.3702 1.6389,-84.7124 106.9878,-311.97767 84.9695,-338.51814 -22.0183,-26.54047 -37.9962,-17.46171 -54.94,-26.40099 -16.9438,-8.93928 -20.5243,-29.8562 -20.2007,-43.35275 z"
         id="path1542-1"
         sodipodi:nodetypes="ccccccccccccssc" />
      <path
         style="display:inline;fill:#8d9cb0;fill-opacity:1;stroke:none;stroke-width:1px;stroke-linecap:butt;stroke-linejoin:miter;stroke-opacity:1"
         d="m 3945.456,1828.3821 c -8.0346,26.4201 -9.4337,151.0766 -28.7781,160.6134 -19.3444,9.5368 -195.6246,-5.5919 -209.66,-8.7829 -14.0354,-3.191 21.3023,447.5959 13.8999,471.5301 -29.8908,84.555 6.5386,170.1369 23.5231,208.4997 43.3839,14.8967 169.3968,-6.2108 180.6998,-23.5231 -4.3411,-164.9534 15.2102,-693.8143 23.523,-704.622 9.6956,3.7112 23.9608,-2.4555 38.4922,0 2.0866,15.5917 30.4762,624.1589 24.5923,704.6221 12.6935,18.8646 176.0229,33.807 181.8326,21.0273 59.6557,-131.2264 24.5453,-164.5312 23.5231,-208.4997 -1.0222,-43.9685 29.7997,-451.2797 13.8999,-471.5301 -27.6532,8.7875 -180.1589,18.4712 -208.0125,12.9871 -25.7794,-62.177 -26.637,-141.3102 -26.2124,-159.1143 -13.403,-12.9645 -51.3229,-3.2076 -51.3229,-3.2076 z"
         id="path1559"
         sodipodi:nodetypes="cssccccccsscccc" />
      <path
         style="fill:none;stroke:#000000;stroke-width:8;stroke-linecap:butt;stroke-linejoin:miter;stroke-miterlimit:4;stroke-dasharray:none;stroke-opacity:1"
         d="m 4099.3582,481.48125 c 0,0 -5.3882,213.72839 -55.0761,255.14746 -44.0677,25.24072 -92.9975,22.20238 -136.7609,6.86522 -66.943,-22.67836 -66.292,-243.37815 -66.292,-243.37815 0,0 -5.0632,-40.23679 -1.9602,-60.08929 17.1986,-31.71931 17.4944,-57.68828 15.8772,-75.60593 18.0385,-65.02067 80.1423,-56.70444 105.0922,-47.63173 22.6406,-5.64312 22.6406,-5.64312 22.6406,-5.64312"
         id="path2569"
         sodipodi:nodetypes="cccccccc" />
      <path
         style="fill:none;stroke:#000000;stroke-width:8;stroke-linecap:butt;stroke-linejoin:miter;stroke-miterlimit:4;stroke-dasharray:none;stroke-opacity:1"
         d="m 3982.0706,586.50041 c 0,0 -36.7054,3.20636 -49.1019,-2.63229 -2.6225,-22.89769 19.3636,-67.36 19.3636,-67.36"
         id="path2571"
         sodipodi:nodetypes="ccc" />
      <path
         style="fill:none;stroke:#000000;stroke-width:8;stroke-linecap:butt;stroke-linejoin:miter;stroke-miterlimit:4;stroke-dasharray:none;stroke-opacity:1"
         d="m 4019.9671,747.74261 c 0,0 -6.0485,74.09381 18.9015,76.36199"
         id="path270"
         sodipodi:nodetypes="cc" />
      <path
         style="opacity:1;fill:none;stroke:#000000;stroke-width:8;stroke-linecap:butt;stroke-linejoin:miter;stroke-miterlimit:4;stroke-dasharray:none;stroke-opacity:1"
         d="m 3916.8907,747.04764 c 0,0 6.0485,74.0938 -18.9015,76.36198"
         id="path270-8"
         sodipodi:nodetypes="cc" />
      <path
         style="fill:none;stroke:#000000;stroke-width:8;stroke-linecap:butt;stroke-linejoin:miter;stroke-miterlimit:4;stroke-dasharray:none;stroke-opacity:1"
         d="m 3843.0492,849.81061 c 0,0 35.0301,-24.82779 54.94,-26.40099 36.5432,24.13281 101.5644,30.18129 140.8794,0.69498 35.5347,5.29242 57.4605,27.97419 57.4605,27.97419"
         id="path1110"
         sodipodi:nodetypes="cccc" />
      <path
         style="fill:none;stroke:#000000;stroke-width:8;stroke-linecap:butt;stroke-linejoin:miter;stroke-miterlimit:4;stroke-dasharray:none;stroke-opacity:1"
         d="m 4021.4793,781.76528 c 0,0 54.9206,1.2925 75.6058,22.68178 13.3547,138.15157 -74.0938,247.23134 -85.4346,385.59024 3.7803,142.1391 8.218,306.796 5.2924,324.3494 -32.5106,195.0633 -29.4864,409.0281 6.0484,476.3173 111.8968,6.0485 219.2572,-10.5848 234.3784,-12.0969 104.607,16.8523 86.259,-1.2755 112.6529,-65.7772 12.7389,-8.2475 32.5105,-17.3893 40.8271,-28.7302 8.3167,-11.3409 60.4847,-108.8725 41.5833,-173.1376 81.6544,-125.5059 12.853,-148.1876 -34.0227,-309.9843 -6.1359,-43.252 58.9726,-168.6012 -115.677,-393.1508 -5.2687,-10.06133 -1.5122,-24.1939 -4.5364,-34.02267 -15.1212,-30.99843 -153.48,-113.40889 -159.5285,-111.89677"
         id="path1112"
         sodipodi:nodetypes="cccscccsccccc" />
      <path
         style="opacity:1;fill:none;stroke:#000000;stroke-width:8;stroke-linecap:butt;stroke-linejoin:miter;stroke-miterlimit:4;stroke-dasharray:none;stroke-opacity:1"
         d="m 3918.1899,780.05687 c 0,0 -54.9206,1.2925 -75.6058,22.68178 -13.3547,138.15156 74.0938,247.23125 85.4346,385.59015 -3.7803,142.1392 -8.218,306.7961 -5.2924,324.3495 32.5106,195.0633 29.4864,409.028 -6.0484,476.3172 -111.8968,6.0485 -219.2572,-10.5848 -234.3784,-12.0969 -104.607,16.8523 -86.259,-1.2755 -112.6529,-65.7772 -12.7389,-8.2475 -32.5105,-17.3893 -40.8271,-28.7302 -8.3167,-11.3409 -60.4847,-108.8724 -41.5833,-173.1375 -81.6544,-125.5059 -12.853,-148.1876 34.0227,-309.9843 6.1359,-43.252 -58.9726,-168.6013 115.677,-393.1509 5.2687,-10.06125 1.5122,-24.19382 4.5364,-34.02259 15.1212,-30.99843 153.48,-113.40888 159.5285,-111.89676"
         id="path1112-1"
         sodipodi:nodetypes="cccscccsccccc" />
      <path
         style="fill:none;stroke:#000000;stroke-width:8;stroke-linecap:butt;stroke-linejoin:miter;stroke-miterlimit:4;stroke-dasharray:none;stroke-opacity:1"
         d="m 4097.0851,804.44706 c 0,0 80.1423,95.26343 145.9195,274.44954 -29.4863,-4.5364 -75.606,-17.3894 -112.6528,-3.0243 -35.5348,99.0438 -43.0954,151.2119 -56.7044,179.9422 -9.0728,-23.4379 -33.2667,-80.1424 -40.0713,-70.3136 -4.5363,15.1213 -2.2681,122.4816 -2.2681,122.4816"
         id="path1129"
         sodipodi:nodetypes="cccccc" />
      <path
         style="opacity:1;fill:none;stroke:#000000;stroke-width:8;stroke-linecap:butt;stroke-linejoin:miter;stroke-miterlimit:4;stroke-dasharray:none;stroke-opacity:1"
         d="m 3842.5841,802.73865 c 0,0 -80.1423,95.26343 -145.9195,274.44955 29.4863,-4.5364 75.606,-17.3894 112.6528,-3.0243 35.5348,99.0438 43.0954,151.2119 56.7044,179.9422 9.0728,-23.4379 33.2667,-80.1424 40.0713,-70.3136 4.5363,15.1213 2.2681,122.4816 2.2681,122.4816"
         id="path1129-6"
         sodipodi:nodetypes="cccccc" />
      <path
         style="fill:none;stroke:#000000;stroke-width:8;stroke-linecap:butt;stroke-linejoin:miter;stroke-miterlimit:4;stroke-dasharray:none;stroke-opacity:1"
         d="m 4251.2556,1686.1745 c 0,0 18.9643,-97.7964 55.8908,-95.9175 44.487,4.1473 145.2866,120.7051 145.2866,120.7051"
         id="path1146"
         sodipodi:nodetypes="ccc" />
      <path
         style="opacity:1;fill:none;stroke:#000000;stroke-width:8;stroke-linecap:butt;stroke-linejoin:miter;stroke-miterlimit:4;stroke-dasharray:none;stroke-opacity:1"
         d="m 3688.4136,1684.4661 c 0,0 -18.9643,-97.7964 -55.8908,-95.9175 -44.487,4.1473 -145.2866,120.7051 -145.2866,120.7051"
         id="path1146-4"
         sodipodi:nodetypes="ccc" />
      <path
         style="fill:none;stroke:#000000;stroke-width:8;stroke-linecap:butt;stroke-linejoin:miter;stroke-miterlimit:4;stroke-dasharray:none;stroke-opacity:1"
         d="m 4316.4785,1591.0131 c 0,0 9.6232,-142.2074 -3.2077,-250.1996 6.0859,-94.9487 -17.8674,-317.4043 -10.5375,-332.9865"
         id="path1163"
         sodipodi:nodetypes="ccc" />
      <path
         style="opacity:1;fill:none;stroke:#000000;stroke-width:8;stroke-linecap:butt;stroke-linejoin:miter;stroke-miterlimit:4;stroke-dasharray:none;stroke-opacity:1"
         d="m 3623.1907,1589.3046 c 0,0 -9.6232,-142.2074 3.2077,-250.1996 -6.0859,-94.9487 17.8674,-317.4043 10.5375,-332.9865"
         id="path1163-3"
         sodipodi:nodetypes="ccc" />
      <path
         style="fill:none;stroke:#000000;stroke-width:8;stroke-linecap:butt;stroke-linejoin:miter;stroke-miterlimit:4;stroke-dasharray:none;stroke-opacity:1"
         d="m 4314.3401,1258.4828 c 0,0 -174.2844,-58.8076 -184.9767,-50.2537 -17.1077,69.4999 45.1935,133.3078 90.8845,143.2767 58.8077,12.8307 94.0922,-26.7307 94.0922,-93.023 z"
         id="path1180"
         sodipodi:nodetypes="ccsc" />
      <path
         style="fill:none;fill-opacity:1;stroke:#000000;stroke-width:8;stroke-linecap:butt;stroke-linejoin:miter;stroke-miterlimit:4;stroke-dasharray:none;stroke-opacity:1"
         d="m 4129.3634,1208.2291 c -10.6923,45.9768 -29.8024,268.6373 84.4691,281.2073 110.9717,12.207 97.3,-180.6998 100.5076,-230.9536"
         id="path1184"
         sodipodi:nodetypes="csc" />
      <ellipse
         style="fill:none;fill-opacity:1;stroke-width:8;stroke-miterlimit:4;stroke-dasharray:none"
         id="path1188"
         cx="4225.5942"
         cy="1286.2828"
         rx="31.007648"
         ry="29.938419" />
      <circle
         style="fill:none;fill-opacity:1;stroke:#000000;stroke-width:8;stroke-miterlimit:4;stroke-dasharray:none;stroke-opacity:1"
         id="path1197"
         cx="4234.3101"
         cy="1320.4575"
         r="11.718919" />
      <path
         style="opacity:1;fill:none;stroke:#000000;stroke-width:8;stroke-linecap:butt;stroke-linejoin:miter;stroke-miterlimit:4;stroke-dasharray:none;stroke-opacity:1"
         d="m 3626.206,1256.3467 c 0,0 174.2844,-58.8076 184.9767,-50.2537 17.1077,69.4999 -45.1935,133.3078 -90.8845,143.2767 -58.8077,12.8307 -94.0922,-26.7307 -94.0922,-93.023 z"
         id="path1180-9"
         sodipodi:nodetypes="ccsc" />
      <path
         style="opacity:1;fill:none;fill-opacity:1;stroke:#000000;stroke-width:8;stroke-linecap:butt;stroke-linejoin:miter;stroke-miterlimit:4;stroke-dasharray:none;stroke-opacity:1"
         d="m 3811.1827,1206.093 c 10.6923,45.9768 29.8024,268.6373 -84.4691,281.2073 -110.9717,12.207 -97.3,-180.6998 -100.5076,-230.9536"
         id="path1184-9"
         sodipodi:nodetypes="csc" />
      <circle
         style="opacity:1;fill:none;fill-opacity:1;stroke:#000000;stroke-width:8;stroke-miterlimit:4;stroke-dasharray:none;stroke-opacity:1"
         id="path1197-7"
         cx="-3706.2358"
         cy="1318.3215"
         r="11.718919"
         transform="scale(-1,1)" />
      <path
         style="fill:none;stroke:#000000;stroke-width:8;stroke-linecap:butt;stroke-linejoin:miter;stroke-miterlimit:4;stroke-dasharray:none;stroke-opacity:1"
         d="m 4257.3697,1978.6071 c 0,0 19.5473,-87.1405 14.2012,-149.1558"
         id="path1220"
         sodipodi:nodetypes="cc" />
      <path
         style="opacity:1;fill:none;stroke:#000000;stroke-width:8;stroke-linecap:butt;stroke-linejoin:miter;stroke-miterlimit:4;stroke-dasharray:none;stroke-opacity:1"
         d="m 3682.2995,1976.8986 c 0,0 -19.5473,-87.1405 -14.2012,-149.1558"
         id="path1220-7"
         sodipodi:nodetypes="cc" />
      <path
         style="fill:none;stroke:#000000;stroke-width:8;stroke-linecap:butt;stroke-linejoin:miter;stroke-miterlimit:4;stroke-dasharray:none;stroke-opacity:1"
         d="m 4005.602,486.90217 c 26.4621,-15.87725 59.7287,-13.60907 67.2893,2.26817"
         id="path1237"
         sodipodi:nodetypes="cc" />
      <ellipse
         style="fill:#000000;fill-opacity:1;stroke:#000000;stroke-width:8;stroke-miterlimit:4;stroke-dasharray:none;stroke-opacity:1"
         id="path1239"
         cx="4037.7344"
         cy="485.39005"
         rx="9.4507408"
         ry="6.8045335" />
      <path
         style="fill:none;stroke:#000000;stroke-width:8;stroke-linecap:butt;stroke-linejoin:miter;stroke-miterlimit:4;stroke-dasharray:none;stroke-opacity:1"
         d="m 3993.8668,451.36738 c 0,0 53.6802,-20.4136 67.2893,-17.38936 6.8045,3.78029 12.853,12.853 12.853,12.853"
         id="path1241"
         sodipodi:nodetypes="ccc" />
      <path
         style="opacity:1;fill:none;stroke:#000000;stroke-width:8;stroke-linecap:butt;stroke-linejoin:miter;stroke-miterlimit:4;stroke-dasharray:none;stroke-opacity:1"
         d="m 3932.067,488.21742 c -26.4621,-15.87725 -59.7287,-13.60907 -67.2893,2.26817"
         id="path1237-3"
         sodipodi:nodetypes="cc" />
      <ellipse
         style="opacity:1;fill:#000000;fill-opacity:1;stroke:#000000;stroke-width:8;stroke-miterlimit:4;stroke-dasharray:none;stroke-opacity:1"
         id="path1239-7"
         cx="-3899.9346"
         cy="486.70529"
         rx="9.4507408"
         ry="6.8045335"
         transform="scale(-1,1)" />
      <path
         style="opacity:1;fill:none;stroke:#000000;stroke-width:8;stroke-linecap:butt;stroke-linejoin:miter;stroke-miterlimit:4;stroke-dasharray:none;stroke-opacity:1"
         d="m 3943.8022,452.68263 c 0,0 -53.6802,-20.4136 -67.2893,-17.38936 -6.8045,3.78029 -12.853,12.853 -12.853,12.853"
         id="path1241-1"
         sodipodi:nodetypes="ccc" />
      <path
         style="fill:none;stroke:#a45840;stroke-width:8;stroke-linecap:butt;stroke-linejoin:miter;stroke-miterlimit:4;stroke-dasharray:none;stroke-opacity:1"
         d="m 3917.8991,393.15082 c 5.2924,12.09694 35.5347,15.12119 49.1439,8.31665"
         id="path1264"
         sodipodi:nodetypes="cc" />
      <path
         style="fill:none;stroke:#000000;stroke-width:8;stroke-linecap:butt;stroke-linejoin:miter;stroke-miterlimit:4;stroke-dasharray:none;stroke-opacity:1"
         d="m 3911.8507,614.67618 c 0,0 -1.5122,12.09695 3.7802,12.85301 5.2924,0.75606 102.068,3.02424 107.3604,-0.75606 5.2925,-3.7803 2.2682,-12.85301 2.2682,-12.85301"
         id="path1266"
         sodipodi:nodetypes="cssc" />
      <path
         style="fill:none;stroke:#a45840;stroke-width:8;stroke-linecap:butt;stroke-linejoin:miter;stroke-miterlimit:4;stroke-dasharray:none;stroke-opacity:1"
         d="m 3857.1071,567.06465 c 14.3651,-58.97262 42.6236,-45.07949 18.1454,0.75606 35.2216,-56.20786 43.8514,-19.65754 31.7545,-2.26818"
         id="path1268"
         sodipodi:nodetypes="ccc" />
      <path
         style="opacity:1;fill:none;stroke:#a45840;stroke-width:8;stroke-linecap:butt;stroke-linejoin:miter;stroke-miterlimit:4;stroke-dasharray:none;stroke-opacity:1"
         d="m 4021.0118,566.48384 c 14.3651,-58.97262 42.6236,-45.07949 18.1454,0.75606 35.2216,-56.20786 43.8514,-19.65754 31.7545,-2.26818"
         id="path1268-2"
         sodipodi:nodetypes="ccc" />
      <path
         style="fill:none;stroke:#000000;stroke-width:8;stroke-linecap:butt;stroke-linejoin:miter;stroke-miterlimit:4;stroke-dasharray:none;stroke-opacity:1"
         d="m 4099.3582,498.58892 c 90.7222,-75.95179 23.433,135.7448 -9.0776,112.30696"
         id="path1285"
         sodipodi:nodetypes="cc" />
      <path
         style="fill:none;stroke:#000000;stroke-width:8;stroke-linecap:butt;stroke-linejoin:miter;stroke-miterlimit:4;stroke-dasharray:none;stroke-opacity:1"
         d="m 4105.4018,582.16563 c 0,0 9.8288,-52.92415 16.6333,-68.04533 9.2973,3.15397 10.5848,15.87724 10.5848,15.87724"
         id="path1287"
         sodipodi:nodetypes="ccc" />
      <path
         style="opacity:1;fill:none;stroke:#000000;stroke-width:8;stroke-linecap:butt;stroke-linejoin:miter;stroke-miterlimit:4;stroke-dasharray:none;stroke-opacity:1"
         d="m 3841.2292,500.11578 c -90.7222,-75.95179 -23.433,135.7448 9.0776,112.30696"
         id="path1285-9"
         sodipodi:nodetypes="cc" />
      <path
         style="opacity:1;fill:none;stroke:#000000;stroke-width:8;stroke-linecap:butt;stroke-linejoin:miter;stroke-miterlimit:4;stroke-dasharray:none;stroke-opacity:1"
         d="m 3835.1856,583.69249 c 0,0 -9.8288,-52.92415 -16.6333,-68.04533 -9.2973,3.15397 -10.5848,15.87724 -10.5848,15.87724"
         id="path1287-6"
         sodipodi:nodetypes="ccc" />
      <path
         style="fill:none;stroke:#000000;stroke-width:8;stroke-linecap:butt;stroke-linejoin:miter;stroke-miterlimit:4;stroke-dasharray:none;stroke-opacity:1"
         d="m 3925.1407,2636.7193 c 0,0 -8.5539,-322.9072 23.523,-704.622 11.7615,0 25.6615,0 38.4922,0 28.8693,391.3379 24.5923,704.6221 24.5923,704.6221"
         id="path1307"
         sodipodi:nodetypes="cccc" />
      <path
         style="fill:none;stroke:#000000;stroke-width:8;stroke-linecap:butt;stroke-linejoin:miter;stroke-miterlimit:4;stroke-dasharray:none;stroke-opacity:1"
         d="m 3744.4409,2660.2424 c -6.4154,-27.7999 -37.423,-112.2691 -37.423,-128.3075 0,-16.0385 3.6112,-38.5032 13.8999,-80.1922 2.9083,-66.3129 -19.2461,-356.0534 -13.8999,-471.5301"
         id="path1309"
         sodipodi:nodetypes="cccc" />
      <path
         style="opacity:1;fill:none;stroke:#000000;stroke-width:8;stroke-linecap:butt;stroke-linejoin:miter;stroke-miterlimit:4;stroke-dasharray:none;stroke-opacity:1"
         d="m 4193.5808,2657.7467 c 6.4154,-27.7999 37.423,-112.2691 37.423,-128.3075 0,-16.0385 -3.6112,-38.5032 -13.8999,-80.1922 -2.9083,-66.3129 19.2461,-356.0534 13.8999,-471.5301"
         id="path1309-7"
         sodipodi:nodetypes="cccc" />
      <path
         style="fill:none;stroke:#000000;stroke-width:8;stroke-linecap:butt;stroke-linejoin:miter;stroke-miterlimit:4;stroke-dasharray:none;stroke-opacity:1"
         d="m 3945.456,1828.3821 c 7.4846,-2.1385 43.8383,-1.0693 51.3229,3.2076"
         id="path1326"
         sodipodi:nodetypes="cc" />
      <path
         style="fill:none;stroke:#000000;stroke-width:12;stroke-linecap:butt;stroke-linejoin:miter;stroke-miterlimit:4;stroke-dasharray:none;stroke-opacity:1"
         d="m 3982.879,311.14571 c 6.4154,102.64602 86.8046,167.33234 116.4792,170.33554"
         id="path1328"
         sodipodi:nodetypes="cc" />
      <path
         style="fill:none;stroke:#000000;stroke-width:8;stroke-linecap:butt;stroke-linejoin:miter;stroke-miterlimit:4;stroke-dasharray:none;stroke-opacity:1"
         d="m 3982.879,311.14571 c 15.1624,26.05672 62.0478,109.7223 116.4792,170.33554"
         id="path1330"
         sodipodi:nodetypes="cc" />
      <path
         style="fill:none;stroke:#000000;stroke-width:12;stroke-linecap:butt;stroke-linejoin:miter;stroke-miterlimit:4;stroke-dasharray:none;stroke-opacity:1"
         d="m 3977.6278,229.84202 c -35.5348,-17.38937 -127.018,0.75606 -50.656,42.33931 -9.0727,-58.21656 78.6302,-48.38779 109.6286,-23.43783 40.8272,30.99842 49.9,28.73025 71.0696,50.65597 8.3166,43.09538 74.8498,171.62545 61.9968,285.7904 10.5848,64.26504 44.6076,238.15867 11.341,299.39947"
         id="path1332"
         sodipodi:nodetypes="cccccc" />
      <path
         style="fill:none;stroke:#000000;stroke-width:12;stroke-linecap:butt;stroke-linejoin:miter;stroke-miterlimit:4;stroke-dasharray:none;stroke-opacity:1"
         d="m 3926.9718,272.18133 c -37.0469,-9.82877 -136.8468,32.51056 -123.9937,211.6966"
         id="path1334"
         sodipodi:nodetypes="cc" />
      <path
         style="fill:none;stroke:#000000;stroke-width:8;stroke-linecap:butt;stroke-linejoin:miter;stroke-miterlimit:4;stroke-dasharray:none;stroke-opacity:1"
         d="m 3807.5145,567.04444 c -8.3166,83.92258 -38.5591,254.03592 -27.9742,299.39948"
         id="path1336"
         sodipodi:nodetypes="cc" />
      <path
         style="fill:none;stroke:#000000;stroke-width:8;stroke-linecap:butt;stroke-linejoin:miter;stroke-miterlimit:4;stroke-dasharray:none;stroke-opacity:1"
         d="m 3785.5887,756.05926 c 0,0 8.8984,52.53157 7.0954,104.89595"
         id="path1338"
         sodipodi:nodetypes="cc" />
      <path
         style="fill:none;stroke:#000000;stroke-width:8;stroke-linecap:butt;stroke-linejoin:miter;stroke-miterlimit:4;stroke-dasharray:none;stroke-opacity:1"
         d="m 4181.0078,884.58934 c 0,0 17.3893,-124.74978 -12.8531,-181.45423 -2.2682,34.77873 9.0727,124.74979 -3.7803,168.60122"
         id="path1340"
         sodipodi:nodetypes="ccc" />
      <path
         style="display:inline;opacity:1;fill:none;stroke:#a45840;stroke-width:8;stroke-linecap:butt;stroke-linejoin:miter;stroke-miterlimit:4;stroke-dasharray:none;stroke-opacity:1"
         d="m 4000.5995,500.80072 c 0,0 8.3854,15.57287 21.5625,13.776"
         id="path1711-9-8-7" />
      <path
         style="display:inline;opacity:1;fill:none;stroke:#a45840;stroke-width:8;stroke-linecap:butt;stroke-linejoin:miter;stroke-miterlimit:4;stroke-dasharray:none;stroke-opacity:1"
         d="m 3938.9681,501.0254 c 0,0 -8.3854,15.57287 -21.5625,13.776"
         id="path1711-9-8-7-5" />
    </g>
  </g>
</svg>
