<?xml version="1.0" encoding="UTF-8" standalone="no"?>
<svg
   xmlns:dc="http://purl.org/dc/elements/1.1/"
   xmlns:cc="http://creativecommons.org/ns#"
   xmlns:rdf="http://www.w3.org/1999/02/22-rdf-syntax-ns#"
   xmlns:svg="http://www.w3.org/2000/svg"
   xmlns="http://www.w3.org/2000/svg"
   xmlns:sodipodi="http://sodipodi.sourceforge.net/DTD/sodipodi-0.dtd"
   xmlns:inkscape="http://www.inkscape.org/namespaces/inkscape"
   width="414"
   height="600"
   viewBox="0 0 109.53749 158.75"
   version="1.1"
   id="svg898"
   inkscape:version="1.0.1 (3bc2e813f5, 2020-09-07)"
   sodipodi:docname="conferencier.svg">
  <defs
     id="defs892" />
  <sodipodi:namedview
     id="base"
     pagecolor="#ffffff"
     bordercolor="#666666"
     borderopacity="1.0"
     inkscape:pageopacity="0.0"
     inkscape:pageshadow="2"
     inkscape:zoom="0.41747165"
     inkscape:cx="1298.2822"
     inkscape:cy="342.14913"
     inkscape:document-units="mm"
     inkscape:current-layer="layer2"
     inkscape:document-rotation="0"
     showgrid="false"
     units="px"
     inkscape:window-width="1920"
     inkscape:window-height="1017"
     inkscape:window-x="-8"
     inkscape:window-y="-8"
     inkscape:window-maximized="1" />
  <metadata
     id="metadata895">
    <rdf:RDF>
      <cc:Work
         rdf:about="">
        <dc:format>image/svg+xml</dc:format>
        <dc:type
           rdf:resource="http://purl.org/dc/dcmitype/StillImage" />
        <dc:title></dc:title>
      </cc:Work>
    </rdf:RDF>
  </metadata>
  <g
     inkscape:groupmode="layer"
     id="layer2"
     inkscape:label="Calque 2"
     style="opacity:1">
    <g
       id="g1863"
       inkscape:export-filename="C:\Users\carla\Desktop\Personnages\conferencier.png"
       inkscape:export-xdpi="300"
       inkscape:export-ydpi="300"
       style="display:inline;opacity:1;stroke-width:0.888137"
       transform="matrix(0.0629189,0,0,0.06290041,77.124176,4.1289069)">
      <path
         style="display:inline;fill:#d4c8c0;fill-opacity:1;stroke:none;stroke-width:0.888137px;stroke-linecap:butt;stroke-linejoin:miter;stroke-opacity:1"
         d="m -305.13347,763.67793 h -193.4528 c 0,0 -23.4119,17.144 -41.45417,43.29658 -149.62296,54.81371 -223.48846,127.31947 -226.61616,136.33816 -33.4574,32.67736 1.0666,91.65553 -126.2049,276.36113 -11.9756,10.1332 33.1633,44.2178 32.2421,50.6662 -0.9212,6.4484 -48.8238,89.3568 -48.8238,98.5688 0,9.212 32.2422,114.2293 40.533,116.9929 119.027,21.6539 127.1901,-4.3463 137.2594,-6.4484 10.0693,-2.1021 1.7146,-7.889 10.0693,-2.1021 8.3547,5.7869 -9.1481,131.0706 -9.1481,142.125 0,11.0545 17.0047,125.9468 27.387,136.6697 10.3823,10.7229 262.26616,31.9526 273.58361,24.1014 21.73968,-18.2734 18.52677,-67.0617 27.35836,-69.6986 8.83159,-2.6369 5.14677,68.2958 20.80724,70.1382 15.66046,1.8424 259.84534,-11.4544 276.85467,-25.5331 17.00933,-14.0787 24.37896,-119.0959 26.22137,-130.1503 1.84241,-11.0545 -5.72876,-118.3827 -7.30801,-147.6523 52.48608,20.8874 126.1433,25.1322 148.25219,8.5505 22.10889,-16.5817 46.06019,-105.9384 45.13898,-115.1505 -0.9212,-9.212 -51.58741,-87.5143 -48.8238,-100.4112 19.69975,-16.8051 28.2315,-30.2281 30.69742,-50.1198 C -25.34475,1077.8673 -4.9044177,971.85499 -36.76546,943.85914 -52.07225,916.19701 -171.2656,846.46196 -190.29694,838.23328 c -19.03134,-8.22868 -52.35759,-19.65786 -73.08468,-30.7123 -5.82491,-14.36453 -29.77619,-51.21268 -41.75185,-43.84305 z"
         id="path2147"
         sodipodi:nodetypes="cccccccccccccccccccccccccc" />
      <path
         style="display:inline;fill:#b97d5c;fill-opacity:1;stroke:none;stroke-width:0.888137px;stroke-linecap:butt;stroke-linejoin:miter;stroke-opacity:1"
         d="m -248.94005,481.78958 c 0,0 -28.964,-21.62238 -60.31189,-90.95592 -5.09358,2.98095 7.00146,24.21701 3.25695,37.78058 -32.76243,-7.62412 -57.06153,-19.29842 -64.48756,-28.66113 -7.42603,-9.36271 14.5179,19.611 13.67918,33.22086 -0.83872,13.60986 -70.84781,-5.78387 -92.4973,-87.28618 -3.42504,-12.894 -24.61835,-5.27602 -28.66114,9.11945 -4.04279,14.39547 -42.2475,68.71586 -66.44172,74.2584 -8.36196,16.50073 -0.96797,41.27718 -12.21858,55.28755 -111.66179,13.08917 -14.73926,151.07741 17.50287,150.15621 4.60602,40.53297 28.55733,79.22352 42.37538,95.80519 0.79026,17.88445 -3.68482,42.37539 3.68481,53.42983 7.36963,11.05444 54.57994,38.21425 66.32667,46.98139 12.91419,9.63848 13.81807,48.82379 24.87251,59.87824 10.13324,-7.36963 13.81808,-52.50861 24.87251,-59.87824 11.05443,-7.36963 62.64183,-40.53295 70.01147,-50.6662 7.36964,-10.13325 -11.05444,-42.37538 -3.22421,-51.12682 33.62394,-26.25431 42.37537,-76.45992 48.3632,-94.88399 18.42408,-4.14541 129.88972,-131.73213 12.89685,-152.45922 z"
         id="path2098"
         sodipodi:nodetypes="cccssssccccsscssccc" />
      <path
         style="display:inline;fill:#b97d5c;fill-opacity:1;stroke:none;stroke-width:0.888137px;stroke-linecap:butt;stroke-linejoin:miter;stroke-opacity:1"
         d="m -594.98078,1317.0877 c 0,0 -245.37212,-98.3351 -248.13572,95.1177 0.9212,35.0057 26.7149,68.1691 35.927,68.1691 9.212,0 186.42544,-3.0449 200.53294,-12.5769 -20.89824,-62.0406 -13.21348,-103.9205 -1.30278,-119.8557 -12.22582,-36.1478 26.2073,-22.7971 12.97856,-30.8542"
         id="path2110"
         sodipodi:nodetypes="ccsccc" />
      <path
         style="display:inline;fill:#b97d5c;fill-opacity:1;stroke:none;stroke-width:0.888137px;stroke-linecap:butt;stroke-linejoin:miter;stroke-opacity:1"
         d="m -528.11879,1335.3483 40.58696,9.6092 c 0,0 115.15048,-43.2965 125.28372,-37.7693 10.13324,5.5272 37.44353,31.4925 46.35788,38.3157 92.74389,-11.6009 355.28697,-147.939 352.52335,74.0711 -14.73926,82.9083 -70.33736,56.3651 -108.40438,60.4247 -38.06702,4.0596 -182.92927,-18.7989 -198.0125,-17.5029 -4.94999,15.1141 -34.79453,23.3981 -51.19319,22.0197 -13.63505,11.5185 -64.30351,30.6558 -82.72646,35.8264 -26.71378,9.7766 -109.58377,-46.3242 -123.421,-62.9522 -14.75843,-0.9675 -28.39086,16.9916 -41.38053,4.3272 -12.98967,-12.6644 -18.66654,-99.5377 -2.93125,-103.0824 15.73529,-3.5447 27.68408,-18.0761 43.3174,-23.2872"
         id="path2139"
         sodipodi:nodetypes="ccsccsccccssc" />
      <path
         style="display:inline;fill:#2d2d2d;fill-opacity:1;stroke:none;stroke-width:0.888137px;stroke-linecap:butt;stroke-linejoin:miter;stroke-opacity:1"
         d="m -248.94005,481.78958 c 0,0 -75.3607,-84.89917 -60.31189,-90.95592 13.61949,-5.48149 2.39544,27.90182 3.25695,37.78058 0.86151,9.87876 -62.58876,-18.37722 -64.48756,-28.66113 -1.8988,-10.28391 10.83309,20.5322 13.67918,33.22086 2.84609,12.68866 -63.32807,-1.55614 -92.4973,-87.28618 -16.14144,-1.7008 -29.22437,-1.59121 -28.66114,9.11945 0.56323,10.71066 -55.14435,78.8491 -66.44172,74.2584 -3.4807,14.95098 -1.16414,62.65718 -12.21858,55.28755 -11.05444,-7.36963 -9.60438,8.67546 -22.30506,2.03472 -12.70068,-6.64074 -6.86812,-29.69025 -1.95417,-38.43198 4.91395,-8.74173 -32.515,-35.8642 -22.79863,-76.86395 12.97332,-17.54973 31.08175,-61.33716 46.90004,-74.90979 18.42385,-6.40735 34.21106,2.20207 51.45977,-0.65139 12.68898,-13.2757 24.58238,-46.85975 45.59726,-50.15698 21.01488,-3.29723 189.59517,34.47213 192.35878,43.68417 2.76361,9.21203 58.95704,130.81093 57.11463,143.70778 -1.84241,12.89686 -21.18769,49.74502 -38.69056,48.82381 z"
         id="path2141"
         sodipodi:nodetypes="csssscccssscccsssc" />
      <path
         style="display:inline;fill:#3f4a55;fill-opacity:1;stroke:none;stroke-width:0.888137px;stroke-linecap:butt;stroke-linejoin:miter;stroke-opacity:1"
         d="m -402.40063,1710.5487 c 0,0 -15.64571,64.653 -27.35836,69.6986 -11.71265,5.0456 -260.01461,-16.4003 -273.58361,-24.1014 -13.569,-7.7011 29.7276,740.3163 33.4124,747.686 3.6848,7.3696 23.10536,46.6938 22.60714,57.4314 -0.49822,10.7376 222.77406,35.0831 233.19742,24.7528 10.42336,-10.3303 -1.55229,-271.031 13.18697,-274.7158 14.73926,-3.6848 24.94694,268.1483 19.3825,277.3213 -5.56444,9.173 210.41089,-10.6016 220.79791,-28.3504 10.38702,-17.7488 15.91424,-47.2273 23.28387,-57.3605 7.36963,-10.1333 41.52004,-735.5206 32.73567,-747.7569 -32.73567,8.0302 -258.4306,43.9572 -274.09106,24.6119 -15.66046,-19.3453 -20.42679,-49.9984 -23.57085,-69.217 z"
         id="path2152"
         sodipodi:nodetypes="ccccccccccccc" />
      <path
         style="display:inline;fill:#434e7c;fill-opacity:1;stroke:none;stroke-width:0.888137px;stroke-linecap:butt;stroke-linejoin:miter;stroke-opacity:1"
         d="m -563.29382,809.67707 c 0,0 24.10142,207.14193 162.84736,369.33783 138.74594,-169.3613 156.70983,-351.0988 158.15012,-368.03499 20.33058,8.468 41.55142,11.72507 50.15699,21.49585 -33.73474,211.70154 -169.22375,378.45714 -178.99459,381.71414 -9.77084,3.257 -57.32227,1.3028 -57.32227,1.3028 0,0 -143.30567,-144.6085 -184.9946,-384.31978 9.77084,-15.63334 50.15699,-21.49585 50.15699,-21.49585"
         id="path2154"
         sodipodi:nodetypes="cccccccc" />
      <path
         style="display:inline;fill:#434e7c;fill-opacity:1;stroke:none;stroke-width:0.888137px;stroke-linecap:butt;stroke-linejoin:miter;stroke-opacity:1"
         d="m -444.23525,1332.0607 v -91.6598 h 81.98714 v 66.7873 c 0,0 -67.15088,9.2085 -81.98714,24.8725"
         id="path2158" />
      <path
         style="display:inline;fill:#d1cddc;fill-opacity:1;stroke:none;stroke-width:0.888137px;stroke-linecap:butt;stroke-linejoin:miter;stroke-opacity:1"
         d="m -468.64715,1338.5091 v -122.0595 h 128.96853 l -0.65139,105.7939 -21.9181,-15.0553 v -66.7873 h -81.98714 v 91.6598 z"
         id="path2161" />
      <path
         style="display:inline;fill:#d1cddc;fill-opacity:1;stroke:none;stroke-width:0.888137px;stroke-linecap:butt;stroke-linejoin:miter;stroke-opacity:1"
         d="m -543.75211,1340.5594 c 0,0 -31.27535,40.7409 -65.13895,0 -18.20314,-37.9773 84.68767,-40.0948 65.13895,0"
         id="path2163"
         sodipodi:nodetypes="ccc" />
      <path
         style="display:inline;fill:#1c1a1a;fill-opacity:1;stroke:none;stroke-width:0.888137px;stroke-linecap:butt;stroke-linejoin:miter;stroke-opacity:1"
         d="m -607.95934,1347.9419 c 0,0 4.69954,7.0962 36.52315,10.6936 -8.24478,16.6156 -14.99528,65.2697 2.93125,103.0824 -20.50544,4.2661 -38.15162,6.0797 -38.15162,6.0797 0,0 -41.79553,-99.4514 -1.30278,-119.8557"
         id="path2172"
         sodipodi:nodetypes="ccccc" />
      <path
         style="display:inline;fill:#89513c;fill-opacity:1;stroke:none;stroke-width:0.888137px;stroke-linecap:butt;stroke-linejoin:miter;stroke-opacity:1"
         d="m -450.79424,666.33866 c 0,0 69.23807,5.24385 93.33948,-1.92143 24.10141,-7.16529 -16.57688,16.91501 -44.94587,16.93612 -37.15746,0.0276 -48.39361,-15.01469 -48.39361,-15.01469 z"
         id="path2174"
         sodipodi:nodetypes="ccsc" />
      <path
         style="display:inline;fill:#d7ccc3;fill-opacity:1;stroke:none;stroke-width:0.888137px;stroke-linecap:butt;stroke-linejoin:miter;stroke-opacity:1"
         d="m -356.88853,509.36981 c 0,0 69.6858,-6.71825 70.33719,3.47088 0.65139,10.18913 -10.62097,36.10815 -41.15163,37.57857 -23.69107,1.14473 -29.18556,-41.04945 -29.18556,-41.04945 z"
         id="path2176"
         sodipodi:nodetypes="cscc" />
      <path
         style="display:inline;fill:#d7ccc3;fill-opacity:1;stroke:none;stroke-width:0.888137px;stroke-linecap:butt;stroke-linejoin:miter;stroke-opacity:1"
         d="m -449.30792,510.60789 c 0,0 -69.6858,-6.71825 -70.33719,3.47088 -0.65139,10.18913 10.62097,36.10815 41.15163,37.57857 23.69107,1.14473 29.18556,-41.04945 29.18556,-41.04945 z"
         id="path2176-7"
         sodipodi:nodetypes="cscc" />
      <path
         style="fill:none;stroke:#000000;stroke-width:7.10509;stroke-linecap:butt;stroke-linejoin:miter;stroke-miterlimit:4;stroke-dasharray:none;stroke-opacity:1"
         d="m -556.62211,484.55319 c 15.66047,141.86537 -4.58165,259.61854 152.91983,281.88835 164.97344,-23.92991 137.25936,-136.33816 154.76223,-284.65196"
         id="path1703"
         sodipodi:nodetypes="ccc" />
      <path
         style="fill:none;stroke:#000000;stroke-width:7.10509;stroke-linecap:butt;stroke-linejoin:miter;stroke-miterlimit:4;stroke-dasharray:none;stroke-opacity:1"
         d="m -539.11924,634.7094 c -37.76935,9.21204 -128.04736,-144.62899 -17.50287,-150.15621"
         id="path1708"
         sodipodi:nodetypes="cc" />
      <path
         style="fill:none;stroke:#000000;stroke-width:7.10509;stroke-linecap:butt;stroke-linejoin:miter;stroke-miterlimit:4;stroke-dasharray:none;stroke-opacity:1"
         d="m -591.62785,546.27384 c 0,0 10.13324,-44.21778 14.73926,-40.53297 4.60602,3.68482 18.42407,57.11464 15.66046,62.64186 -2.76361,5.52722 -12.89685,4.60602 -12.89685,9.21204 0,4.60602 10.13324,27.63611 15.66046,32.24213"
         id="path1710" />
      <path
         style="display:inline;opacity:1;fill:none;stroke:#000000;stroke-width:7.10509;stroke-linecap:butt;stroke-linejoin:miter;stroke-miterlimit:4;stroke-dasharray:none;stroke-opacity:1"
         d="m -266.44292,631.94579 c 37.76935,9.21204 128.04736,-144.62899 17.50287,-150.15621"
         id="path1708-3"
         sodipodi:nodetypes="cc" />
      <path
         style="display:inline;opacity:1;fill:none;stroke:#000000;stroke-width:7.10509;stroke-linecap:butt;stroke-linejoin:miter;stroke-miterlimit:4;stroke-dasharray:none;stroke-opacity:1"
         d="m -213.93431,543.51023 c 0,0 -10.13324,-44.21778 -14.73926,-40.53297 -4.60602,3.68482 -18.42407,57.11464 -15.66046,62.64186 2.76361,5.52722 12.89685,4.60602 12.89685,9.21204 0,4.60602 -10.13324,27.63611 -15.66046,32.24213"
         id="path1710-4" />
      <path
         style="fill:none;stroke:#000000;stroke-width:7.10509;stroke-linecap:butt;stroke-linejoin:miter;stroke-miterlimit:4;stroke-dasharray:none;stroke-opacity:1"
         d="m -416.59913,523.24374 c 0,0 -16.58167,61.72066 -11.05445,74.61751 5.52722,12.89685 36.84815,13.81806 36.84815,13.81806"
         id="path1731" />
      <path
         style="fill:none;stroke:#000000;stroke-width:7.10509;stroke-linecap:butt;stroke-linejoin:miter;stroke-miterlimit:4;stroke-dasharray:none;stroke-opacity:1"
         d="m -467.26534,655.89709 c 9.21204,7.36963 30.39972,14.73926 63.56306,13.81806 33.16333,-0.92121 58.03584,-3.68482 60.79945,-11.05445"
         id="path1733" />
      <path
         style="fill:none;stroke:#000000;stroke-width:7.10509;stroke-linecap:butt;stroke-linejoin:miter;stroke-miterlimit:4;stroke-dasharray:none;stroke-opacity:1"
         d="m -356.88853,509.36981 c 0,0 36.00995,-6.12273 71.96566,3.79657 4.00092,3.35912 0.65139,10.18913 0.65139,10.18913"
         id="path1735"
         sodipodi:nodetypes="ccc" />
      <ellipse
         style="fill:#000000;fill-opacity:1;stroke:#000000;stroke-width:7.10509;stroke-linecap:round;stroke-linejoin:round;stroke-miterlimit:4;stroke-dasharray:none;stroke-opacity:1"
         id="path1737"
         cx="-329.54535"
         cy="529.46185"
         rx="11.054445"
         ry="17.272572" />
      <ellipse
         style="fill:#ffffff;fill-opacity:1;stroke:#d7ccc3;stroke-width:6.11408;stroke-linecap:round;stroke-linejoin:round;stroke-miterlimit:4;stroke-dasharray:none;stroke-opacity:1"
         id="path1739"
         cx="-328.97818"
         cy="528.67981"
         rx="2.7543168"
         ry="5.3757825" />
      <path
         style="fill:none;stroke:#000000;stroke-width:7.10509;stroke-linecap:butt;stroke-linejoin:miter;stroke-miterlimit:4;stroke-dasharray:none;stroke-opacity:1"
         d="m -360.71171,469.00039 c 5.86251,-17.58751 69.69867,-24.1014 83.37785,4.55973"
         id="path1741" />
      <path
         style="display:inline;opacity:1;fill:none;stroke:#000000;stroke-width:7.10509;stroke-linecap:butt;stroke-linejoin:miter;stroke-miterlimit:4;stroke-dasharray:none;stroke-opacity:1"
         d="m -449.30792,510.60789 c 0,0 -36.00995,-6.12273 -71.96566,3.79657 -4.00092,3.35912 -0.65139,10.18913 -0.65139,10.18913"
         id="path1735-5"
         sodipodi:nodetypes="ccc" />
      <ellipse
         style="display:inline;opacity:1;fill:#000000;fill-opacity:1;stroke:#000000;stroke-width:7.10509;stroke-linecap:round;stroke-linejoin:round;stroke-miterlimit:4;stroke-dasharray:none;stroke-opacity:1"
         id="path1737-2"
         cx="476.65106"
         cy="530.69989"
         rx="11.054445"
         ry="17.272572"
         transform="scale(-1,1)" />
      <path
         style="display:inline;opacity:1;fill:none;stroke:#000000;stroke-width:7.10509;stroke-linecap:butt;stroke-linejoin:miter;stroke-miterlimit:4;stroke-dasharray:none;stroke-opacity:1"
         d="m -445.48474,470.23847 c -5.86251,-17.58751 -69.69867,-24.1014 -83.37785,4.55973"
         id="path1741-9" />
      <path
         style="fill:none;stroke:#a65d41;stroke-width:6.04254;stroke-linecap:round;stroke-linejoin:round;stroke-miterlimit:4;stroke-dasharray:none;stroke-opacity:1"
         d="m -525.72016,609.94682 c -9.00955,-34.07959 25.85349,-40.34711 21.93629,0.39172 21.15286,-56.79932 34.07961,-27.81208 24.67833,-12.53502"
         id="path1767"
         sodipodi:nodetypes="ccc" />
      <path
         style="display:inline;opacity:1;fill:none;stroke:#a65d41;stroke-width:6.04254;stroke-linecap:round;stroke-linejoin:round;stroke-miterlimit:4;stroke-dasharray:none;stroke-opacity:1"
         d="m -327.93015,612.00583 c -9.00955,-34.0796 25.85349,-40.34712 21.93629,0.39172 21.15285,-56.79932 34.0796,-27.81208 24.67833,-12.53503"
         id="path1767-6"
         sodipodi:nodetypes="ccc" />
      <path
         style="fill:none;stroke:#000000;stroke-width:7.10509;stroke-linecap:butt;stroke-linejoin:miter;stroke-miterlimit:4;stroke-dasharray:none;stroke-opacity:1"
         d="m -556.62211,484.55319 c 0,0 15.47553,-18.15835 12.21858,-55.28755 0,0 29.31253,3.90833 66.44172,-74.2584 4.55973,-12.3764 16.93613,-11.725 28.66114,-9.11945 39.73475,95.75424 83.1224,88.41375 92.4973,87.28618 0,0 -10.42223,-18.2389 -13.67918,-33.22086 50.15698,29.31253 64.48756,28.66113 64.48756,28.66113 -3.25696,-14.98195 -5.21112,-27.35835 -3.25695,-37.78058 29.96392,65.79033 44.41122,82.24925 60.31189,90.95592"
         id="path1784"
         sodipodi:nodetypes="ccccscccc" />
      <path
         style="fill:none;stroke:#000000;stroke-width:7.10509;stroke-linecap:butt;stroke-linejoin:miter;stroke-miterlimit:4;stroke-dasharray:none;stroke-opacity:1"
         d="m -578.92717,486.58791 c 0,0 -12.3764,-18.89029 -1.95417,-38.43198 -5.8625,-13.02779 -22.79863,-18.2389 -22.79863,-76.86395 3.25695,-12.3764 13.02779,-31.91808 46.90004,-74.90979 12.3764,-3.25694 42.34032,2.60556 51.45977,-0.65139 18.89029,-26.05557 29.31252,-49.50559 45.59726,-50.15698 79.46951,8.46806 180.43487,28.66113 192.15988,47.55143 11.72501,18.89029 56.67088,130.92927 54.06533,143.95706 -2.60556,13.02779 -23.45002,44.94587 -23.45002,44.94587"
         id="path1786"
         sodipodi:nodetypes="ccccccssc" />
      <path
         style="fill:none;stroke:#000000;stroke-width:7.10509;stroke-linecap:butt;stroke-linejoin:miter;stroke-miterlimit:4;stroke-dasharray:none;stroke-opacity:1"
         d="m -496.74386,730.51459 3.68481,53.42983"
         id="path1788"
         sodipodi:nodetypes="cc" />
      <path
         style="display:inline;opacity:1;fill:none;stroke:#000000;stroke-width:7.10509;stroke-linecap:butt;stroke-linejoin:miter;stroke-miterlimit:4;stroke-dasharray:none;stroke-opacity:1"
         d="m -310.2001,729.13279 3.22421,51.12682"
         id="path1788-4"
         sodipodi:nodetypes="cc" />
      <path
         style="fill:none;stroke:#000000;stroke-width:7.10509;stroke-linecap:butt;stroke-linejoin:miter;stroke-miterlimit:4;stroke-dasharray:none;stroke-opacity:1"
         d="m -498.58627,763.67793 c 0,0 0,0 -5.52722,6.44843 0.9212,8.29083 61.72065,56.19343 77.38111,60.79945 17.50288,26.71491 24.87251,59.87824 24.87251,59.87824"
         id="path1806"
         sodipodi:nodetypes="cccc" />
      <path
         style="fill:none;stroke:#000000;stroke-width:7.10509;stroke-linecap:butt;stroke-linejoin:miter;stroke-miterlimit:4;stroke-dasharray:none;stroke-opacity:1"
         d="m -432.2596,850.27109 c 0,0 -23.03009,92.12037 -34.08454,90.27797 -11.05444,-1.84241 -84.75075,-89.35677 -85.67195,-103.17483 -0.9212,-13.81805 39.61176,-81.06593 53.42982,-73.6963"
         id="path1808"
         sodipodi:nodetypes="cssc" />
      <path
         style="display:inline;opacity:1;fill:none;stroke:#000000;stroke-width:7.10509;stroke-linecap:butt;stroke-linejoin:miter;stroke-miterlimit:4;stroke-dasharray:none;stroke-opacity:1"
         d="m -305.13347,763.67793 c 0,0 0,0 5.52722,6.44843 -0.9212,8.29083 -61.72065,56.19343 -77.38111,60.79945 -17.50288,26.71491 -24.87251,59.87824 -24.87251,59.87824"
         id="path1806-5"
         sodipodi:nodetypes="cccc" />
      <path
         style="display:inline;opacity:1;fill:none;stroke:#000000;stroke-width:7.10509;stroke-linecap:butt;stroke-linejoin:miter;stroke-miterlimit:4;stroke-dasharray:none;stroke-opacity:1"
         d="m -371.46014,850.27109 c 0,0 23.03009,92.12037 34.08454,90.27797 11.05444,-1.84241 84.75075,-89.35677 85.67195,-103.17483 0.9212,-13.81805 -39.61176,-81.06593 -53.42982,-73.6963"
         id="path1808-1" />
      <path
         style="fill:none;stroke:#000000;stroke-width:7.10509;stroke-linecap:butt;stroke-linejoin:miter;stroke-miterlimit:4;stroke-dasharray:none;stroke-opacity:1"
         d="m -401.85987,890.80405 1.41341,288.21085"
         id="path1828" />
      <path
         style="fill:none;stroke:#000000;stroke-width:7.10509;stroke-linecap:butt;stroke-linejoin:miter;stroke-miterlimit:4;stroke-dasharray:none;stroke-opacity:1"
         d="m -428.45621,1215.4927 c 0,0 -122.46121,-104.8737 -184.9946,-384.31978 15.63335,-5.8625 31.26669,-11.72501 50.15699,-21.49585 10.42223,178.48071 162.19598,379.10863 192.15988,404.51283"
         id="path1832"
         sodipodi:nodetypes="cccc" />
      <path
         style="display:inline;opacity:1;fill:none;stroke:#000000;stroke-width:7.10509;stroke-linecap:butt;stroke-linejoin:miter;stroke-miterlimit:4;stroke-dasharray:none;stroke-opacity:1"
         d="m -371.13394,1214.1899 c 0,0 116.4612,-102.2681 178.99459,-381.71414 -15.63335,-5.8625 -31.26669,-11.72501 -50.15699,-21.49585 -10.42223,178.48072 -128.18622,342.63079 -158.15012,368.03499"
         id="path1832-2"
         sodipodi:nodetypes="cccc" />
      <path
         style="fill:none;stroke:#000000;stroke-width:7.10509;stroke-linecap:butt;stroke-linejoin:miter;stroke-miterlimit:4;stroke-dasharray:none;stroke-opacity:1"
         d="m -613.12512,837.68681 c 0,0 -180.24638,77.06854 -174.71918,151.68605 5.5273,74.61754 -84.7507,201.74364 -105.0172,230.30094 -7.3696,6.4484 14.7393,39.6118 27.6361,47.9026 12.8969,8.2908 -37.7693,77.3811 -43.2966,99.49 -5.5272,22.1089 28.5574,110.5445 43.2966,117.9141 14.7393,7.3696 97.6476,26.7149 133.5746,-5.5272"
         id="path1849"
         sodipodi:nodetypes="cscsssc" />
      <path
         style="fill:none;stroke:#000000;stroke-width:7.10509;stroke-linecap:butt;stroke-linejoin:miter;stroke-miterlimit:4;stroke-dasharray:none;stroke-opacity:1"
         d="m -560.76753,818.02895 20.72709,-11.05444"
         id="path1851"
         sodipodi:nodetypes="cc" />
      <path
         style="fill:none;stroke:#000000;stroke-width:7.10509;stroke-linecap:butt;stroke-linejoin:miter;stroke-miterlimit:4;stroke-dasharray:none;stroke-opacity:1"
         d="m -697.5663,1293.3701 c 0,0 -0.9212,-122.5201 -1.8424,-133.5745 -0.9212,-11.0545 -41.4542,-200.82247 -67.2479,-216.48293"
         id="path1853" />
      <path
         style="fill:none;stroke:#000000;stroke-width:7.10509;stroke-linecap:butt;stroke-linejoin:miter;stroke-miterlimit:4;stroke-dasharray:none;stroke-opacity:1"
         d="m -699.4087,1165.3228 c 0,0 -24.8725,-75.5387 -50.6662,-105.9385"
         id="path1855"
         sodipodi:nodetypes="cc" />
      <path
         style="fill:none;stroke:#000000;stroke-width:7.10509;stroke-linecap:butt;stroke-linejoin:miter;stroke-miterlimit:4;stroke-dasharray:none;stroke-opacity:1"
         d="m -731.6508,1479.4533 c 0,0 -67.2479,7.3696 -80.1448,-5.5273 -12.8968,-12.8968 -30.3997,-46.9814 -30.3997,-62.6418 0,-32.2422 20.1506,-106.3839 76.4599,-116.9929 31.7816,-5.9878 109.1492,8.6329 170.75462,22.7964 m 52.76255,13.6791 c 61.6055,14.1635 54.6864,14.1907 54.6864,14.1907"
         id="path1857"
         sodipodi:nodetypes="csssccc" />
      <path
         style="fill:none;stroke:#000000;stroke-width:7.10509;stroke-linecap:butt;stroke-linejoin:miter;stroke-miterlimit:4;stroke-dasharray:none;stroke-opacity:1"
         d="m -699.4087,1272.1824 c 0,0 -31.3755,-20.5916 -43.2966,-18.4241 -30.3997,5.5272 -89.3567,19.3453 -111.4656,72.7751"
         id="path1863"
         sodipodi:nodetypes="csc" />
      <path
         style="fill:none;stroke:#000000;stroke-width:7.10509;stroke-linecap:butt;stroke-linejoin:miter;stroke-miterlimit:4;stroke-dasharray:none;stroke-opacity:1"
         d="m -731.6508,1479.4533 c 0,0 121.61805,-9.1658 204.52639,-22.0626"
         id="path1865"
         sodipodi:nodetypes="cc" />
      <path
         style="display:inline;opacity:1;fill:none;stroke:#000000;stroke-width:7.10509;stroke-linecap:butt;stroke-linejoin:miter;stroke-miterlimit:4;stroke-dasharray:none;stroke-opacity:1"
         d="m -190.29694,838.23328 c 0,0 180.24638,77.06854 174.71918,151.68605 -5.5273,74.61757 84.75069,201.74357 105.01719,230.30087 7.3696,6.4484 -14.7393,39.6118 -27.6361,47.9026 -12.8969,8.2908 37.7693,77.3811 43.2966,99.49 5.5272,22.1089 -28.5574,110.5445 -43.2966,117.9141 -14.7393,7.3696 -97.64759,26.7149 -133.57459,-5.5272"
         id="path1849-2"
         sodipodi:nodetypes="cscsssc" />
      <path
         style="display:inline;opacity:1;fill:none;stroke:#000000;stroke-width:7.10509;stroke-linecap:butt;stroke-linejoin:miter;stroke-miterlimit:4;stroke-dasharray:none;stroke-opacity:1"
         d="m -242.65453,818.57542 -20.72709,-11.05444"
         id="path1851-3"
         sodipodi:nodetypes="cc" />
      <path
         style="display:inline;opacity:1;fill:none;stroke:#000000;stroke-width:7.10509;stroke-linecap:butt;stroke-linejoin:miter;stroke-miterlimit:4;stroke-dasharray:none;stroke-opacity:1"
         d="m -105.85576,1293.9165 c 0,0 0.9212,-122.5201 1.8424,-133.5745 0.9212,-11.0545 41.4542,-200.8224 67.2479,-216.48286"
         id="path1853-2" />
      <path
         style="display:inline;opacity:1;fill:none;stroke:#000000;stroke-width:7.10509;stroke-linecap:butt;stroke-linejoin:miter;stroke-miterlimit:4;stroke-dasharray:none;stroke-opacity:1"
         d="m -104.01335,1164.0268 c 0,0 24.87249,-73.6962 50.66619,-104.096"
         id="path1855-5"
         sodipodi:nodetypes="cc" />
      <path
         style="display:inline;opacity:1;fill:none;stroke:#000000;stroke-width:7.10509;stroke-linecap:butt;stroke-linejoin:miter;stroke-miterlimit:4;stroke-dasharray:none;stroke-opacity:1"
         d="m -71.77126,1479.9997 c 0,0 67.2479,7.3696 80.1448,-5.5273 12.89679,-12.8968 30.39969,-46.9814 30.39969,-62.6418 0,-32.2422 -20.1506,-106.3839 -76.45989,-116.9929 -63.5631,-11.9756 -278.20357,50.6662 -278.20357,50.6662"
         id="path1857-4"
         sodipodi:nodetypes="csssc" />
      <path
         style="display:inline;opacity:1;fill:none;stroke:#000000;stroke-width:7.10509;stroke-linecap:butt;stroke-linejoin:miter;stroke-miterlimit:4;stroke-dasharray:none;stroke-opacity:1"
         d="m -104.01336,1272.7288 c 0,0 31.3755,-20.5916 43.2966,-18.4241 30.3997,5.5272 89.35669,19.3453 111.46559,72.7751"
         id="path1863-1"
         sodipodi:nodetypes="csc" />
      <path
         style="display:inline;opacity:1;fill:none;stroke:#000000;stroke-width:7.10509;stroke-linecap:butt;stroke-linejoin:miter;stroke-miterlimit:4;stroke-dasharray:none;stroke-opacity:1"
         d="m -71.77126,1479.9997 c 0,0 -115.10416,-4.6061 -198.0125,-17.5029"
         id="path1865-9"
         sodipodi:nodetypes="cc" />
      <path
         style="fill:none;stroke:#000000;stroke-width:7.10509;stroke-linecap:butt;stroke-linejoin:miter;stroke-miterlimit:4;stroke-dasharray:none;stroke-opacity:1"
         d="m -468.64715,1338.5091 v -122.0595 h 128.96853 l -0.65139,105.7939"
         id="path1902"
         sodipodi:nodetypes="cccc" />
      <path
         style="fill:none;stroke:#000000;stroke-width:7.10509;stroke-linecap:butt;stroke-linejoin:miter;stroke-miterlimit:4;stroke-dasharray:none;stroke-opacity:1"
         d="m -444.23525,1332.0607 v -91.6598 h 81.98714 v 66.7873"
         id="path1905" />
      <path
         style="fill:none;stroke:#000000;stroke-width:7.10509;stroke-linecap:butt;stroke-linejoin:miter;stroke-miterlimit:4;stroke-dasharray:none;stroke-opacity:1"
         d="m -513.78823,1355.5414 c 0,0 136.32454,-53.7147 151.54012,-48.3532 15.21558,5.3615 88.1712,71.1519 92.07954,142.8047"
         id="path1917"
         sodipodi:nodetypes="csc" />
      <path
         style="fill:none;stroke:#000000;stroke-width:7.10509;stroke-linecap:round;stroke-linejoin:miter;stroke-miterlimit:4;stroke-dasharray:none;stroke-opacity:1"
         d="m -356.15198,1351.6331 c 0,0 84.68063,82.7264 86.63479,100.9653 1.95417,18.2389 -17.58751,26.707 -22.14724,25.4042"
         id="path1919" />
      <path
         style="fill:none;stroke:#000000;stroke-width:7.10509;stroke-linecap:round;stroke-linejoin:miter;stroke-miterlimit:4;stroke-dasharray:none;stroke-opacity:1"
         d="m -397.18952,1382.8998 c 0,0 110.08481,61.8819 105.52509,95.1028 -27.39366,17.014 -55.3681,-1.3028 -97.70841,-16.9361 -7.96732,-2.9418 -61.23061,-51.4598 -77.51535,-54.7167 -16.28473,-3.257 -21.49585,1.9542 -22.79863,7.8167 -1.30278,5.8625 37.78059,65.1389 73.60701,79.4695"
         id="path1921"
         sodipodi:nodetypes="ccsssc" />
      <path
         style="fill:none;stroke:#000000;stroke-width:7.10509;stroke-linecap:butt;stroke-linejoin:miter;stroke-miterlimit:4;stroke-dasharray:none;stroke-opacity:1"
         d="m -489.03543,1414.8179 c 0,0 -29.96391,-2.6056 -28.00974,17.5875 1.95417,20.193 34.52364,63.8361 45.59726,69.0473 11.07362,5.2111 52.76254,19.5416 59.27644,20.193 6.51389,0.6514 77.51534,-23.45 91.19452,-37.1292"
         id="path1923"
         sodipodi:nodetypes="csssc" />
      <path
         style="fill:none;stroke:#000000;stroke-width:7.10509;stroke-linecap:butt;stroke-linejoin:miter;stroke-miterlimit:4;stroke-dasharray:none;stroke-opacity:1"
         d="m -517.69656,1431.1026 c 0,0 -16.93613,-6.5139 -18.23891,7.8167 -1.30278,14.3305 37.12919,50.157 65.79033,63.1847"
         id="path1925"
         sodipodi:nodetypes="csc" />
      <path
         style="fill:none;stroke:#000000;stroke-width:7.10509;stroke-linecap:butt;stroke-linejoin:miter;stroke-miterlimit:4;stroke-dasharray:none;stroke-opacity:1"
         d="m -403.70341,1520.3429 1.30278,190.2058 c 0,0 9.11945,57.3222 20.84446,67.7445 11.72501,10.4222 267.06967,-6.5139 278.79468,-22.1473 11.72501,-15.6333 20.84446,-105.5251 23.45002,-125.0667 2.60556,-19.5417 -6.51389,-153.728 -6.51389,-153.728"
         id="path1927" />
      <path
         style="display:inline;opacity:1;fill:none;stroke:#000000;stroke-width:7.10509;stroke-linecap:butt;stroke-linejoin:miter;stroke-miterlimit:4;stroke-dasharray:none;stroke-opacity:1"
         d="m -402.40063,1710.5487 c 0,0 -11.72498,57.3222 -23.44998,67.7445 -11.725,10.4222 -267.06969,-6.5139 -278.79479,-22.1473 -11.725,-15.6333 -20.8444,-105.5251 -23.45,-125.0667 -2.6055,-19.5417 6.5139,-153.728 6.5139,-153.728"
         id="path1927-9"
         sodipodi:nodetypes="csssc" />
      <path
         style="fill:none;stroke:#000000;stroke-width:7.10509;stroke-linecap:butt;stroke-linejoin:miter;stroke-miterlimit:4;stroke-dasharray:none;stroke-opacity:1"
         d="m -703.3426,1756.1459 c 0,0 26.0556,734.7673 35.1751,750.4007 9.1194,15.6333 22.14722,42.9917 20.84444,54.7167"
         id="path1944" />
      <path
         style="fill:none;stroke:#000000;stroke-width:7.10509;stroke-linecap:butt;stroke-linejoin:miter;stroke-miterlimit:4;stroke-dasharray:none;stroke-opacity:1"
         d="m -403.70341,1833.0099 c 0,0 5.21112,452.0642 1.30278,470.3031 -3.90834,18.239 -13.02779,251.4364 -11.72501,282.7031"
         id="path1947" />
      <path
         style="fill:none;stroke:#000000;stroke-width:7.10509;stroke-linecap:butt;stroke-linejoin:miter;stroke-miterlimit:4;stroke-dasharray:none;stroke-opacity:1"
         d="m -401.09785,2282.4686 c 0,0 15.63334,158.939 18.2389,191.5085 2.60556,32.5695 1.30278,114.6445 1.30278,114.6445"
         id="path1949"
         sodipodi:nodetypes="csc" />
      <path
         style="display:inline;opacity:1;fill:none;stroke:#000000;stroke-width:7.10509;stroke-linecap:butt;stroke-linejoin:miter;stroke-miterlimit:4;stroke-dasharray:none;stroke-opacity:1"
         d="m -104.73872,1755.1538 c 0,0 -26.0556,734.7673 -35.1751,750.4007 -9.1194,15.6333 -22.14722,42.9917 -20.84444,54.7167"
         id="path1944-1" />
      <path
         style="fill:none;stroke:#000000;stroke-width:7.10509;stroke-linecap:butt;stroke-linejoin:miter;stroke-miterlimit:4;stroke-dasharray:none;stroke-opacity:1"
         d="m -511.83406,1814.7709 c 16.93612,1.9542 209.09601,55.3682 209.09601,55.3682"
         id="path1967"
         sodipodi:nodetypes="cc" />
      <path
         style="fill:none;stroke:#000000;stroke-width:7.10509;stroke-linecap:butt;stroke-linejoin:miter;stroke-miterlimit:4;stroke-dasharray:none;stroke-opacity:1"
         d="m -403.70341,1833.0099 1.30278,-122.4612"
         id="path1969" />
      <path
         style="fill:none;stroke:#000000;stroke-width:7.10509;stroke-linecap:butt;stroke-linejoin:bevel;stroke-miterlimit:4;stroke-dasharray:none;stroke-opacity:1"
         d="m -429.75899,1780.2473 0.65139,37.7806 25.40419,14.982"
         id="path1971" />
      <path
         style="fill:none;stroke:#000000;stroke-width:7.10509;stroke-linecap:butt;stroke-linejoin:miter;stroke-miterlimit:4;stroke-dasharray:none;stroke-opacity:1"
         d="m -153.13485,1767.79 c 0,0 34.08454,50.6663 46.98139,55.2723"
         id="path1973" />
      <path
         style="display:inline;opacity:1;fill:none;stroke:#000000;stroke-width:7.10509;stroke-linecap:butt;stroke-linejoin:miter;stroke-miterlimit:4;stroke-dasharray:none;stroke-opacity:1"
         d="m -653.8747,1767.944 c 0,0 -34.0845,50.6663 -46.9814,55.2723"
         id="path1973-6" />
      <ellipse
         style="fill:none;fill-opacity:1;stroke:#000000;stroke-width:7.10509;stroke-linecap:round;stroke-linejoin:bevel;stroke-miterlimit:4;stroke-dasharray:none;stroke-opacity:1"
         id="path1990"
         cx="-576.32166"
         cy="1330.463"
         rx="32.569473"
         ry="16.61043" />
      <path
         id="path1990-9"
         style="display:inline;opacity:1;fill:none;fill-opacity:1;stroke:#000000;stroke-width:7.10509;stroke-linecap:round;stroke-linejoin:bevel;stroke-miterlimit:4;stroke-dasharray:none;stroke-opacity:1"
         d="m -543.75211,1340.5594 c -3e-5,9.1737 -14.58187,16.6104 -32.56947,16.6104 -17.9876,0 -32.56945,-7.4367 -32.56948,-16.6104"
         sodipodi:nodetypes="csc" />
      <path
         style="fill:none;stroke:#000000;stroke-width:7.10509;stroke-linecap:butt;stroke-linejoin:miter;stroke-miterlimit:4;stroke-dasharray:none;stroke-opacity:1"
         d="m -528.11879,1335.3483 -15.63332,5.2111 m -27.68408,18.0761 c 0,0 -26.38128,48.3657 2.93125,103.0824"
         id="path2046"
         sodipodi:nodetypes="cccc" />
      <path
         style="display:inline;opacity:1;fill:none;stroke:#000000;stroke-width:7.10509;stroke-linecap:butt;stroke-linejoin:miter;stroke-miterlimit:4;stroke-dasharray:none;stroke-opacity:1"
         d="m -607.95934,1347.9419 c 0,0 -34.52357,35.8265 1.30278,119.8557"
         id="path2046-9"
         sodipodi:nodetypes="cc" />
      <path
         style="fill:none;stroke:#000000;stroke-width:7.10509;stroke-linecap:butt;stroke-linejoin:miter;stroke-miterlimit:4;stroke-dasharray:none;stroke-opacity:1"
         d="m -607.95934,1347.9419 -0.25018,-13.1177"
         id="path2067"
         sodipodi:nodetypes="cc" />
      <circle
         style="fill:none;fill-opacity:1;stroke:#000000;stroke-width:7.10509;stroke-linecap:round;stroke-linejoin:bevel;stroke-miterlimit:4;stroke-dasharray:none;stroke-opacity:1"
         id="path2069"
         cx="-431.79901"
         cy="956.6701"
         r="13.357454" />
      <circle
         style="display:inline;opacity:1;fill:none;fill-opacity:1;stroke:#000000;stroke-width:7.10509;stroke-linecap:round;stroke-linejoin:bevel;stroke-miterlimit:4;stroke-dasharray:none;stroke-opacity:1"
         id="path2069-6"
         cx="-433.18079"
         cy="1046.4875"
         r="13.357454" />
      <circle
         style="display:inline;opacity:1;fill:none;fill-opacity:1;stroke:#000000;stroke-width:7.10509;stroke-linecap:round;stroke-linejoin:bevel;stroke-miterlimit:4;stroke-dasharray:none;stroke-opacity:1"
         id="path2069-68"
         cx="-439.62921"
         cy="1556.8344"
         r="13.357454" />
      <circle
         style="display:inline;opacity:1;fill:none;fill-opacity:1;stroke:#000000;stroke-width:7.10509;stroke-linecap:round;stroke-linejoin:bevel;stroke-miterlimit:4;stroke-dasharray:none;stroke-opacity:1"
         id="path2069-7"
         cx="-439.62921"
         cy="1648.0336"
         r="13.357454" />
      <ellipse
         style="display:inline;opacity:1;fill:#ffffff;fill-opacity:1;stroke:#d7ccc3;stroke-width:6.11408;stroke-linecap:round;stroke-linejoin:round;stroke-miterlimit:4;stroke-dasharray:none;stroke-opacity:1"
         id="path1739-0"
         cx="-476.91214"
         cy="529.95288"
         rx="2.7543168"
         ry="5.3757825" />
      <path
         style="display:inline;opacity:1;fill:none;stroke:#a65d41;stroke-width:7.10509;stroke-linecap:butt;stroke-linejoin:miter;stroke-miterlimit:4;stroke-dasharray:none;stroke-opacity:1"
         d="m -365.56299,552.38017 c 0,0 8.3854,15.57287 21.5625,13.776"
         id="path1711-9-4" />
      <path
         style="display:inline;opacity:1;fill:none;stroke:#a65d41;stroke-width:7.10509;stroke-linecap:butt;stroke-linejoin:miter;stroke-miterlimit:4;stroke-dasharray:none;stroke-opacity:1"
         d="m -444.39519,550.95709 c 0,0 -8.3854,15.57287 -21.5625,13.776"
         id="path1711-9-5-0" />
    </g>
  </g>
</svg>
