<?xml version="1.0" encoding="UTF-8" standalone="no"?>
<svg
   xmlns:dc="http://purl.org/dc/elements/1.1/"
   xmlns:cc="http://creativecommons.org/ns#"
   xmlns:rdf="http://www.w3.org/1999/02/22-rdf-syntax-ns#"
   xmlns:svg="http://www.w3.org/2000/svg"
   xmlns="http://www.w3.org/2000/svg"
   xmlns:sodipodi="http://sodipodi.sourceforge.net/DTD/sodipodi-0.dtd"
   xmlns:inkscape="http://www.inkscape.org/namespaces/inkscape"
   width="414"
   height="600"
   viewBox="0 0 109.53749 158.75"
   version="1.1"
   id="svg898"
   sodipodi:docname="medecin.svg"
   inkscape:version="1.0.1 (3bc2e813f5, 2020-09-07)">
  <defs
     id="defs892" />
  <sodipodi:namedview
     id="base"
     pagecolor="#ffffff"
     bordercolor="#666666"
     borderopacity="1.0"
     inkscape:pageopacity="0.0"
     inkscape:pageshadow="2"
     inkscape:zoom="0.8349433"
     inkscape:cx="240.62249"
     inkscape:cy="322.39367"
     inkscape:document-units="mm"
     inkscape:current-layer="layer2"
     inkscape:document-rotation="0"
     showgrid="false"
     units="px"
     inkscape:window-width="1920"
     inkscape:window-height="1017"
     inkscape:window-x="-8"
     inkscape:window-y="-8"
     inkscape:window-maximized="1" />
  <metadata
     id="metadata895">
    <rdf:RDF>
      <cc:Work
         rdf:about="">
        <dc:format>image/svg+xml</dc:format>
        <dc:type
           rdf:resource="http://purl.org/dc/dcmitype/StillImage" />
        <dc:title></dc:title>
      </cc:Work>
    </rdf:RDF>
  </metadata>
  <g
     inkscape:groupmode="layer"
     id="layer2"
     inkscape:label="Calque 2"
     style="opacity:1">
    <g
       id="g2591"
       inkscape:export-xdpi="300"
       inkscape:export-ydpi="300"
       style="display:inline;opacity:1;stroke-width:0.835763"
       transform="matrix(0.06687204,0,0,0.06683178,-570.49013,-4.765306)">
      <path
         style="display:inline;fill:#9a603e;fill-opacity:1;stroke:none;stroke-width:0.835763px;stroke-linecap:butt;stroke-linejoin:miter;stroke-opacity:1"
         d="m 9354.4981,419.8683 c 1.1582,26.24719 -64.8104,137.54264 -150.338,136.56202 -17.6925,-12.95152 8.6245,-9.58513 -2.9948,-14.85351 -100.9174,-45.75759 -68.519,122.76206 13.7815,105.80137 16.9837,87.58318 56.0902,101.60731 67.2755,109.78429 2.1563,14.38443 6.0229,32.2 -1.3433,46.01687 -13.0093,3.65923 -60.0948,37.17774 -57.7007,52.34088 2.3942,15.16314 0.013,46.96245 14.7707,60.99004 102.7905,50.70797 225.452,18.3989 241.4099,-2.54116 15.9579,-20.94006 11.1695,-50.46828 11.1695,-60.84306 0,-10.37478 -37.933,-32.82405 -56.4719,-48.33442 4.5563,-10.85891 -3.0408,-26.67938 -0.3387,-49.04096 33.7393,-22.36159 65.3627,-98.66663 65.9703,-108.60294 115.2065,4.39285 79.1264,-162.39839 13.7815,-105.80137 -2.1418,14.2735 -2.644,28.261 -2.644,28.261 -65.3621,-5.95992 -139.1303,-104.16084 -156.3275,-149.73905"
         id="path1687"
         sodipodi:nodetypes="ccscccscsscccccc" />
      <path
         style="display:inline;fill:#d1cddc;fill-opacity:1;stroke:none;stroke-width:0.835763px;stroke-linecap:butt;stroke-linejoin:miter;stroke-opacity:1"
         d="m 9225.5725,849.9338 c 0,0 -173.7661,113.06321 -214.1736,192.6008 -1.4913,24.7032 -92.6905,280.2482 -98.8704,302.3951 1.7196,157.5083 65.2215,364.5999 76.6063,372.9369 15.3751,-8.4223 25.1059,-13.6517 25.1059,-13.6517 0.9826,232.8075 13.2484,625.9305 25.3016,645.1787 12.0532,19.2482 213.224,104.268 233.9437,95.2766 8.7488,-304.2736 18.3255,-1067.2188 19.1236,-1081.5839 0.798,-14.3651 -12.2047,-276.6374 -16.7593,-288.8977 -4.5546,-12.2602 -45.4894,-174.77508 -50.2778,-224.2548 z"
         id="path1761"
         sodipodi:nodetypes="cccccscssc" />
      <path
         style="display:inline;fill:#9a603e;fill-opacity:1;stroke:none;stroke-width:0.835763px;stroke-linecap:butt;stroke-linejoin:miter;stroke-opacity:1"
         d="m 9154.1462,1583.3509 c -0.7981,-13.168 -34.1022,-23.0623 -107.6309,45.5301 14.6569,14.7234 22.0233,26.2586 22.0233,26.2586 z"
         id="path1689"
         sodipodi:nodetypes="cccc" />
      <path
         style="display:inline;fill:#d1cddc;fill-opacity:1;stroke:none;stroke-width:0.835763px;stroke-linecap:butt;stroke-linejoin:miter;stroke-opacity:1"
         d="m 9488.7625,849.1105 c 0,0 173.7661,113.06321 214.1736,192.6008 2.8262,25.037 92.6905,280.2482 98.8704,302.3951 -1.7196,157.5083 -65.2215,364.5999 -76.6063,372.9369 -15.3751,-8.4223 -25.1059,-13.6517 -25.1059,-13.6517 -0.9826,232.8075 -13.2484,625.9305 -25.3016,645.1787 -12.0532,19.2482 -213.224,104.268 -233.9437,95.2766 -8.7488,-304.2736 -18.3255,-1067.2188 -19.1236,-1081.5839 -0.798,-14.3651 12.2047,-276.6374 16.7593,-288.8977 4.5546,-12.2602 45.4894,-174.77508 50.2778,-224.2548 z"
         id="path1761-7"
         sodipodi:nodetypes="cccccscssc" />
      <path
         style="display:inline;fill:#9a603e;fill-opacity:1;stroke:none;stroke-width:0.835763px;stroke-linecap:butt;stroke-linejoin:miter;stroke-opacity:1"
         d="m 9564.0087,1585.045 c 0.7981,-13.168 34.1022,-23.0623 107.6309,45.5301 -14.6569,14.7234 -22.0233,26.2586 -22.0233,26.2586 z"
         id="path1689-7"
         sodipodi:nodetypes="cccc" />
      <path
         style="display:inline;fill:#9a603e;fill-opacity:1;stroke:none;stroke-width:0.835763px;stroke-linecap:butt;stroke-linejoin:miter;stroke-opacity:1"
         d="m 9335.36,2317.5343 c 0,0 -46.1615,-0.3952 -58.023,-16.941 -1.1395,29.1636 -3.851,144.0769 -3.851,144.0769 0,0 -108.9706,-17.1361 -121.9363,-31.4191 -12.9657,-14.283 20.1879,70.0971 27.1057,75.3877 23.8467,18.2375 148.9813,15.3719 155.0105,0.847 3.9384,-9.488 1.6941,-171.9515 1.6941,-171.9515 z"
         id="path1706"
         sodipodi:nodetypes="cccsssc" />
      <path
         style="display:inline;fill:#9a603e;fill-opacity:1;stroke:none;stroke-width:0.835763px;stroke-linecap:butt;stroke-linejoin:miter;stroke-opacity:1"
         d="m 9380.6941,2319.3772 c 0,0 46.1615,-0.3952 58.023,-16.941 1.1395,29.1636 3.851,144.0769 3.851,144.0769 0,0 103.3275,-16.0075 116.2932,-30.2905 12.9657,-14.283 -14.5448,68.9685 -21.4626,74.2591 -23.8467,18.2375 -148.9813,15.3719 -155.0105,0.847 -3.9384,-9.488 -1.6941,-171.9515 -1.6941,-171.9515 z"
         id="path1706-4"
         sodipodi:nodetypes="cccsssc" />
      <path
         style="display:inline;fill:#392828;fill-opacity:1;stroke:none;stroke-width:0.835763px;stroke-linecap:butt;stroke-linejoin:miter;stroke-opacity:1"
         d="m 9353.3002,359.37373 c 0,0 -130.2419,-69.78641 -182.6817,168.30669 14.1492,5.03159 30.5468,13.89639 30.5468,13.89639 0,0 -0.1853,6.40595 2.9948,14.85351 97.9848,11.26913 147.3884,-115.0991 150.338,-136.56202 57.688,113.97234 135.8969,153.9042 156.3275,149.73905 4.0655,-13.19417 -4.4207,-13.98353 2.644,-28.261 11.5792,-8.63433 21.8516,-9.66851 34.4913,-13.66593 13.7683,2.77434 -73.5306,-226.52501 -194.6607,-168.30669 z"
         id="path1723"
         sodipodi:nodetypes="ccccccccc" />
      <path
         style="display:inline;fill:#392828;fill-opacity:1;stroke:none;stroke-width:0.835763px;stroke-linecap:butt;stroke-linejoin:miter;stroke-opacity:1"
         d="m 9214.9468,647.37818 c 0,0 -35.2904,0.92198 -68.2865,-28.65642 -130.6223,169.6243 -60.2141,184.06618 -20.3645,198.85347 -0.781,-8.34957 0.8502,-4.94598 0.5989,-17.36973 44.8938,25.94957 72.8573,31.14454 91.0414,20.36451 18.1841,-10.78003 58.0195,-35.6636 64.9067,-37.89397 6.8872,-2.23037 5.62,-20.83667 -0.6205,-25.51357 -31.4299,-23.55483 -62.4905,-79.76516 -67.2755,-109.78429 z"
         id="path1725"
         sodipodi:nodetypes="ccccsssc" />
      <path
         style="display:inline;fill:#392828;fill-opacity:1;stroke:none;stroke-width:0.835763px;stroke-linecap:butt;stroke-linejoin:miter;stroke-opacity:1"
         d="m 9496.723,651.70711 c 0,0 35.2904,0.92198 68.2865,-28.65642 130.6223,169.6243 60.2141,184.06618 20.3645,198.85347 0.781,-8.34957 -0.8502,-4.94598 -0.5989,-17.36973 -44.8938,25.94957 -72.8573,31.14454 -91.0414,20.36451 -18.1841,-10.78003 -58.0195,-35.6636 -64.9067,-37.89397 1.0132,-12.38801 1.1518,-18.57942 0.6205,-25.51357 31.4299,-23.55483 62.4905,-79.76516 67.2755,-109.78429 z"
         id="path1725-3"
         sodipodi:nodetypes="ccccsccc" />
      <path
         style="display:inline;fill:#d8cdc7;fill-opacity:1;stroke:none;stroke-width:0.835763px;stroke-linecap:butt;stroke-linejoin:miter;stroke-opacity:1"
         d="m 9398.9336,589.75364 c 0,0 50.8393,-80.83868 77.4731,-10.25154 -15.4076,37.01048 -73.2319,25.25181 -74.0872,12.22664"
         id="path1742"
         sodipodi:nodetypes="ccc" />
      <path
         style="display:inline;fill:#d8cdc7;fill-opacity:1;stroke:none;stroke-width:0.835763px;stroke-linecap:butt;stroke-linejoin:miter;stroke-opacity:1"
         d="m 9315.5659,590.57082 c 0,0 -50.8393,-80.83868 -77.4731,-10.25154 15.4076,37.01048 73.2319,25.25181 74.0872,12.22664"
         id="path1742-9"
         sodipodi:nodetypes="ccc" />
      <path
         style="display:inline;fill:#d99d19;fill-opacity:1;stroke:none;stroke-width:0.835763px;stroke-linecap:butt;stroke-linejoin:miter;stroke-opacity:1"
         d="m 9479.3589,913.9691 c 0,0 -129.28,64.02503 -241.4099,2.54116 6.376,35.57806 35.1766,139.32304 37.9013,156.08224 2.7016,16.617 16.7593,254.5811 15.9612,267.3501 -0.7981,12.7689 -18.5742,947.6683 -14.4745,960.6507 46.9875,35.5549 152.664,17.8375 161.3801,1.8429 8.7161,-15.9946 -18.418,-935.3596 -15.2257,-947.3305 3.1922,-11.9709 13.9608,-274.2808 20.1484,-291.565 6.1876,-17.2842 28.5399,-137.41019 35.7191,-149.5716 z"
         id="path1759"
         sodipodi:nodetypes="ccsscsssc" />
      <path
         style="display:inline;fill:#7e8487;fill-opacity:1;stroke:none;stroke-width:0.835763px;stroke-linecap:butt;stroke-linejoin:miter;stroke-opacity:1"
         d="m 9133.7956,1078.1789 c -93.0051,17.9613 -43.8933,116.5168 6.3845,113.3245 50.2778,-3.1922 86.7176,-108.9468 -6.3845,-113.3245 z"
         id="path1778"
         sodipodi:nodetypes="csc" />
      <path
         style="display:inline;fill:#7e8487;fill-opacity:1;stroke:none;stroke-width:0.835763px;stroke-linecap:butt;stroke-linejoin:miter;stroke-opacity:1"
         d="m 9501.9119,1261.8051 c -16.9294,1.1287 -24.8298,33.8589 1.1287,33.8589 25.9584,0 20.3152,-36.1161 -1.1287,-33.8589 z"
         id="path1780" />
      <path
         style="display:inline;fill:#7e8487;fill-opacity:1;stroke:none;stroke-width:0.835763px;stroke-linecap:butt;stroke-linejoin:miter;stroke-opacity:1"
         d="m 9656.2561,1260.7272 c -16.9294,1.1287 -24.8298,33.8589 1.1287,33.8589 25.9584,0 20.3152,-36.1161 -1.1287,-33.8589 z"
         id="path1780-6" />
      <path
         style="display:inline;fill:#7e8487;fill-opacity:1;stroke:none;stroke-width:0.835763px;stroke-linecap:butt;stroke-linejoin:miter;stroke-opacity:1"
         d="m 9500.6008,1062.9838 c 0,0 1.6976,209.7648 136.3753,222.3511 134.6777,12.5863 -0.066,-11.3687 -0.066,-11.3687 0,0 -103.6814,22.6926 -124.5166,-209.6453 -5.4031,-5.1043 -11.7931,-1.3371 -11.7931,-1.3371 z"
         id="path1797"
         sodipodi:nodetypes="cscccc" />
      <path
         style="display:inline;fill:#7e8487;fill-opacity:1;stroke:none;stroke-width:0.835763px;stroke-linecap:butt;stroke-linejoin:miter;stroke-opacity:1"
         d="m 9644.0708,1061.8025 c 0,0 7.2667,177.5846 -123.2161,213.0982 -0.066,5.6567 1.7038,10.5007 1.7038,10.5007 0,0 132.6444,-13.0603 133.3054,-223.6654 -7.7249,-2.856 -11.7931,0.066 -11.7931,0.066 z"
         id="path1799"
         sodipodi:nodetypes="cccccc" />
      <path
         style="display:inline;fill:#103e7e;fill-opacity:1;stroke:none;stroke-width:0.835763px;stroke-linecap:butt;stroke-linejoin:miter;stroke-opacity:1"
         d="m 9136.801,1116.7766 c -21.4439,2.2572 -24.2654,34.9874 -1.1286,34.9874 23.1369,0 28.2157,-30.4729 1.1286,-34.9874 z"
         id="path1801" />
      <path
         style="display:inline;fill:#103e7e;fill-opacity:1;stroke:none;stroke-width:0.835763px;stroke-linecap:butt;stroke-linejoin:miter;stroke-opacity:1"
         d="m 9124.4441,1078.2972 c 0,0 -26.8116,-220.59434 158.3987,-295.62116 1.8084,14.13472 4.4216,20.66443 -1.9638,20.5033 -6.3854,-0.16113 -134.6832,53.18985 -137.4055,275.37666 -9.6779,-0.3771 -19.0294,-0.2588 -19.0294,-0.2588 z"
         id="path1803"
         sodipodi:nodetypes="ccscc" />
      <path
         style="display:inline;fill:#103e7e;fill-opacity:1;stroke:none;stroke-width:0.835763px;stroke-linecap:butt;stroke-linejoin:miter;stroke-opacity:1"
         d="m 9434.0565,804.79162 c 0,0 98.8787,61.59379 129.3586,187.07152 -27.3038,5.96411 -73.2962,49.05996 -70.5034,69.49296 7.6891,1.6277 7.6891,1.6277 24.141,0.4236 55.3984,-100.1894 116.3202,-21.7059 121.9754,-2.5412 16.8358,2.4975 22.0234,1.2706 22.0234,1.2706 0,0 -10.7689,-55.5409 -76.4895,-71.02241 -13.8038,8.78402 9.6444,-118.96594 -152.4693,-205.19837 z"
         id="path1805"
         sodipodi:nodetypes="ccccccccc" />
      <path
         style="fill:none;stroke:#000000;stroke-width:6.6861;stroke-linecap:butt;stroke-linejoin:miter;stroke-miterlimit:4;stroke-dasharray:none;stroke-opacity:1"
         d="m 9201.1653,541.57681 c -0.1454,189.6709 83.6943,234.67044 155.7286,234.67044 71.8747,0 146.5564,-36.40864 156.5757,-234.9009"
         id="path1419"
         sodipodi:nodetypes="csc" />
      <path
         style="fill:none;stroke:#000000;stroke-width:6.6861;stroke-linecap:butt;stroke-linejoin:miter;stroke-miterlimit:4;stroke-dasharray:none;stroke-opacity:1"
         d="m 9433.5603,757.08065 c 0,0 -5.6989,28.8101 0.4962,47.71097 21.442,10.43035 54.6078,42.48332 57.0036,50.86871 2.3958,8.38539 -38.8896,168.15407 -47.4203,207.88037 -9.3778,19.3971 -20.3645,274.3821 -20.3645,293.5487 0,19.1666 13.3825,1080.8077 18.1742,1089.1931 97.1203,-7.7086 206.6575,-73.8596 233.9437,-95.2766 28.1334,-47.6758 25.3016,-648.7724 25.3016,-648.7724"
         id="path1422"
         sodipodi:nodetypes="ccscsccc" />
      <path
         style="display:inline;opacity:1;fill:none;stroke:#000000;stroke-width:6.6861;stroke-linecap:butt;stroke-linejoin:miter;stroke-miterlimit:4;stroke-dasharray:none;stroke-opacity:1"
         d="m 9282.2223,757.16247 c 0,0 4.8518,27.116 -1.3433,46.01687 -21.442,10.43035 -54.6078,42.48332 -57.0036,50.86871 -2.3958,8.3854 38.8896,168.15405 47.4203,207.88035 9.3778,19.3971 20.3645,274.3821 20.3645,293.5487 0,19.1666 -13.3825,1080.8077 -18.1742,1089.1931 -97.1203,-7.7086 -206.6575,-73.8596 -233.9437,-95.2766 -28.1334,-47.6758 -25.3016,-645.1787 -25.3016,-645.1787"
         id="path1422-2"
         sodipodi:nodetypes="ccscsccc" />
      <path
         style="fill:none;stroke:#000000;stroke-width:6.6861;stroke-linecap:butt;stroke-linejoin:miter;stroke-miterlimit:4;stroke-dasharray:none;stroke-opacity:1"
         d="m 9277.337,2300.5933 c 25.4115,26.2586 123.246,28.7997 161.3634,-1e-4"
         id="path1439"
         sodipodi:nodetypes="cc" />
      <path
         style="fill:none;stroke:#000000;stroke-width:6.6861;stroke-linecap:butt;stroke-linejoin:miter;stroke-miterlimit:4;stroke-dasharray:none;stroke-opacity:1"
         d="m 9151.5497,2413.2511 c 0,0 12.7058,53.3643 27.1057,75.3877"
         id="path1441"
         sodipodi:nodetypes="cc" />
      <path
         style="display:inline;opacity:1;fill:none;stroke:#000000;stroke-width:6.6861;stroke-linecap:butt;stroke-linejoin:miter;stroke-miterlimit:4;stroke-dasharray:none;stroke-opacity:1"
         d="m 9559.5572,2414.7375 c 0,0 -12.7058,53.3643 -27.1057,75.3877"
         id="path1441-8"
         sodipodi:nodetypes="cc" />
      <path
         style="fill:none;stroke:#000000;stroke-width:6.6861;stroke-linecap:butt;stroke-linejoin:miter;stroke-miterlimit:4;stroke-dasharray:none;stroke-opacity:1"
         d="m 9335.36,2317.5343 c 0,0 -4.2352,156.7046 -1.6941,171.9515"
         id="path1458" />
      <path
         style="display:inline;opacity:1;fill:none;stroke:#000000;stroke-width:6.6861;stroke-linecap:butt;stroke-linejoin:miter;stroke-miterlimit:4;stroke-dasharray:none;stroke-opacity:1"
         d="m 9380.6941,2319.3772 c 0,0 4.2352,156.7046 1.6941,171.9515"
         id="path1458-0" />
      <circle
         style="fill:none;fill-opacity:1;stroke:#000000;stroke-width:7.57798;stroke-linecap:round;stroke-linejoin:round;stroke-miterlimit:4;stroke-dasharray:none;stroke-opacity:1"
         id="path1475"
         cx="9135.8789"
         cy="1133.7792"
         r="56.642445" />
      <circle
         style="fill:none;fill-opacity:1;stroke:#000000;stroke-width:6.6861;stroke-linecap:round;stroke-linejoin:round;stroke-miterlimit:4;stroke-dasharray:none;stroke-opacity:1"
         id="path1477"
         cx="9136.3027"
         cy="1135.0497"
         r="17.788092" />
      <path
         style="fill:none;stroke:#000000;stroke-width:6.6861;stroke-linecap:butt;stroke-linejoin:miter;stroke-miterlimit:4;stroke-dasharray:none;stroke-opacity:1"
         d="m 9124.4441,1078.2972 c -10.1647,-56.7525 7.6234,-241.40983 158.3987,-295.62116"
         id="path1479"
         sodipodi:nodetypes="cc" />
      <path
         style="display:inline;opacity:1;fill:none;stroke:#000000;stroke-width:6.6861;stroke-linecap:butt;stroke-linejoin:miter;stroke-miterlimit:4;stroke-dasharray:none;stroke-opacity:1"
         d="m 9143.4735,1078.556 c -9.3176,-71.9993 17.9711,-215.23597 137.4055,-275.37666"
         id="path1479-3"
         sodipodi:nodetypes="cc" />
      <path
         style="display:inline;opacity:1;fill:none;stroke:#000000;stroke-width:6.6861;stroke-linecap:butt;stroke-linejoin:miter;stroke-miterlimit:4;stroke-dasharray:none;stroke-opacity:1"
         d="m 9434.0565,804.79162 c 78.7759,49.12901 108.6058,111.04871 129.3586,187.07152 0,0 -51.8683,4.26996 -70.5034,69.49296 13.9764,0.073 8.4617,0.4749 24.141,0.4236 37.6938,-83.85813 108.4226,-46.5879 121.9754,-2.5412 13.5529,1.2706 14.4,0.8471 22.0234,1.2706 -16.0939,-66.49361 -76.4895,-71.02241 -76.4895,-71.02241 -8.047,-65.43478 -65.2229,-175.55155 -152.4693,-205.19837"
         id="path1479-3-9"
         sodipodi:nodetypes="cccccccc" />
      <circle
         style="fill:none;fill-opacity:1;stroke:#000000;stroke-width:6.6861;stroke-linecap:round;stroke-linejoin:round;stroke-miterlimit:4;stroke-dasharray:none;stroke-opacity:1"
         id="path1516"
         cx="9655.5459"
         cy="1278.625"
         r="17.788092" />
      <circle
         style="display:inline;opacity:1;fill:none;fill-opacity:1;stroke:#000000;stroke-width:6.6861;stroke-linecap:round;stroke-linejoin:round;stroke-miterlimit:4;stroke-dasharray:none;stroke-opacity:1"
         id="path1516-0"
         cx="9502.6523"
         cy="1279.8956"
         r="17.788092" />
      <path
         style="fill:none;stroke:#000000;stroke-width:6.6861;stroke-linecap:butt;stroke-linejoin:miter;stroke-miterlimit:4;stroke-dasharray:none;stroke-opacity:1"
         d="m 9512.3939,1064.3209 c 0,0 -1.2706,194.3984 124.5166,209.6453"
         id="path1533"
         sodipodi:nodetypes="cc" />
      <path
         style="display:inline;opacity:1;fill:none;stroke:#000000;stroke-width:6.6861;stroke-linecap:butt;stroke-linejoin:miter;stroke-miterlimit:4;stroke-dasharray:none;stroke-opacity:1"
         d="m 9500.6008,1062.9838 c 0,0 -4.2353,208.3748 136.3753,222.3511"
         id="path1533-6"
         sodipodi:nodetypes="cc" />
      <path
         style="display:inline;opacity:1;fill:none;stroke:#000000;stroke-width:6.6861;stroke-linecap:butt;stroke-linejoin:miter;stroke-miterlimit:4;stroke-dasharray:none;stroke-opacity:1"
         d="m 9644.0708,1061.8025 c 0,0 2.1177,136.3754 -65.223,185.0808"
         id="path1533-1"
         sodipodi:nodetypes="cc" />
      <path
         style="display:inline;opacity:1;fill:none;stroke:#000000;stroke-width:6.6861;stroke-linecap:butt;stroke-linejoin:miter;stroke-miterlimit:4;stroke-dasharray:none;stroke-opacity:1"
         d="m 9655.8639,1061.736 c 0,0 1.2706,141.8812 -66.4935,192.7043"
         id="path1533-6-4"
         sodipodi:nodetypes="cc" />
      <path
         style="fill:none;stroke:#000000;stroke-width:6.6861;stroke-linecap:butt;stroke-linejoin:miter;stroke-miterlimit:4;stroke-dasharray:none;stroke-opacity:1"
         d="m 9577.1934,1265.4957 c 0,0 -29.2233,19.0586 -54.6349,19.9057"
         id="path1568"
         sodipodi:nodetypes="cc" />
      <path
         style="display:inline;opacity:1;fill:none;stroke:#000000;stroke-width:6.6861;stroke-linecap:butt;stroke-linejoin:miter;stroke-miterlimit:4;stroke-dasharray:none;stroke-opacity:1"
         d="m 9571.2969,1254.7956 c 0,0 -29.2233,19.0586 -54.6349,19.9057"
         id="path1568-9"
         sodipodi:nodetypes="cc" />
      <path
         style="fill:none;stroke:#000000;stroke-width:6.6861;stroke-linecap:butt;stroke-linejoin:miter;stroke-miterlimit:4;stroke-dasharray:none;stroke-opacity:1"
         d="m 9156.6971,895.19144 c 0,0 -112.0223,86.57561 -145.2982,147.34316 -23.8597,129.8241 -90.1341,247.6524 -98.8704,302.3951 -5.348,115.7306 51.9463,352.1364 76.6063,372.9369 36.5187,-9.6934 124.0617,-114.1629 182.0827,-143.8097 13.1271,11.0117 20.3645,19.1666 20.3645,19.1666"
         id="path1585"
         sodipodi:nodetypes="cccccc" />
      <path
         style="display:inline;opacity:1;fill:none;stroke:#000000;stroke-width:6.6861;stroke-linecap:butt;stroke-linejoin:miter;stroke-miterlimit:4;stroke-dasharray:none;stroke-opacity:1"
         d="m 9548.6536,887.77967 c 0,0 121.0066,93.16412 154.2825,153.93163 23.8597,129.8241 90.1341,247.6524 98.8704,302.3951 5.348,115.7306 -51.9463,352.1364 -76.6063,372.9369 -36.5187,-9.6934 -124.0617,-114.1629 -182.0827,-143.8097 -13.1271,11.0117 -20.3645,19.1666 -20.3645,19.1666"
         id="path1585-6"
         sodipodi:nodetypes="cccccc" />
      <path
         style="fill:none;stroke:#000000;stroke-width:6.6861;stroke-linecap:butt;stroke-linejoin:miter;stroke-miterlimit:4;stroke-dasharray:none;stroke-opacity:1"
         d="m 9316.7249,1318.0129 c 0,0 72.8465,32.188 78.7758,42.3526"
         id="path1602" />
      <path
         style="fill:none;stroke:#000000;stroke-width:6.6861;stroke-linecap:butt;stroke-linejoin:miter;stroke-miterlimit:4;stroke-dasharray:none;stroke-opacity:1"
         d="m 9011.3989,1042.5346 c 0,0 40.1987,46.7743 41.8928,81.5034 -2.5412,27.9527 -12.7058,114.352 32.188,210.0689 1.6941,47.4349 -0.8471,105.8815 -0.8471,105.8815"
         id="path1604"
         sodipodi:nodetypes="cccc" />
      <path
         style="fill:none;stroke:#000000;stroke-width:6.6861;stroke-linecap:butt;stroke-linejoin:miter;stroke-miterlimit:4;stroke-dasharray:none;stroke-opacity:1"
         d="m 9237.949,916.51026 c 75.3876,41.50554 174.4927,37.27028 241.4099,-2.54116"
         id="path1606"
         sodipodi:nodetypes="cc" />
      <path
         style="fill:none;stroke:#000000;stroke-width:6.6861;stroke-linecap:butt;stroke-linejoin:miter;stroke-miterlimit:4;stroke-dasharray:none;stroke-opacity:1"
         d="m 9016.0214,1685.6335 -10.1646,-3.3882 c 10.1646,-44.0468 127.0577,-131.2931 143.9988,-103.3404 8.4705,5.0823 7.6236,-7.6234 5.0824,-16.094 -9.3176,-26.2586 -67.7642,-133.8342 -107.5757,-157.5516 -41.5055,-12.7058 -72.8464,4.2352 -72.8464,4.2352"
         id="path1608"
         sodipodi:nodetypes="cccccc" />
      <path
         style="fill:none;stroke:#000000;stroke-width:6.6861;stroke-linecap:butt;stroke-linejoin:miter;stroke-miterlimit:4;stroke-dasharray:none;stroke-opacity:1"
         d="m 9078.7033,1432.3649 c 0,0 11.0116,-33.8821 -42.3526,-83.8581"
         id="path1610" />
      <path
         style="display:inline;opacity:1;fill:none;stroke:#000000;stroke-width:6.6861;stroke-linecap:butt;stroke-linejoin:miter;stroke-miterlimit:4;stroke-dasharray:none;stroke-opacity:1"
         d="m 9697.1042,1686.3489 10.1646,-3.3882 c -10.1646,-44.0468 -127.0577,-131.2931 -143.9988,-103.3404 -8.4705,5.0823 -7.6236,-7.6234 -5.0824,-16.094 9.3176,-26.2586 67.7642,-133.8342 107.5757,-157.5516 41.5055,-12.7058 72.8464,4.2352 72.8464,4.2352"
         id="path1608-5"
         sodipodi:nodetypes="cccccc" />
      <path
         style="display:inline;opacity:1;fill:none;stroke:#000000;stroke-width:6.6861;stroke-linecap:butt;stroke-linejoin:miter;stroke-miterlimit:4;stroke-dasharray:none;stroke-opacity:1"
         d="m 9634.4223,1433.0803 c 0,0 -11.0116,-33.8821 42.3526,-83.8581"
         id="path1610-4" />
      <path
         style="fill:none;stroke:#000000;stroke-width:6.6861;stroke-linecap:butt;stroke-linejoin:miter;stroke-miterlimit:4;stroke-dasharray:none;stroke-opacity:1"
         d="m 9702.9361,1041.7113 -44.0022,81.4796 c 0,0 14.3998,38.1174 -7.6235,134.6813"
         id="path1630"
         sodipodi:nodetypes="ccc" />
      <path
         style="fill:none;stroke:#000000;stroke-width:6.6861;stroke-linecap:butt;stroke-linejoin:miter;stroke-miterlimit:4;stroke-dasharray:none;stroke-opacity:1"
         d="m 9645.381,1293.4483 c -5.9293,16.9411 -20.3292,42.3527 -20.3292,42.3527 l 4.2353,108.4226"
         id="path1632"
         sodipodi:nodetypes="ccc" />
      <path
         style="fill:none;stroke:#000000;stroke-width:6.6861;stroke-linecap:butt;stroke-linejoin:miter;stroke-miterlimit:4;stroke-dasharray:none;stroke-opacity:1"
         d="m 9100.7266,943.61592 32.188,13.55283"
         id="path1638" />
      <path
         style="fill:none;stroke:#000000;stroke-width:6.6861;stroke-linecap:butt;stroke-linejoin:miter;stroke-miterlimit:4;stroke-dasharray:none;stroke-opacity:1"
         d="m 9154.0909,969.87453 c 0,0 20.3292,12.70578 27.9527,19.4822 0,23.71747 -39.8114,66.07007 -39.8114,66.07007"
         id="path1640"
         sodipodi:nodetypes="ccc" />
      <path
         style="fill:none;stroke:#000000;stroke-width:6.6861;stroke-linecap:butt;stroke-linejoin:miter;stroke-miterlimit:4;stroke-dasharray:none;stroke-opacity:1"
         d="m 9191.3612,1118.1086 c 0,0 47.4349,58.4467 57.5995,83.8582 2.5412,22.8704 1.6942,45.7408 1.6942,45.7408"
         id="path1642"
         sodipodi:nodetypes="ccc" />
      <path
         style="fill:none;stroke:#000000;stroke-width:6.6861;stroke-linecap:butt;stroke-linejoin:miter;stroke-miterlimit:4;stroke-dasharray:none;stroke-opacity:1"
         d="m 9154.9379,1079.9913 -14.0064,-18.2417"
         id="path1644"
         sodipodi:nodetypes="cc" />
      <path
         style="fill:none;stroke:#000000;stroke-width:6.6861;stroke-linecap:butt;stroke-linejoin:miter;stroke-miterlimit:4;stroke-dasharray:none;stroke-opacity:1"
         d="m 9614.0401,941.92182 -33.035,15.24693"
         id="path1646" />
      <path
         style="fill:none;stroke:#000000;stroke-width:6.6861;stroke-linecap:butt;stroke-linejoin:miter;stroke-miterlimit:4;stroke-dasharray:none;stroke-opacity:1"
         d="m 9558.1347,972.41569 c 0,0 -12.7058,4.23526 -26.2586,14.39988 4.2352,11.01168 4.2352,11.01168 4.2352,11.01168"
         id="path1648"
         sodipodi:nodetypes="ccc" />
      <path
         style="fill:none;stroke:#000000;stroke-width:6.6861;stroke-linecap:butt;stroke-linejoin:miter;stroke-miterlimit:4;stroke-dasharray:none;stroke-opacity:1"
         d="m 9548.8171,1022.3918 c 0,0 22.8704,28.7997 22.0234,36.4232 -0.8471,15.247 -52.5173,63.5289 -52.5173,63.5289"
         id="path1650"
         sodipodi:nodetypes="ccc" />
      <path
         style="fill:none;stroke:#000000;stroke-width:6.6861;stroke-linecap:butt;stroke-linejoin:miter;stroke-miterlimit:4;stroke-dasharray:none;stroke-opacity:1"
         d="m 9508.1586,1136.7438 c 0,0 -37.2703,43.1996 -41.5055,62.6818 -2.5412,8.4705 -2.5411,43.1997 -2.5411,43.1997"
         id="path1652"
         sodipodi:nodetypes="ccc" />
      <path
         style="fill:none;stroke:#000000;stroke-width:6.6861;stroke-linecap:butt;stroke-linejoin:miter;stroke-miterlimit:4;stroke-dasharray:none;stroke-opacity:1"
         d="m 9521.5661,1189.0129 -10.8663,0.1027 0.847,25.557 h 23.7175"
         id="path1654"
         sodipodi:nodetypes="cccc" />
      <path
         style="fill:none;stroke:#000000;stroke-width:6.6861;stroke-linecap:butt;stroke-linejoin:miter;stroke-miterlimit:4;stroke-dasharray:none;stroke-opacity:1"
         d="m 9536.9584,1187.5669 70.3053,-0.1454 0.2481,28.7572"
         id="path1656"
         sodipodi:nodetypes="ccc" />
      <path
         style="fill:none;stroke:#000000;stroke-width:6.6861;stroke-linecap:butt;stroke-linejoin:miter;stroke-miterlimit:4;stroke-dasharray:none;stroke-opacity:1"
         d="m 9553.0524,1215.5196 54.4594,0.6591"
         id="path1658"
         sodipodi:nodetypes="cc" />
      <path
         style="fill:none;stroke:#000000;stroke-width:6.6861;stroke-linecap:butt;stroke-linejoin:miter;stroke-miterlimit:4;stroke-dasharray:none;stroke-opacity:1"
         d="m 9046.5153,1628.881 22.0233,26.2586"
         id="path1660" />
      <path
         style="fill:none;stroke:#000000;stroke-width:6.6861;stroke-linecap:butt;stroke-linejoin:miter;stroke-miterlimit:4;stroke-dasharray:none;stroke-opacity:1"
         d="m 9671.6397,1629.728 -22.0234,27.1057"
         id="path1662" />
      <path
         style="fill:none;stroke:#000000;stroke-width:6.6861;stroke-linecap:butt;stroke-linejoin:miter;stroke-miterlimit:4;stroke-dasharray:none;stroke-opacity:1"
         d="m 9073.621,1717.8214 116.8931,-106.7285"
         id="path1664" />
      <path
         style="fill:none;stroke:#000000;stroke-width:6.6861;stroke-linecap:butt;stroke-linejoin:miter;stroke-miterlimit:4;stroke-dasharray:none;stroke-opacity:1"
         d="m 9521.7115,1611.0929 116.0461,107.5756"
         id="path1666" />
      <path
         style="fill:none;stroke:#000000;stroke-width:6.6861;stroke-linecap:butt;stroke-linejoin:miter;stroke-miterlimit:4;stroke-dasharray:none;stroke-opacity:1"
         d="m 9513.4696,541.34635 c 78.5472,-57.67966 90.4059,121.04831 -13.7815,105.80137"
         id="path1668"
         sodipodi:nodetypes="cc" />
      <path
         style="fill:none;stroke:#000000;stroke-width:6.6861;stroke-linecap:butt;stroke-linejoin:miter;stroke-miterlimit:4;stroke-dasharray:none;stroke-opacity:1"
         d="m 9523.4056,633.289 c 0,0 27.9526,-12.70578 6.7764,-31.34093 1.6941,-26.25861 6.7764,-54.21133 12.7058,-49.97607 13.5528,8.47052 12.7057,20.32925 12.7057,20.32925"
         id="path1670"
         sodipodi:nodetypes="cccc" />
      <path
         style="display:inline;opacity:1;fill:none;stroke:#000000;stroke-width:6.6861;stroke-linecap:butt;stroke-linejoin:miter;stroke-miterlimit:4;stroke-dasharray:none;stroke-opacity:1"
         d="m 9201.1653,541.57681 c -78.5472,-57.67966 -90.4059,121.04831 13.7815,105.80137"
         id="path1668-3"
         sodipodi:nodetypes="cc" />
      <path
         style="display:inline;opacity:1;fill:none;stroke:#000000;stroke-width:6.6861;stroke-linecap:butt;stroke-linejoin:miter;stroke-miterlimit:4;stroke-dasharray:none;stroke-opacity:1"
         d="m 9191.2293,633.51946 c 0,0 -27.9526,-12.70578 -6.7764,-31.34093 -1.6941,-26.25861 -6.7764,-54.21133 -12.7058,-49.97607 -13.5528,8.47052 -12.7057,20.32925 -12.7057,20.32925"
         id="path1670-2"
         sodipodi:nodetypes="cccc" />
      <path
         style="fill:none;stroke:#000000;stroke-width:6.6861;stroke-linecap:butt;stroke-linejoin:miter;stroke-miterlimit:4;stroke-dasharray:none;stroke-opacity:1"
         d="m 9304.1857,689.3986 c 0,0 22.757,16.26043 52.7082,17.36973 32.3436,1.1979 50.3123,-18.56765 50.3123,-18.56765"
         id="path1690"
         sodipodi:nodetypes="csc" />
      <path
         style="fill:none;stroke:#000000;stroke-width:6.6861;stroke-linecap:butt;stroke-linejoin:miter;stroke-miterlimit:4;stroke-dasharray:none;stroke-opacity:1"
         d="m 9355.097,620.51863 c -24.5572,11.97913 -21.5624,49.71337 8.9844,47.31754"
         id="path1692"
         sodipodi:nodetypes="cc" />
      <path
         style="fill:none;stroke:#813c1e;stroke-width:6.6861;stroke-linecap:butt;stroke-linejoin:miter;stroke-miterlimit:4;stroke-dasharray:none;stroke-opacity:1"
         d="m 9420.9822,673.22678 c 0,0 5.9896,7.18747 5.9896,10.78121"
         id="path1694" />
      <path
         style="display:inline;opacity:1;fill:none;stroke:#813c1e;stroke-width:6.6861;stroke-linecap:butt;stroke-linejoin:miter;stroke-miterlimit:4;stroke-dasharray:none;stroke-opacity:1"
         d="m 9293.0764,673.48097 c 0,0 -5.9896,7.18747 -5.9896,10.78121"
         id="path1694-1" />
      <path
         style="fill:none;stroke:#813c1e;stroke-width:6.6861;stroke-linecap:butt;stroke-linejoin:miter;stroke-miterlimit:4;stroke-dasharray:none;stroke-opacity:1"
         d="m 9398.8208,609.13846 c 0,0 8.3854,15.57287 21.5625,13.776"
         id="path1711" />
      <path
         style="display:inline;opacity:1;fill:none;stroke:#813c1e;stroke-width:6.6861;stroke-linecap:butt;stroke-linejoin:miter;stroke-miterlimit:4;stroke-dasharray:none;stroke-opacity:1"
         d="m 9316.4711,606.51717 c 0,0 -8.3854,15.57287 -21.5625,13.776"
         id="path1711-5" />
      <path
         style="fill:none;stroke:#000000;stroke-width:6.6861;stroke-linecap:butt;stroke-linejoin:miter;stroke-miterlimit:4;stroke-dasharray:none;stroke-opacity:1"
         d="m 9315.5659,590.57082 c 0,0 -53.906,-82.05699 -80.859,-11.38017"
         id="path1728"
         sodipodi:nodetypes="cc" />
      <ellipse
         style="fill:#000000;fill-opacity:1;stroke:#000000;stroke-width:6.6861;stroke-linecap:round;stroke-linejoin:round;stroke-miterlimit:4;stroke-dasharray:none;stroke-opacity:1"
         id="path1730"
         cx="9279.6289"
         cy="577.69324"
         rx="12.57808"
         ry="20.66399" />
      <ellipse
         style="fill:#d8cdc7;fill-opacity:1;stroke:#d8cdc7;stroke-width:6.6861;stroke-linecap:round;stroke-linejoin:round;stroke-miterlimit:4;stroke-dasharray:none;stroke-opacity:1"
         id="path1732"
         cx="9280.2275"
         cy="578.89117"
         rx="1.7968687"
         ry="6.8879962" />
      <path
         style="display:inline;opacity:1;fill:none;stroke:#000000;stroke-width:6.6861;stroke-linecap:butt;stroke-linejoin:miter;stroke-miterlimit:4;stroke-dasharray:none;stroke-opacity:1"
         d="m 9398.9336,589.75364 c 0,0 53.906,-82.05699 80.859,-11.38017"
         id="path1728-7"
         sodipodi:nodetypes="cc" />
      <ellipse
         style="display:inline;opacity:1;fill:#000000;fill-opacity:1;stroke:#000000;stroke-width:6.6861;stroke-linecap:round;stroke-linejoin:round;stroke-miterlimit:4;stroke-dasharray:none;stroke-opacity:1"
         id="path1730-4"
         cx="-9434.8701"
         cy="576.87604"
         rx="12.57808"
         ry="20.66399"
         transform="scale(-1,1)" />
      <ellipse
         style="display:inline;opacity:1;fill:#d8cdc7;fill-opacity:1;stroke:#d8cdc7;stroke-width:6.6861;stroke-linecap:round;stroke-linejoin:round;stroke-miterlimit:4;stroke-dasharray:none;stroke-opacity:1"
         id="path1732-1"
         cx="-9434.2715"
         cy="578.07397"
         rx="1.7968687"
         ry="6.8879962"
         transform="scale(-1,1)" />
      <path
         style="fill:none;stroke:#000000;stroke-width:6.6861;stroke-linecap:butt;stroke-linejoin:miter;stroke-miterlimit:4;stroke-dasharray:none;stroke-opacity:1"
         d="m 9510.8256,569.60735 c 0,0 -70.0778,8.98435 -156.3275,-149.73905 -65.8853,159.92131 -150.338,136.56202 -150.338,136.56202"
         id="path1755"
         sodipodi:nodetypes="ccc" />
      <path
         style="fill:none;stroke:#000000;stroke-width:6.6861;stroke-linecap:butt;stroke-linejoin:miter;stroke-miterlimit:4;stroke-dasharray:none;stroke-opacity:1"
         d="m 9393.4302,527.68042 c 0,0 15.5729,-14.9739 22.7604,-14.37495"
         id="path1757"
         sodipodi:nodetypes="cc" />
      <path
         style="display:inline;opacity:1;fill:none;stroke:#000000;stroke-width:6.6861;stroke-linecap:butt;stroke-linejoin:miter;stroke-miterlimit:4;stroke-dasharray:none;stroke-opacity:1"
         d="m 9320.9343,527.85512 c 0,0 -15.5729,-14.9739 -22.7604,-14.37495"
         id="path1757-1"
         sodipodi:nodetypes="cc" />
      <path
         style="fill:none;stroke:#000000;stroke-width:6.6861;stroke-linecap:butt;stroke-linejoin:miter;stroke-miterlimit:4;stroke-dasharray:none;stroke-opacity:1"
         d="m 9170.6185,527.68042 c 0,0 48.5155,-225.80649 182.6817,-168.30669 128.1766,-58.69772 194.6607,168.30669 194.6607,168.30669"
         id="path1774"
         sodipodi:nodetypes="ccc" />
      <path
         style="fill:none;stroke:#000000;stroke-width:6.6861;stroke-linecap:butt;stroke-linejoin:miter;stroke-miterlimit:4;stroke-dasharray:none;stroke-opacity:1"
         d="m 9146.6603,618.72176 c 0,0 -158.7234,178.48895 -20.3645,198.85347 -2.9949,-8.38539 0.5989,-17.36973 0.5989,-17.36973 49.7134,37.13528 91.0414,20.36451 91.0414,20.36451"
         id="path1776"
         sodipodi:nodetypes="cccc" />
      <path
         style="display:inline;opacity:1;fill:none;stroke:#000000;stroke-width:6.6861;stroke-linecap:butt;stroke-linejoin:miter;stroke-miterlimit:4;stroke-dasharray:none;stroke-opacity:1"
         d="m 9565.0095,623.05069 c 0,0 158.7234,178.48895 20.3645,198.85347 2.9949,-8.38539 -0.5989,-17.36973 -0.5989,-17.36973 -49.7134,37.13528 -92.2393,16.17182 -92.2393,16.17182"
         id="path1776-4"
         sodipodi:nodetypes="cccc" />
      <path
         style="fill:none;stroke:#834022;stroke-width:5.9718;stroke-linecap:round;stroke-linejoin:round;stroke-miterlimit:4;stroke-dasharray:none;stroke-opacity:1"
         d="m 9231.7313,656.64549 c -7.4895,-16.584 27.8184,-61.5213 19.2588,-9.62942 22.4687,-48.1471 39.0527,-9.62943 27.8184,2.13986"
         id="path1793"
         sodipodi:nodetypes="ccc" />
      <path
         style="display:inline;opacity:1;fill:none;stroke:#813c1e;stroke-width:5.9718;stroke-linecap:round;stroke-linejoin:round;stroke-miterlimit:4;stroke-dasharray:none;stroke-opacity:1"
         d="m 9433.2678,656.15165 c -7.4895,-16.58399 27.8184,-61.52129 19.2588,-9.62941 22.4687,-48.1471 39.0527,-9.62943 27.8184,2.13986"
         id="path1793-3"
         sodipodi:nodetypes="ccc" />
    </g>
  </g>
</svg>
