<?xml version="1.0" encoding="UTF-8" standalone="no"?>
<svg
   xmlns:dc="http://purl.org/dc/elements/1.1/"
   xmlns:cc="http://creativecommons.org/ns#"
   xmlns:rdf="http://www.w3.org/1999/02/22-rdf-syntax-ns#"
   xmlns:svg="http://www.w3.org/2000/svg"
   xmlns="http://www.w3.org/2000/svg"
   xmlns:sodipodi="http://sodipodi.sourceforge.net/DTD/sodipodi-0.dtd"
   xmlns:inkscape="http://www.inkscape.org/namespaces/inkscape"
   width="440"
   height="600"
   viewBox="0 0 116.41666 158.75"
   version="1.1"
   id="svg898"
   sodipodi:docname="pdg.svg"
   inkscape:version="1.0.1 (3bc2e813f5, 2020-09-07)">
  <defs
     id="defs892" />
  <sodipodi:namedview
     id="base"
     pagecolor="#ffffff"
     bordercolor="#666666"
     borderopacity="1.0"
     inkscape:pageopacity="0.0"
     inkscape:pageshadow="2"
     inkscape:zoom="0.30321301"
     inkscape:cx="-772.01019"
     inkscape:cy="281.22788"
     inkscape:document-units="mm"
     inkscape:current-layer="layer2"
     inkscape:document-rotation="0"
     showgrid="false"
     units="px"
     inkscape:window-width="1920"
     inkscape:window-height="1137"
     inkscape:window-x="-8"
     inkscape:window-y="-8"
     inkscape:window-maximized="1" />
  <metadata
     id="metadata895">
    <rdf:RDF>
      <cc:Work
         rdf:about="">
        <dc:format>image/svg+xml</dc:format>
        <dc:type
           rdf:resource="http://purl.org/dc/dcmitype/StillImage" />
        <dc:title></dc:title>
      </cc:Work>
    </rdf:RDF>
  </metadata>
  <g
     inkscape:groupmode="layer"
     id="layer2"
     inkscape:label="Calque 2"
     style="opacity:1">
    <g
       id="g2789"
       inkscape:export-xdpi="300"
       inkscape:export-ydpi="300"
       style="display:inline;opacity:1"
       transform="matrix(0.05587237,0,0,0.05587237,-592.62337,27.391683)">
      <path
         style="display:inline;fill:#d1cddc;fill-opacity:1;stroke:none;stroke-width:1px;stroke-linecap:butt;stroke-linejoin:miter;stroke-opacity:1"
         d="m 11715.576,751.33512 -186.687,-0.83402 -16.605,73.68049 c 0,0 65.58,337.64981 109.269,340.51491 36.506,-21.0767 110.964,-340.51491 110.964,-340.51491 z"
         id="path1991"
         sodipodi:nodetypes="cccccc" />
      <path
         style="display:inline;fill:#e4b199;fill-opacity:1;stroke:none;stroke-width:1px;stroke-linecap:butt;stroke-linejoin:miter;stroke-opacity:1"
         d="m 11725.167,408.48813 c 0,0 -54.861,35.77935 -177.102,-11.57927 -54.406,-11.44592 -63.569,108.75853 -64.074,147.3392 -74.129,-53.44121 -5.126,91.54356 5.862,102.44843 10.106,34.97588 34.194,69.9273 59.701,84.30938 -0.336,19.49523 2.214,65.75779 5.082,78.77584 2.868,13.01805 60.988,79.62288 60.988,79.62288 l 14.4,-0.84705 60.988,-77.92878 4.235,-77.92879 c 0,0 56.618,-45.02804 57.599,-86.3993 28.913,-46.15962 63.416,-145.17022 5.862,-102.44843 3.099,-42.67062 -25.49,-144.26131 -33.541,-135.36411"
         id="path1970"
         sodipodi:nodetypes="cccccsccccccc" />
      <path
         style="display:inline;fill:#cca05c;fill-opacity:1;stroke:none;stroke-width:1px;stroke-linecap:butt;stroke-linejoin:miter;stroke-opacity:1"
         d="m 11763.495,539.65954 c 0,0 -23.094,-128.89577 -38.328,-131.17141 -75.088,35.23318 -151.426,-0.13335 -177.102,-11.57927 -32.859,-20.22458 -71.363,116.58083 -69.668,139.15695 1.695,22.57612 -17.816,-146.44155 -0.08,-157.30087 17.736,-10.85932 44.34,-11.1507 55.778,-9.80792 33.784,-65.69425 174.384,-25.27469 199.452,7.18748 72.952,-0.25829 34.031,127.77339 29.948,163.51504"
         id="path1972"
         sodipodi:nodetypes="ccccsccc" />
      <path
         style="display:inline;fill:#ece1dc;fill-opacity:1;stroke:none;stroke-width:1px;stroke-linecap:butt;stroke-linejoin:miter;stroke-opacity:1"
         d="m 11653.891,552.83658 c 0,0 25.692,29.22288 78.463,0.59896 -37.519,-14.51608 -78.463,-0.59896 -78.463,-0.59896"
         id="path1974"
         sodipodi:nodetypes="ccc" />
      <path
         style="display:inline;fill:#ece1dc;fill-opacity:1;stroke:none;stroke-width:1px;stroke-linecap:butt;stroke-linejoin:miter;stroke-opacity:1"
         d="m 11590.421,552.52809 c 0,0 -25.692,29.22288 -78.463,0.59896 37.519,-14.51608 78.463,-0.59896 78.463,-0.59896"
         id="path1974-0"
         sodipodi:nodetypes="ccc" />
      <path
         style="display:inline;fill:#000000;fill-opacity:1;stroke:none;stroke-width:1px;stroke-linecap:butt;stroke-linejoin:miter;stroke-opacity:1"
         d="m 11596.141,893.63985 17.789,5.92937 h 16.094 l 20.329,-9.31757 -2.025,46.48867 -14.4,15.24693 15.247,155.85755 -27.622,56.8517 -26.258,-37.2703 17.788,-175.33976 -17.788,-18.63514 z"
         id="path1993" />
      <path
         style="display:inline;fill:#38384d;fill-opacity:1;stroke:none;stroke-width:1px;stroke-linecap:butt;stroke-linejoin:miter;stroke-opacity:1"
         d="m 11528.889,750.5011 -56.753,77.92878 -110.955,15.9175 -43.893,49.47972 -15.962,284.1093 c 0,0 -29.71,58.375 -3.682,112.9838 -6.693,52.2147 -30.469,146.1619 71.999,162.634 -6.068,42.0101 -23.265,198.3281 -10.676,215.1382 12.589,16.8101 155.323,12.62 182.117,-0.8471 26.794,-13.4671 80.772,-174.0716 81.316,-193.1278 16.505,57.5576 57.265,177.2771 72,188.0456 54.888,24.4891 166.824,15.9594 189.739,3.3882 22.915,-12.5712 -5.636,-190.6903 -9.317,-211.763 51.385,-10.6979 91.016,-31.2589 71.999,-162.634 24.409,-72.8701 -4.287,-109.7042 -5.168,-120.5397 -7.876,-96.8718 -17.042,-278.98362 -17.042,-278.98362 l -40.701,-44.69136 -111.581,-18.27572 -56.753,-77.92878 16.941,72.84647 c 0,0 -86.818,345.63041 -110.964,340.51491 -33.723,-4.3174 -109.269,-340.51491 -109.269,-340.51491 z"
         id="path1995"
         sodipodi:nodetypes="cccccccssccsccscccccccc" />
      <path
         style="display:inline;fill:#232328;fill-opacity:1;stroke:none;stroke-width:1px;stroke-linecap:butt;stroke-linejoin:miter;stroke-opacity:1"
         d="m 11620.909,1480.7588 c 0,0 -55.817,178.3562 -79.825,187.0865 -24.008,8.7303 -124.051,19.6975 -135.822,14.2139 -11.771,-5.4836 46.085,418.9357 52.709,427.6548 4.367,24.5199 21.445,130.4615 17.91,141.8972 -3.535,11.4356 -5.388,34.2158 1.256,50.9667 6.644,16.7509 17.859,156.9937 21.563,165.3119 3.704,8.3182 105.429,20.1842 115.23,8.8902 9.801,-11.294 -0.921,-168.1732 5.851,-187.3598 6.772,-19.1867 13.717,176.6433 11.937,185.6657 -1.78,9.0224 99.475,16.2712 112.615,-7.3863 13.14,-23.6575 14.185,-150.0871 21.563,-165.3119 7.378,-15.2248 8.507,-38.926 3.992,-47.955 -4.514,-9.029 8.34,-136.3245 15.174,-144.9089 6.834,-8.5844 60.775,-410.5108 52.709,-427.6548 -23.302,0.3497 -129.698,-1.3169 -143.371,-19.1059 -13.673,-17.789 -73.491,-182.0043 -73.491,-182.0043 z"
         id="path1997"
         sodipodi:nodetypes="csscsssssssssscsc" />
      <path
         style="fill:none;stroke:#000000;stroke-width:8;stroke-linecap:butt;stroke-linejoin:miter;stroke-miterlimit:4;stroke-dasharray:none;stroke-opacity:1"
         d="m 11483.991,544.24806 c 0,0 8.781,120.65353 15.968,137.42431 24.129,42.18233 89.005,76.03894 119.997,76.60619 31.871,0.58335 96.716,-28.02324 127.269,-82.74109 5.99,-33.54155 11.483,-131.68523 11.483,-131.68523"
         id="path2222"
         sodipodi:nodetypes="ccscc" />
      <path
         style="fill:none;stroke:#000000;stroke-width:8;stroke-linecap:butt;stroke-linejoin:miter;stroke-miterlimit:4;stroke-dasharray:none;stroke-opacity:1"
         d="m 11752.846,646.30067 c 0,0 81.182,-164.23836 5.862,-102.44843"
         id="path2224"
         sodipodi:nodetypes="cc" />
      <path
         style="fill:none;stroke:#000000;stroke-width:8;stroke-linecap:butt;stroke-linejoin:miter;stroke-miterlimit:4;stroke-dasharray:none;stroke-opacity:1"
         d="m 11754.541,609.87744 22.87,-51.67018"
         id="path2226" />
      <path
         style="display:inline;opacity:1;fill:none;stroke:#000000;stroke-width:8;stroke-linecap:butt;stroke-linejoin:miter;stroke-miterlimit:4;stroke-dasharray:none;stroke-opacity:1"
         d="m 11489.853,646.69649 c 0,0 -81.182,-164.23836 -5.862,-102.44843"
         id="path2224-9"
         sodipodi:nodetypes="cc" />
      <path
         style="display:inline;opacity:1;fill:none;stroke:#000000;stroke-width:8;stroke-linecap:butt;stroke-linejoin:miter;stroke-miterlimit:4;stroke-dasharray:none;stroke-opacity:1"
         d="m 11488.158,610.27326 -22.87,-51.67018"
         id="path2226-8" />
      <path
         style="fill:none;stroke:#000000;stroke-width:8;stroke-linecap:butt;stroke-linejoin:miter;stroke-miterlimit:4;stroke-dasharray:none;stroke-opacity:1"
         d="m 11695.247,732.69997 -4.235,77.92879 -60.988,77.92878 -14.4,0.84705 -60.988,-79.62288 -5.082,-78.77584"
         id="path2246" />
      <path
         style="fill:none;stroke:#000000;stroke-width:8;stroke-linecap:butt;stroke-linejoin:miter;stroke-miterlimit:4;stroke-dasharray:none;stroke-opacity:1"
         d="m 11695.247,751.33512 h 20.329 l 56.753,77.92878 c 0,0 106.368,12.98017 110.963,18.63515 11.012,13.55283 38.965,38.11734 41.506,48.28196 2.541,10.16462 14.4,262.58609 17.788,280.37419 3.388,17.7881 29.647,27.9528 4.235,115.1991 1.695,61.8348 6.777,88.9404 1.694,110.1167 -22.023,46.5879 -73.693,52.5173 -73.693,52.5173"
         id="path2251"
         sodipodi:nodetypes="cccsssccc" />
      <path
         style="fill:none;stroke:#000000;stroke-width:8;stroke-linecap:butt;stroke-linejoin:miter;stroke-miterlimit:4;stroke-dasharray:none;stroke-opacity:1"
         d="m 11772.329,829.2639 -11.859,79.62289 43.2,16.09399 c 0,0 -49.977,127.05782 -151.623,258.35082"
         id="path2253" />
      <path
         style="display:inline;opacity:1;fill:none;stroke:#000000;stroke-width:8;stroke-linecap:butt;stroke-linejoin:miter;stroke-miterlimit:4;stroke-dasharray:none;stroke-opacity:1"
         d="m 11549.218,750.5011 h -20.329 l -56.753,77.92878 c 0,0 -106.368,12.98017 -110.963,18.63515 -11.012,13.55283 -38.965,38.11734 -41.506,48.28192 -2.541,10.1647 -14.4,262.58605 -17.788,280.37415 -3.388,17.7881 -29.647,27.9528 -4.235,115.1991 -1.695,61.8348 -6.777,88.9404 -1.694,110.1167 22.023,46.5879 73.693,52.5173 73.693,52.5173"
         id="path2251-4"
         sodipodi:nodetypes="cccsssccc" />
      <path
         style="display:inline;opacity:1;fill:none;stroke:#000000;stroke-width:8;stroke-linecap:butt;stroke-linejoin:miter;stroke-miterlimit:4;stroke-dasharray:none;stroke-opacity:1"
         d="m 11472.136,828.42988 11.859,79.62287 -43.2,16.094 c 0,0 49.977,127.05775 151.623,258.35075"
         id="path2253-7" />
      <path
         style="fill:none;stroke:#000000;stroke-width:8;stroke-linecap:butt;stroke-linejoin:miter;stroke-miterlimit:4;stroke-dasharray:none;stroke-opacity:1"
         d="m 11768.093,1067.2855 0.847,-15.2469 72.847,-1.6941 0.847,16.094"
         id="path2276" />
      <path
         style="fill:none;stroke:#000000;stroke-width:8;stroke-linecap:butt;stroke-linejoin:miter;stroke-miterlimit:4;stroke-dasharray:none;stroke-opacity:1"
         d="m 11715.576,751.33512 16.941,72.84647 c 0,0 -49.128,254.11561 -128.752,371.00881 -47.435,137.2224 55.906,413.3614 90.635,467.5727 52.517,24.5645 149.928,25.4115 189.739,3.3882 8.471,-18.6352 -5.929,-245.6451 -11.011,-259.1979 -5.083,-13.5529 -24.565,-134.6813 -20.329,-153.3164 4.235,-18.6352 26.258,-143.9989 30.493,-157.5517 4.236,-13.5529 12.706,-161.78695 33.882,-210.06891"
         id="path2278"
         sodipodi:nodetypes="cccccsssc" />
      <path
         style="fill:none;stroke:#000000;stroke-width:8;stroke-linecap:butt;stroke-linejoin:miter;stroke-miterlimit:4;stroke-dasharray:none;stroke-opacity:1"
         d="m 11622.4,1474.7175 c 0,0 -47.434,173.6457 -81.316,193.1278 -33.883,16.094 -160.94,21.1764 -182.117,0.8471 -6.776,-44.8937 11.012,-261.739 16.094,-275.2919 5.083,-13.5528 17.788,-119.4343 16.094,-134.6812 2.541,-46.5879 -27.953,-144.8459 -30.494,-168.5634 -2.077,-19.3896 -22.87,-177.8809 -35.576,-202.44541"
         id="path2280"
         sodipodi:nodetypes="cccscsc" />
      <circle
         style="fill:none;fill-opacity:1;stroke:#000000;stroke-width:8;stroke-linecap:round;stroke-linejoin:bevel;stroke-miterlimit:4;stroke-dasharray:none;stroke-opacity:1"
         id="path2282"
         cx="11627.482"
         cy="1309.5424"
         r="16.94104" />
      <path
         style="fill:none;stroke:#000000;stroke-width:8;stroke-linecap:butt;stroke-linejoin:miter;stroke-miterlimit:4;stroke-dasharray:none;stroke-opacity:1"
         d="m 11528.889,750.5011 -16.605,73.68049 c 0,0 55.905,305.78581 109.269,340.51491"
         id="path2284" />
      <path
         style="fill:none;stroke:#000000;stroke-width:8;stroke-linecap:butt;stroke-linejoin:miter;stroke-miterlimit:4;stroke-dasharray:none;stroke-opacity:1"
         d="m 11871.434,1399.3299 c 0,0 -49.13,29.6468 -81.317,30.4939 1.694,17.788 5.082,27.1056 5.082,27.1056"
         id="path2286"
         sodipodi:nodetypes="ccc" />
      <path
         style="fill:none;stroke:#000000;stroke-width:8;stroke-linecap:butt;stroke-linejoin:miter;stroke-miterlimit:4;stroke-dasharray:none;stroke-opacity:1"
         d="m 11809.599,1462.8588 c 0,0 27.106,-5.0823 33.882,-11.0117"
         id="path2288" />
      <path
         style="display:inline;opacity:1;fill:none;stroke:#000000;stroke-width:8;stroke-linecap:butt;stroke-linejoin:miter;stroke-miterlimit:4;stroke-dasharray:none;stroke-opacity:1"
         d="m 11373.9,1396.9589 c 0,0 49.13,29.6468 81.317,30.4939 -1.694,17.788 -5.082,27.1056 -5.082,27.1056"
         id="path2286-0"
         sodipodi:nodetypes="ccc" />
      <path
         style="display:inline;opacity:1;fill:none;stroke:#000000;stroke-width:8;stroke-linecap:butt;stroke-linejoin:miter;stroke-miterlimit:4;stroke-dasharray:none;stroke-opacity:1"
         d="m 11435.735,1460.4878 c 0,0 -27.106,-5.0823 -33.882,-11.0117"
         id="path2288-0" />
      <path
         style="fill:none;stroke:#000000;stroke-width:8;stroke-linecap:butt;stroke-linejoin:miter;stroke-miterlimit:4;stroke-dasharray:none;stroke-opacity:1"
         d="m 11852.799,1266.3427 c 0,0 18.635,-19.4822 40.658,7.6235"
         id="path2308" />
      <path
         style="fill:none;stroke:#000000;stroke-width:8;stroke-linecap:butt;stroke-linejoin:miter;stroke-miterlimit:4;stroke-dasharray:none;stroke-opacity:1"
         d="m 11852.799,1266.3427 c 0,0 18.635,-33.035 55.905,-46.5878"
         id="path2310" />
      <path
         style="display:inline;opacity:1;fill:none;stroke:#000000;stroke-width:8;stroke-linecap:butt;stroke-linejoin:miter;stroke-miterlimit:4;stroke-dasharray:none;stroke-opacity:1"
         d="m 11391.179,1265.267 c 0,0 -18.635,-19.4822 -40.658,7.6235"
         id="path2308-9" />
      <path
         style="display:inline;opacity:1;fill:none;stroke:#000000;stroke-width:8;stroke-linecap:butt;stroke-linejoin:miter;stroke-miterlimit:4;stroke-dasharray:none;stroke-opacity:1"
         d="m 11391.179,1265.267 c 0,0 -18.635,-33.035 -55.905,-46.5878"
         id="path2310-0" />
      <path
         style="fill:none;stroke:#000000;stroke-width:8;stroke-linecap:butt;stroke-linejoin:miter;stroke-miterlimit:4;stroke-dasharray:none;stroke-opacity:1"
         d="m 11524.989,881.78113 c 0,0 57.6,65.223 70.306,65.223 0.847,-27.10566 0.847,-40.65849 0.846,-53.36428 11.013,2.54116 17.789,5.92937 17.789,5.92937 h 16.094 c 0,0 11.012,-5.92936 20.329,-9.31757 4.236,14.39988 -4.235,40.65849 -2.541,55.90543 24.564,-1.69411 70.305,-63.5289 70.305,-63.5289"
         id="path2330"
         sodipodi:nodetypes="cccccccc" />
      <path
         style="fill:none;stroke:#000000;stroke-width:8;stroke-linecap:butt;stroke-linejoin:miter;stroke-miterlimit:4;stroke-dasharray:none;stroke-opacity:1"
         d="m 11595.295,933.4513 17.788,18.63514 -17.788,175.33976"
         id="path2332"
         sodipodi:nodetypes="ccc" />
      <path
         style="display:inline;opacity:1;fill:none;stroke:#000000;stroke-width:8;stroke-linecap:butt;stroke-linejoin:miter;stroke-miterlimit:4;stroke-dasharray:none;stroke-opacity:1"
         d="m 11648.328,936.74032 -14.4,15.24693 15.247,155.85755"
         id="path2332-4"
         sodipodi:nodetypes="ccc" />
      <path
         style="fill:none;stroke:#000000;stroke-width:8;stroke-linecap:butt;stroke-linejoin:miter;stroke-miterlimit:4;stroke-dasharray:none;stroke-opacity:1"
         d="m 11595.792,1557.2861 52.708,-1.1979"
         id="path2349" />
      <path
         style="fill:none;stroke:#000000;stroke-width:8;stroke-linecap:butt;stroke-linejoin:miter;stroke-miterlimit:4;stroke-dasharray:none;stroke-opacity:1"
         d="m 11837.771,1681.869 c 0,0 -37.136,406.0923 -52.709,427.6548 -4.561,52.0563 -19.166,147.3432 -14.375,153.3328 5.639,20.3894 2.396,31.0003 -4.791,39.5311 -7.188,5.9895 -22.761,160.5202 -21.563,165.3119"
         id="path2351"
         sodipodi:nodetypes="ccccc" />
      <path
         style="fill:none;stroke:#000000;stroke-width:8;stroke-linecap:butt;stroke-linejoin:miter;stroke-miterlimit:4;stroke-dasharray:none;stroke-opacity:1"
         d="m 11779.105,1726.292 c 0,0 -27.106,357.4559 -26.259,375.244 0.847,17.7881 -0.847,73.6935 -4.235,86.3993 -3.388,12.7058 -18.634,167.7163 -25.411,222.7747"
         id="path2353"
         sodipodi:nodetypes="cssc" />
      <path
         style="fill:none;stroke:#000000;stroke-width:8;stroke-linecap:butt;stroke-linejoin:miter;stroke-miterlimit:4;stroke-dasharray:none;stroke-opacity:1"
         d="m 11553.789,1744.0801 124.517,-12.7058"
         id="path2355" />
      <path
         style="fill:none;stroke:#000000;stroke-width:8;stroke-linecap:butt;stroke-linejoin:miter;stroke-miterlimit:4;stroke-dasharray:none;stroke-opacity:1"
         d="m 11624.095,1736.4566 c 0,0 -1.695,498.0666 0,538.7251 1.694,40.6585 11.858,182.9632 7.623,199.9042"
         id="path2357" />
      <path
         style="fill:none;stroke:#000000;stroke-width:8;stroke-linecap:butt;stroke-linejoin:miter;stroke-miterlimit:4;stroke-dasharray:none;stroke-opacity:1"
         d="m 11622.401,2244.6878 c 0,0 -15.248,208.3748 -8.471,232.0922"
         id="path2359"
         sodipodi:nodetypes="cc" />
      <path
         style="display:inline;opacity:1;fill:none;stroke:#000000;stroke-width:8;stroke-linecap:butt;stroke-linejoin:miter;stroke-miterlimit:4;stroke-dasharray:none;stroke-opacity:1"
         d="m 11405.262,1682.0592 c 0,0 37.136,406.0923 52.709,427.6548 4.561,52.0563 19.166,147.3432 14.375,153.3328 -5.639,20.3894 -2.396,31.0003 4.791,39.5311 7.188,5.9895 22.761,160.5202 21.563,165.3119"
         id="path2351-2"
         sodipodi:nodetypes="ccccc" />
      <path
         style="display:inline;opacity:1;fill:none;stroke:#000000;stroke-width:8;stroke-linecap:butt;stroke-linejoin:miter;stroke-miterlimit:4;stroke-dasharray:none;stroke-opacity:1"
         d="m 11463.928,1726.4822 c 0,0 27.106,357.4559 26.259,375.244 -0.847,17.7881 0.847,73.6935 4.235,86.3993 3.388,12.7058 19.482,158.3987 25.411,222.7747"
         id="path2353-4"
         sodipodi:nodetypes="cssc" />
      <path
         style="fill:none;stroke:#000000;stroke-width:8;stroke-linecap:butt;stroke-linejoin:miter;stroke-miterlimit:4;stroke-dasharray:none;stroke-opacity:1"
         d="m 11630.871,1558.5757 -6.776,177.8809"
         id="path2379" />
      <path
         style="fill:none;stroke:#000000;stroke-width:8;stroke-linecap:butt;stroke-linejoin:miter;stroke-miterlimit:4;stroke-dasharray:none;stroke-opacity:1"
         d="m 11606.306,1557.7286 c 0,0 -3.388,99.1051 0.847,105.8815 4.236,6.7764 17.789,16.094 17.789,16.094"
         id="path2381" />
      <path
         style="fill:none;stroke:#000000;stroke-width:8;stroke-linecap:butt;stroke-linejoin:miter;stroke-miterlimit:4;stroke-dasharray:none;stroke-opacity:1"
         d="m 11564.646,664.84139 c 0,0 22.139,10.18226 53.907,10.18226 34.14,0 61.093,-8.98435 61.093,-8.98435"
         id="path2383"
         sodipodi:nodetypes="csc" />
      <path
         style="fill:none;stroke:#000000;stroke-width:8;stroke-linecap:butt;stroke-linejoin:miter;stroke-miterlimit:4;stroke-dasharray:none;stroke-opacity:1"
         d="m 11614.959,557.62823 c 0,0 -2.995,59.29667 -5.99,63.48936 -2.995,4.19269 -12.578,10.78121 -11.38,15.57286 1.198,4.79165 23.359,12.57808 26.354,12.57808"
         id="path2387"
         sodipodi:nodetypes="cssc" />
      <path
         style="fill:none;stroke:#000000;stroke-width:8;stroke-linecap:butt;stroke-linejoin:miter;stroke-miterlimit:4;stroke-dasharray:none;stroke-opacity:1"
         d="m 11653.891,552.83658 c 0,0 37.135,-14.9739 78.463,0.59896"
         id="path2389" />
      <ellipse
         style="fill:#000000;fill-opacity:1;stroke:#000000;stroke-width:8;stroke-linecap:round;stroke-linejoin:bevel;stroke-miterlimit:4;stroke-dasharray:none;stroke-opacity:1"
         id="path2391"
         cx="11687.732"
         cy="555.83136"
         rx="8.0859089"
         ry="7.1874747" />
      <path
         style="fill:none;stroke:#000000;stroke-width:8;stroke-linecap:butt;stroke-linejoin:miter;stroke-miterlimit:4;stroke-dasharray:none;stroke-opacity:1"
         d="m 11652.094,516.89921 c 0,0 51.51,-39.53111 90.442,7.18747"
         id="path2395" />
      <path
         style="display:inline;opacity:1;fill:none;stroke:#000000;stroke-width:8;stroke-linecap:butt;stroke-linejoin:miter;stroke-miterlimit:4;stroke-dasharray:none;stroke-opacity:1"
         d="m 11590.421,552.52809 c 0,0 -37.135,-14.9739 -78.463,0.59896"
         id="path2389-7" />
      <ellipse
         style="display:inline;opacity:1;fill:#000000;fill-opacity:1;stroke:#000000;stroke-width:8;stroke-linecap:round;stroke-linejoin:bevel;stroke-miterlimit:4;stroke-dasharray:none;stroke-opacity:1"
         id="path2391-4"
         cx="-11556.579"
         cy="555.52289"
         rx="8.0859089"
         ry="7.1874747"
         transform="scale(-1,1)" />
      <path
         style="display:inline;opacity:1;fill:none;stroke:#000000;stroke-width:8;stroke-linecap:butt;stroke-linejoin:miter;stroke-miterlimit:4;stroke-dasharray:none;stroke-opacity:1"
         d="m 11592.218,516.59072 c 0,0 -51.51,-39.53111 -90.442,7.18747"
         id="path2395-0" />
      <path
         style="fill:none;stroke:#d48e80;stroke-width:8;stroke-linecap:round;stroke-linejoin:round;stroke-miterlimit:4;stroke-dasharray:none;stroke-opacity:1"
         d="m 11513.735,625.31028 c -2.396,-9.5833 26.953,-53.3071 23.958,-10.18225 18.568,-22.76034 25.157,-5.98956 22.761,1.79687"
         id="path2418"
         sodipodi:nodetypes="ccc" />
      <path
         style="display:inline;opacity:1;fill:none;stroke:#d48e80;stroke-width:8;stroke-linecap:round;stroke-linejoin:round;stroke-miterlimit:4;stroke-dasharray:none;stroke-opacity:1"
         d="m 11677.691,618.14333 c -2.396,-9.5833 26.953,-53.3071 23.958,-10.18225 18.568,-22.76034 25.157,-5.98956 22.761,1.79687"
         id="path2418-8"
         sodipodi:nodetypes="ccc" />
      <path
         style="fill:none;stroke:#000000;stroke-width:8;stroke-linecap:butt;stroke-linejoin:miter;stroke-miterlimit:4;stroke-dasharray:none;stroke-opacity:1"
         d="m 11483.991,544.24806 c 0,0 -6.193,-106.41107 48.911,-146.54114 38.932,-12.57808 34.739,17.96869 92.239,23.95825 57.5,5.98956 95.833,-15.57286 100.026,-13.17704 38.333,60.49458 33.541,135.36411 33.541,135.36411"
         id="path2435"
         sodipodi:nodetypes="ccscc" />
      <path
         style="fill:none;stroke:#000000;stroke-width:8;stroke-linecap:butt;stroke-linejoin:miter;stroke-miterlimit:4;stroke-dasharray:none;stroke-opacity:1"
         d="m 11478.397,536.06581 c 0,0 -12.878,-111.10638 -0.08,-157.30087 24.183,-14.44982 46.494,-13.10218 55.778,-9.80792 69.479,-77.86431 182.681,-13.17703 199.452,7.18748 28.75,9.5833 43.724,19.1666 44.323,33.54155 0.599,18.56764 -14.375,129.97349 -14.375,129.97349"
         id="path2437"
         sodipodi:nodetypes="cccccc" />
    </g>
  </g>
</svg>
